<svg width="43" height="33" viewBox="0 0 43 33" fill="none" xmlns="http://www.w3.org/2000/svg">
<path d="M34.2576 4.69197L32.6919 6.52807L31.1511 8.33394L29.4007 10.3892C29.3546 10.3514 29.312 10.3136 29.2693 10.2683C28.6693 9.62979 28.6693 8.59085 29.2693 7.94859L30.1427 7.01921L32.2091 4.82042C32.5038 4.50685 32.9014 4.33684 33.299 4.33684C33.5227 4.33684 33.7499 4.38973 33.9594 4.49552C34.0659 4.55219 34.1653 4.61641 34.2541 4.69197H34.2576Z" fill="#3D63AE"/>
<path d="M34.2576 4.69197L32.6919 6.52807L31.1511 8.33394L29.4007 10.3892C29.3546 10.3514 29.312 10.3136 29.2693 10.2683C28.6693 9.62979 28.6693 8.59085 29.2693 7.94859L30.1427 7.01921L32.2091 4.82042C32.5038 4.50685 32.9014 4.33684 33.299 4.33684C33.5227 4.33684 33.7499 4.38973 33.9594 4.49552C34.0659 4.55219 34.1653 4.61641 34.2541 4.69197H34.2576Z" fill="#3D63AE"/>
<path d="M28.5174 26.9429C28.5316 27.6267 28.0204 28.1821 27.3813 28.1821H11.1099L12.4768 25.7679H27.3316C27.9529 25.7679 28.4997 26.2817 28.5174 26.9429Z" fill="black"/>
<path d="M31.7538 5.30302L30.9301 4.23007C30.8697 4.15452 30.8094 4.07896 30.7455 4.00717C30.0567 3.22891 29.1016 2.79066 28.0898 2.79066H13.4089C12.2728 2.79066 11.1828 3.36492 10.4905 4.3283L5.42409 11.4045L3.70215 13.8073H4.92703L5.99215 14.5931L7.36615 12.6701L12.2941 5.79038C12.5568 5.42392 12.9758 5.20479 13.4089 5.20479H28.0862C28.5087 5.20479 28.9028 5.40503 29.1726 5.7526L29.2117 5.80171L30.1419 7.01445L31.1502 8.33296L32.6911 6.52709L31.7538 5.30302Z" fill="black"/>
<path d="M40.7651 18.4585V28.0357C40.7651 29.0595 40.3958 30.0229 39.7248 30.7559L39.352 31.1639C38.6668 31.9157 37.7082 32.3464 36.7247 32.3464H35.3543C34.14 32.3464 33.0075 31.7117 32.3258 30.6463L28.0298 23.9517C27.7706 23.5437 27.3375 23.3019 26.8724 23.3019H14.6661C14.1797 23.3019 13.7217 23.5777 13.4697 24.0197L12.4791 25.7689L11.1122 28.1831L9.81986 30.4612C9.15948 31.6248 7.9559 32.3464 6.67776 32.3464H4.97712C3.99722 32.3464 3.07766 31.9421 2.38179 31.2054C1.68946 30.4687 1.30957 29.4865 1.30957 28.4437V18.4812C1.30957 17.6312 1.57585 16.7924 2.0587 16.1162L3.70608 13.8116H4.93097L5.99609 14.5974L3.8623 17.5783C3.67768 17.8352 3.57472 18.1563 3.57472 18.4812V28.4437C3.57472 28.8404 3.72029 29.2144 3.98656 29.4978C4.24929 29.7774 4.60078 29.936 4.97712 29.936H6.67776C7.16416 29.936 7.62571 29.6602 7.87424 29.2144L9.52517 26.3016L11.524 22.7768C12.1844 21.6131 13.388 20.8878 14.6661 20.8878H26.8759C28.0902 20.8878 29.2227 21.5263 29.9044 22.5916L34.2004 29.2862C34.4596 29.6942 34.8927 29.936 35.3578 29.936H36.7283C37.1011 29.936 37.4703 29.7698 37.7295 29.4865L38.1023 29.0784C38.3579 28.7989 38.4964 28.4286 38.4964 28.0395V18.4623C38.4964 18.1223 38.3827 17.7861 38.1804 17.5216L35.3578 14.5974L37.0436 13.1087L39.9378 15.9991C40.4704 16.6904 40.7615 17.5669 40.7615 18.4661L40.7651 18.4585Z" fill="black"/>
<path d="M23.8835 16.8647L22.4243 18.5723C22.1757 18.8633 21.874 19.0824 21.5509 19.2184C21.4976 19.241 21.4444 19.2599 21.3875 19.2788H12.6855C12.4548 19.2788 12.2275 19.207 12.0394 19.0673L5.99306 14.6017L4.92794 13.8159H1.13612C0.511256 13.8159 0 13.2756 0 12.6069C0 11.9382 0.507706 11.4017 1.13612 11.4017H5.28298C5.32914 11.4017 5.37884 11.4055 5.425 11.4131C5.60607 11.4357 5.78003 11.5075 5.9327 11.6171L7.37061 12.6787L13.0441 16.8647H23.8835Z" fill="black"/>
<path d="M42.0725 12.6026C42.0725 12.9427 41.9412 13.2487 41.7281 13.4678C41.5258 13.6794 41.2453 13.8078 40.9364 13.8078H37.141L35.9907 14.6541L35.1599 15.2661L30.026 19.0554C29.8343 19.1952 29.6107 19.267 29.3799 19.267H23.646L25.9147 16.8529H29.0248L34.5528 12.7726L32.0959 9.56514L33.7078 7.84616L36.4558 11.4352C36.5623 11.4012 36.6724 11.3861 36.7824 11.3861H40.9328C41.5577 11.3861 42.069 11.9264 42.069 12.5913L42.0725 12.6026Z" fill="black"/>
<path d="M34.2576 4.6921L32.6919 6.5282L31.1511 8.33407L29.4007 10.3893C29.3546 10.3515 29.312 10.3137 29.2693 10.2684C28.6693 9.62992 28.6693 8.59098 29.2693 7.94872L30.1427 7.01934L32.2091 4.82055C32.5038 4.50698 32.9014 4.33697 33.299 4.33697C33.5227 4.33697 33.7499 4.38986 33.9594 4.49565C34.0659 4.55232 34.1653 4.61654 34.2541 4.6921H34.2576Z" fill="#3D63AE"/>
<path d="M26.4219 13.8837L23.8798 16.8645L22.4206 18.5721C22.1721 18.863 21.8703 19.0822 21.5472 19.2182C21.4939 19.2408 21.4407 19.2597 21.3839 19.2786C21.3484 19.2899 21.3129 19.3013 21.2774 19.3126C21.2667 19.3013 21.2596 19.2899 21.249 19.2786C20.7519 18.6326 20.7839 17.6805 21.3519 17.0761L21.5507 16.8645L24.2952 13.9441C24.5899 13.6305 24.984 13.4605 25.3852 13.4605C25.6088 13.4605 25.8325 13.5134 26.0455 13.6192C26.184 13.691 26.3118 13.7817 26.4183 13.8799L26.4219 13.8837Z" fill="#3D63AE"/>
<path d="M37.0892 2.69708L35.3886 4.69185L33.8229 6.52795L32.282 8.33382L30.5317 10.389L27.5564 13.8799L25.0143 16.8607L23.5551 18.5684C23.3066 18.8593 23.0048 19.0784 22.6817 19.2144C22.6285 19.2371 22.5752 19.256 22.5184 19.2748C22.4829 19.2862 22.4474 19.2975 22.4119 19.3089C22.0036 19.4222 21.5705 19.4109 21.1622 19.2748C20.8675 19.1766 20.5835 19.0142 20.3314 18.7837L18.2367 16.8645L14.3951 13.3434C13.7596 12.7616 13.6886 11.7453 14.2354 11.0691C14.7821 10.3928 15.7372 10.3173 16.3727 10.8991L21.7835 15.8558L30.347 5.81013L31.8808 4.01182L34.8489 0.528521C35.4134 -0.128848 36.372 -0.181739 36.9898 0.418959C37.6111 1.01588 37.6573 2.03593 37.0963 2.69708H37.0892Z" fill="#7ADB78"/>
</svg>
