<svg width="309" height="73" viewBox="0 0 309 73" fill="none" xmlns="http://www.w3.org/2000/svg">
<path d="M162.733 8.175C162.033 8.675 161.033 9.075 160.233 9.875C153.333 16.775 146.533 23.675 139.733 30.675C137.933 32.475 136.133 34.375 134.233 36.175C132.433 37.875 131.633 37.875 129.933 36.175C127.533 33.775 125.133 31.375 122.533 28.775C125.333 28.975 126.333 26.775 127.733 25.375C135.833 17.375 143.733 9.275 151.833 1.275C153.533 -0.425 154.433 -0.425 156.033 1.275C158.333 3.675 160.633 6.075 162.633 8.275" fill="white"/>
<path d="M185.633 7.97461C184.433 8.77461 183.333 9.27461 182.533 10.0746C174.133 18.5746 165.833 27.0746 157.433 35.5746C156.933 36.0746 156.433 36.7746 155.833 36.9746C155.133 37.1746 153.933 37.3746 153.533 36.9746C150.733 34.3746 148.133 31.6746 145.233 28.6746C147.133 29.0746 148.033 27.8746 149.033 26.8746C157.533 18.3746 166.033 9.87461 174.533 1.37461C176.233 -0.325391 176.833 -0.325391 178.633 1.37461C180.933 3.67461 183.333 5.87461 185.533 7.97461" fill="white"/>
<path d="M167.733 28.9758C170.133 28.5758 171.233 26.4758 172.933 24.9758C175.333 22.7758 177.533 20.2758 179.833 17.9758C180.533 17.3758 181.433 16.6758 182.333 16.6758C193.233 16.6758 204.233 16.6758 215.333 16.6758C215.033 17.0758 214.933 17.3758 214.733 17.5758C212.633 19.7758 210.633 22.0758 208.433 24.1758C207.833 24.7758 206.833 25.1758 206.033 25.1758C201.033 25.1758 196.133 25.1758 191.133 25.1758C189.933 25.1758 189.133 25.5758 188.333 26.3758C185.233 29.5758 182.133 32.6758 179.033 35.7758C177.133 37.6758 176.333 37.6758 174.433 35.7758C172.133 33.5758 170.033 31.2758 167.733 28.8758" fill="white"/>
<path d="M93.0336 20.0754C95.5336 17.5754 98.0336 15.0754 100.634 12.6754C101.034 12.2754 101.934 12.1754 102.534 12.1754C107.534 12.1754 112.534 12.1754 117.534 12.1754C118.334 12.1754 119.234 11.6754 119.834 11.1754C123.234 7.97539 126.434 4.57539 129.734 1.27539C131.234 -0.224609 132.334 -0.224609 133.834 1.27539C136.134 3.47539 138.434 5.67539 140.734 7.87539C137.334 9.47539 135.634 12.2754 133.234 14.3754C131.534 15.8754 130.034 17.6754 128.434 19.0754C127.734 19.6754 126.634 20.3754 125.734 20.3754C114.834 20.3754 103.934 20.3754 93.1336 20.3754L92.9336 20.0754H93.0336Z" fill="white"/>
<path d="M74.7336 69.1757C75.5336 68.4757 76.0336 67.8757 76.7336 67.4757C76.9336 67.2757 77.4336 67.2757 77.6336 67.4757C82.7336 69.9757 87.9336 69.7757 93.2336 68.1757C95.1336 67.5757 95.2336 67.2757 94.8336 65.2757C93.0336 65.6757 91.2336 66.1757 89.4336 66.3757C84.8336 66.7757 80.3336 66.7757 76.1336 64.3757C74.8336 63.6757 74.1336 62.7757 74.3336 61.1757C74.5336 59.4757 74.4336 57.7757 74.3336 56.0757C74.2336 54.6757 74.9336 53.8757 75.9336 53.2757C78.0336 52.0757 80.3336 51.3757 82.7336 51.1757C86.8336 50.7757 90.9336 50.7757 94.8336 52.4757C94.9336 52.4757 95.0336 52.4757 95.1336 52.5757C97.1336 53.4757 98.3336 54.5757 98.1336 57.0757C97.8336 60.4757 98.0336 63.9757 98.1336 67.3757C98.1336 68.5757 97.7336 69.4757 96.7336 69.8757C94.5336 70.7757 92.4336 71.7757 90.1336 72.1757C85.8336 72.8757 81.4336 72.5757 77.3336 70.7757C76.5336 70.4757 75.7336 69.8757 74.7336 69.2757M95.0336 58.6757C95.0336 58.1757 95.0336 57.5757 95.0336 57.0757C95.2336 55.9757 94.7336 55.4757 93.7336 55.0757C88.7336 53.2757 83.6336 53.2757 78.6336 55.0757C77.7336 55.3757 77.4336 55.8757 77.5336 56.8757C77.5336 57.9757 77.6336 59.0757 77.5336 60.1757C77.4336 61.1757 77.8336 61.6757 78.7336 62.0757C83.0336 63.6757 87.4336 63.7757 91.8336 62.6757C95.0336 61.8757 95.0336 61.8757 95.0336 58.6757Z" fill="white"/>
<path d="M48.4337 60.075H28.0337C27.6337 61.275 28.0337 61.975 29.1337 62.375C34.8337 64.375 40.3337 64.175 45.9337 61.575C46.5337 62.175 47.1337 62.8751 47.8337 63.6751C46.2337 64.9751 44.3337 65.7751 42.2337 66.1751C37.4337 67.1751 32.7337 67.075 28.1337 65.375C27.9337 65.375 27.6337 65.175 27.4337 65.075C25.5337 64.175 24.3337 63.0751 24.6337 60.6751C24.8337 59.0751 24.7337 57.475 24.6337 55.875C24.6337 54.675 25.0337 53.775 26.0337 53.275C27.8337 52.475 29.6337 51.4751 31.6337 51.1751C36.3337 50.2751 40.9337 50.475 45.4337 52.375C45.7337 52.475 46.0337 52.675 46.3337 52.775C47.7337 53.575 48.6337 54.575 48.4337 56.375C48.2337 57.475 48.4337 58.675 48.4337 60.075ZM45.2337 56.975C45.5337 55.975 45.2337 55.475 44.3337 55.275C42.5337 54.775 40.6337 54.175 38.7337 53.975C35.3337 53.575 32.0337 53.975 28.8337 55.275C28.0337 55.675 27.6337 56.075 28.0337 56.975H45.1337H45.2337Z" fill="white"/>
<path d="M280.334 57.5742C280.834 56.1742 280.134 55.5742 279.034 55.0742C275.234 53.4742 266.834 53.2742 262.334 56.1742C262.134 55.8742 261.834 55.3742 261.534 54.9742C261.234 54.6742 260.934 54.2742 260.534 53.8742C262.234 52.3742 264.134 51.6742 266.234 51.2742C270.934 50.3742 275.534 50.3742 280.034 52.0742C280.234 52.0742 280.434 52.2742 280.634 52.2742C282.734 53.0742 284.034 54.2742 283.634 56.8742C283.434 58.4742 283.534 60.1742 283.634 61.7742C283.634 62.6742 283.334 63.2742 282.634 63.7742C280.534 65.2742 278.134 66.0742 275.634 66.2742C271.834 66.6742 267.934 66.7742 264.234 65.3742C263.534 65.0742 262.734 64.7742 262.034 64.3742C259.934 63.1742 259.534 62.4742 260.034 60.0742C260.034 59.5742 260.634 58.9742 261.134 58.6742C263.034 57.2742 265.334 56.5742 267.634 56.2742C271.834 55.6742 275.934 55.9742 279.934 57.2742C280.134 57.2742 280.334 57.2742 280.534 57.2742M263.034 61.5742C266.434 64.5742 278.334 64.1742 280.434 61.4742C277.034 58.4742 265.534 58.7742 263.034 61.5742Z" fill="white"/>
<path d="M0.433319 63.5754C1.23332 62.7754 1.93332 62.0754 2.63332 61.3754C7.73332 63.9754 13.0333 64.0754 18.4333 62.4754C20.5333 61.8754 20.5333 61.6754 20.6333 59.8754C20.6333 59.1754 20.4333 58.5754 19.7333 58.4754C17.6333 57.9754 15.5333 57.3754 13.4333 57.0754C10.8333 56.6754 8.13332 56.7754 5.63332 56.1754C3.93332 55.8754 2.43332 54.8754 0.933319 53.9754C0.533319 53.6754 0.333318 52.8754 0.133318 52.3754C0.133318 52.1754 0.133318 51.9754 0.133318 51.7754C-0.466682 49.1754 1.03332 47.8754 3.13332 47.0754C6.73332 45.6754 10.4333 45.1754 14.2333 45.6754C16.1333 45.8754 17.9333 46.2754 19.7333 46.7754C20.9333 47.1754 22.0333 47.8754 23.3333 48.4754C22.4333 49.3754 21.7333 49.9754 20.9333 50.6754C15.7333 48.0754 10.2333 47.9754 4.73332 49.7754C4.33332 49.8754 4.03332 50.0754 3.73332 50.2754C2.83332 50.7754 2.83332 51.9754 3.73332 52.2754C5.73332 52.8754 7.73332 53.4754 9.73332 53.7754C12.7333 54.2754 15.7333 54.4754 18.8333 54.8754C19.3333 54.8754 19.8333 55.1754 20.3333 55.3754C22.6333 56.2754 23.9333 57.5754 23.8333 60.4754C23.8333 62.8754 22.8333 64.1754 20.7333 64.9754C14.8333 67.3754 8.93332 67.1754 3.03332 64.9754C2.13332 64.6754 1.43332 64.0754 0.53332 63.5754" fill="white"/>
<path d="M139.933 53.6747H154.533V56.6747H139.933C139.933 58.2747 139.933 59.6747 139.933 61.1747C139.933 61.4747 140.633 61.8747 141.033 61.9747C145.533 63.4747 150.033 63.4747 154.533 61.9747C155.533 61.5747 156.433 61.2747 157.533 60.8747C157.933 61.7747 158.233 62.6747 158.633 63.6747C156.033 64.8747 153.533 65.8747 150.733 66.1747C147.333 66.4747 143.833 66.3747 140.533 65.2747C140.033 65.0747 139.533 64.9747 139.033 64.6747C137.633 63.9747 136.733 63.1747 136.733 61.3747C136.833 57.4747 136.733 53.5747 136.733 49.6747C136.733 48.4747 137.533 47.7747 138.433 47.4747C140.333 46.7747 142.233 46.0747 144.133 45.7747C149.133 44.9747 153.833 45.8747 158.433 48.1747C158.133 49.0747 157.733 49.9747 157.433 50.9747C155.933 50.4747 154.533 49.8747 153.033 49.4747C149.033 48.3747 144.933 48.4747 140.933 49.7747C140.033 50.0747 139.533 50.5747 139.733 51.5747C139.733 52.2747 139.733 53.0747 139.733 53.9747" fill="white"/>
<path d="M235.133 45.4746H238.233V51.7746C240.433 51.3746 242.533 50.9746 244.733 50.6746C247.833 50.2746 251.033 50.6746 254.033 51.4746C254.533 51.5746 254.933 51.7746 255.433 51.9746C257.833 52.8746 259.333 54.2746 258.833 57.0746C258.633 58.6746 258.833 60.3746 258.833 61.9746C258.833 62.9746 258.533 63.6746 257.633 64.2746C255.533 65.6746 253.233 66.3746 250.833 66.6746C247.033 67.0746 243.133 67.1746 239.433 65.8746C239.033 65.7746 238.733 65.6746 238.333 65.4746C236.133 64.5746 234.833 63.3746 235.033 60.5746C235.333 55.5746 235.033 50.5746 235.033 45.5746M238.233 58.7746C238.233 59.3746 238.233 59.9746 238.233 60.5746C238.033 61.8746 238.633 62.4746 239.833 62.8746C243.233 64.1746 246.833 64.1746 250.333 63.7746C251.833 63.5746 253.333 62.9746 254.733 62.5746C255.433 62.3746 255.733 61.9746 255.633 61.1746C255.633 59.8746 255.533 58.4746 255.633 57.1746C255.833 55.8746 255.133 55.2746 254.033 54.9746C249.233 53.3746 244.333 53.4746 239.533 54.9746C238.533 55.2746 238.033 55.8746 238.233 56.9746C238.233 57.5746 238.233 58.2746 238.233 58.8746" fill="white"/>
<path d="M161.433 63.5746C162.333 62.7746 163.033 62.0746 163.733 61.4746C169.633 64.2746 175.633 64.2746 181.533 61.7746C181.533 61.5746 181.533 61.3746 181.633 61.1746C181.033 60.8746 180.433 60.4746 179.833 60.3746C178.033 60.1746 176.233 59.9746 174.433 59.8746C171.433 59.7746 168.433 59.7746 165.433 59.5746C164.633 59.5746 163.733 59.1746 162.933 58.7746C162.033 58.3746 161.033 57.9746 160.933 56.6746C160.833 55.0746 161.133 53.9746 162.633 53.1746C166.533 51.0746 170.633 50.4746 174.933 50.9746C177.333 51.2746 179.733 51.9746 182.133 52.6746C182.833 52.8746 183.433 53.4746 184.333 53.9746C183.433 54.7746 182.733 55.3746 181.933 56.0746C178.033 53.8746 173.833 53.6746 169.433 54.1746C167.533 54.3746 165.733 54.7746 164.033 55.9746C165.433 56.9746 166.933 57.0746 168.433 57.0746C171.733 57.0746 174.933 57.0746 178.233 57.0746C180.133 57.0746 182.033 57.6746 183.633 58.8746C185.033 59.8746 185.133 62.6746 183.633 63.7746C181.733 65.2746 179.433 65.8746 177.133 66.2746C172.833 66.9746 168.633 66.6746 164.533 65.2746C163.433 64.8746 162.433 64.2746 161.233 63.5746" fill="white"/>
<path d="M234.034 58.7756C234.034 59.6756 234.034 60.5756 234.034 61.3756C234.234 62.6756 233.534 63.3756 232.634 63.9756C230.234 65.5756 227.534 66.1756 224.834 66.3756C220.834 66.7756 216.934 66.3756 213.134 64.7756C212.834 64.5756 212.434 64.4756 212.134 64.2756C210.934 63.5756 210.234 62.7756 210.334 61.1756C210.534 59.3756 210.334 57.4756 210.334 55.6756C210.334 54.7756 210.534 54.0756 211.334 53.6756C213.234 52.8756 215.234 51.7756 217.234 51.3756C221.834 50.4756 226.334 50.5756 230.734 52.3756C230.834 52.3756 230.934 52.3756 231.034 52.4756C232.934 53.3756 234.434 54.4756 233.934 56.9756C233.834 57.4756 233.934 58.0756 233.934 58.5756M213.334 58.7756C213.334 59.1756 213.334 59.5756 213.334 59.8756C213.034 61.2756 213.734 61.9756 215.034 62.2756C216.734 62.6756 218.434 63.1756 220.134 63.3756C223.534 63.7756 226.834 63.3756 229.934 61.9756C230.634 61.6756 230.934 61.2756 230.934 60.4756C230.934 59.3756 230.934 58.1756 230.934 57.0756C230.934 56.1756 230.634 55.6756 229.834 55.3756C225.534 53.5756 221.034 53.5756 216.534 54.6756C213.334 55.4756 213.334 55.5756 213.334 58.7756Z" fill="white"/>
<path d="M127.133 58.8747C127.133 59.7747 127.133 60.7747 127.133 61.6747C127.233 62.8747 126.733 63.5747 125.833 64.1747C123.433 65.7747 120.733 66.3747 117.933 66.5747C114.033 66.8747 110.133 66.5747 106.533 64.9747C106.133 64.7747 105.833 64.5747 105.433 64.3747C104.133 63.6747 103.333 62.7747 103.533 61.0747C103.733 59.3747 103.633 57.6747 103.533 56.0747C103.533 54.8747 104.033 54.1747 104.933 53.5747C107.133 52.1747 109.633 51.4747 112.233 51.1747C116.233 50.7747 120.233 50.8747 124.033 52.4747C126.833 53.6747 127.233 54.1747 127.233 57.1747V58.7747M124.033 58.7747C124.033 58.4747 124.033 58.0747 124.033 57.7747C124.333 56.2747 123.633 55.5747 122.233 55.1747C117.533 53.6747 112.833 53.6747 108.233 55.1747C107.033 55.5747 106.233 56.1747 106.533 57.6747C106.633 58.2747 106.533 58.9747 106.533 59.6747C106.533 61.7747 106.533 61.8747 108.533 62.4747C112.633 63.7747 116.733 63.8747 120.933 62.7747C124.033 61.9747 124.033 61.8747 124.033 58.6747" fill="white"/>
<path d="M206.933 61.4745C207.633 62.1745 208.333 62.8745 209.033 63.5745C207.333 65.0745 205.233 65.7745 203.033 66.1745C198.933 66.8745 194.833 66.8745 190.833 65.7745C190.233 65.5745 189.733 65.3745 189.233 65.1745C186.933 64.2745 185.433 62.8745 185.933 60.0745C186.133 58.4745 186.033 56.8745 185.933 55.2745C185.933 54.2745 186.333 53.6745 187.033 53.1745C189.033 51.6745 191.433 51.0745 193.833 50.6745C198.133 50.0745 202.333 50.3745 206.433 51.8745C207.433 52.2745 208.233 52.8745 209.333 53.3745C208.433 54.1745 207.733 54.7745 206.833 55.4745C203.333 53.4745 199.333 53.1745 195.333 53.5745C193.533 53.7745 191.733 54.4745 189.933 54.9745C189.533 55.0745 189.233 55.7745 189.133 56.1745C189.133 57.6745 189.033 59.0745 189.133 60.5745C189.133 61.0745 189.533 61.6745 189.933 61.8745C191.433 62.3745 192.933 62.9745 194.433 63.1745C198.733 63.6745 202.933 63.5745 206.933 61.2745" fill="white"/>
<path d="M308.334 56.275C307.034 56.275 305.934 56.275 304.634 55.575C301.334 53.775 297.634 53.675 294.034 54.075C292.234 54.275 290.534 54.975 288.734 55.475C288.034 55.675 287.934 56.075 287.934 56.775C287.934 59.375 287.934 62.075 287.934 64.675V65.975H284.934V64.675C284.934 61.675 284.934 58.775 284.934 55.775C284.934 54.675 285.334 53.975 286.234 53.375C288.434 51.875 290.834 51.175 293.434 50.975C297.534 50.575 301.634 50.575 305.534 52.375C306.334 52.675 307.034 53.175 307.734 53.575C308.734 54.175 309.034 55.075 308.634 56.175" fill="white"/>
<path d="M73.1332 56.375C71.8332 56.375 70.6332 56.375 69.3332 55.575C66.0332 53.775 62.4332 53.775 58.8332 54.175C57.0332 54.375 55.3332 54.975 53.6332 55.475C52.9332 55.675 52.6332 56.175 52.6332 56.975C52.6332 59.575 52.6332 62.075 52.6332 64.675V66.075H49.5332V64.875C49.5332 61.775 49.5332 58.775 49.5332 55.675C49.5332 54.775 49.8332 54.175 50.5332 53.675C52.8332 51.975 55.4332 51.275 58.1332 51.075C61.7332 50.775 65.3332 50.675 68.8332 51.975C69.9332 52.375 70.9332 52.975 71.9332 53.475C73.0332 54.075 73.5332 54.975 73.0332 56.275" fill="white"/>
<path d="M102.233 51.375H99.333V66.075H102.233V51.375Z" fill="white"/>
</svg>
