<svg width="61" height="60" viewBox="0 0 61 60" fill="none" xmlns="http://www.w3.org/2000/svg">
<path d="M30.5 5C44.3075 5 55.5 16.1925 55.5 30C55.5052 36.5637 52.9289 42.8661 48.3272 47.5466C43.7256 52.2271 37.4679 54.9101 30.9051 55.0165C24.3422 55.1228 18.0008 52.6439 13.25 48.115C8.49914 43.5861 5.71997 37.3704 5.5125 30.81L5.5 30L5.51 29.3C5.88 15.8175 16.925 5 30.5 5ZM30.525 37.5L30.2075 37.5175C29.5999 37.5898 29.0399 37.8824 28.6335 38.3399C28.2272 38.7974 28.0028 39.3881 28.0028 40C28.0028 40.6119 28.2272 41.2026 28.6335 41.6601C29.0399 42.1176 29.5999 42.4102 30.2075 42.4825L30.5 42.5L30.8175 42.4825C31.4251 42.4102 31.9851 42.1176 32.3915 41.6601C32.7978 41.2026 33.0222 40.6119 33.0222 40C33.0222 39.3881 32.7978 38.7974 32.3915 38.3399C31.9851 37.8824 31.4251 37.5898 30.8175 37.5175L30.525 37.5ZM30.5 17.5C29.8877 17.5001 29.2967 17.7249 28.8391 18.1318C28.3815 18.5387 28.0891 19.0994 28.0175 19.7075L28 20V30L28.0175 30.2925C28.0898 30.9001 28.3824 31.4601 28.8399 31.8665C29.2974 32.2728 29.8881 32.4972 30.5 32.4972C31.1119 32.4972 31.7026 32.2728 32.1601 31.8665C32.6176 31.4601 32.9102 30.9001 32.9825 30.2925L33 30V20L32.9825 19.7075C32.9109 19.0994 32.6185 18.5387 32.1609 18.1318C31.7033 17.7249 31.1123 17.5001 30.5 17.5Z" fill="#FF776F"/>
</svg>
