<svg width="294" height="47" viewBox="0 0 294 47" fill="none" xmlns="http://www.w3.org/2000/svg">
<g clip-path="url(#clip0_2580_4335)">
<path d="M17.1621 28.3682C18.2695 28.5102 19.0077 28.1642 19.6784 27.4902C24.412 22.7153 29.1587 17.9533 33.8949 13.181C35.2752 11.7891 35.9667 11.7994 37.36 13.1474C38.6675 14.4102 40.027 15.6188 41.2904 17.0262C39.7879 16.9875 39.1744 18.0644 38.392 18.8365C33.8403 23.3377 29.312 27.8595 24.7708 32.3709C23.3514 33.7809 22.6574 33.768 21.2355 32.3632C19.8838 31.0281 18.5216 29.7007 17.1621 28.3682Z" fill="white"/>
<path d="M29.8359 28.3967C30.9407 28.6188 31.601 28.1281 32.2326 27.4954C37.0261 22.6947 41.8221 17.9017 46.6207 13.1036C47.8477 11.877 48.7575 11.877 50.0104 13.1191C51.3595 14.4568 52.7009 15.7996 54.2631 17.3594C52.7373 16.9333 52.0328 17.7881 51.2634 18.5525C46.6207 23.1699 41.9651 27.7769 37.3146 32.3865C36.0513 33.639 35.222 33.6261 33.9405 32.371C32.5784 31.0411 31.2033 29.7215 29.8359 28.3967Z" fill="white"/>
<path d="M42.5992 28.276C43.4726 28.4232 44.1927 28.1908 44.8192 27.553C46.5686 25.7763 48.3259 24.0047 50.1325 22.2848C50.5224 21.9155 51.1281 21.5618 51.6376 21.5592C57.9101 21.5101 64.1826 21.5282 70.4551 21.5308C70.5669 21.5308 70.6787 21.5514 70.8996 21.5747C70.7151 21.8071 70.5955 21.9956 70.4421 22.1454C69.1242 23.4417 67.8219 24.7536 66.4624 26.0087C66.1556 26.2902 65.6513 26.4942 65.2328 26.5019C62.6125 26.5458 59.9897 26.5484 57.3694 26.5097C56.3946 26.4942 55.6434 26.7524 54.9493 27.4781C53.3298 29.1747 51.6272 30.7965 49.9557 32.4441C48.6404 33.7378 47.9125 33.7224 46.6102 32.4673C45.2221 31.1296 43.7976 29.8281 42.3887 28.511C42.4563 28.431 42.5264 28.3535 42.5992 28.276Z" fill="white"/>
<path d="M0.259766 23.9605C1.92863 22.331 3.48571 20.7841 5.08178 19.2786C5.27674 19.0952 5.67186 19.0668 5.9734 19.0642C8.73924 19.0487 11.5077 19.1004 14.2735 19.0178C14.9052 18.9997 15.6564 18.6795 16.1217 18.2482C17.9725 16.5361 19.7324 14.7258 21.526 12.9517C22.545 11.9419 23.46 11.9471 24.4868 12.9594C25.8827 14.3358 27.2787 15.7097 28.6928 17.2075C27.3462 16.9441 26.686 17.8608 25.9295 18.6072C24.3646 20.154 22.8388 21.7422 21.2089 23.2194C20.7124 23.6687 19.9351 24.0509 19.2827 24.0586C13.0726 24.1206 6.86242 24.0948 0.649686 24.0922C0.600296 24.0896 0.548307 24.0586 0.259766 23.9605Z" fill="white"/>
<path d="M130.247 32.6577C130.907 31.9682 131.409 31.444 131.856 30.9765C135.649 32.9495 139.459 32.9288 143.325 31.6841C144.554 31.289 144.57 31.147 144.367 29.8222C143.14 30.0675 141.924 30.4032 140.684 30.5375C138.123 30.8164 135.571 30.7622 133.088 29.9539C132.781 29.8532 132.482 29.7292 132.186 29.6079C130.702 29.0062 129.745 28.1307 130.034 26.3101C130.205 25.2255 130.125 24.0866 130.044 22.9814C129.987 22.1808 130.317 21.6437 130.972 21.3725C132.342 20.807 133.715 20.1433 135.155 19.8618C137.949 19.3169 140.767 19.4306 143.517 20.2853C143.824 20.3809 144.123 20.5074 144.419 20.6314C145.969 21.2821 146.915 22.186 146.748 24.1202C146.543 26.4728 146.657 28.8564 146.722 31.2245C146.746 32.0844 146.39 32.5776 145.727 33.0012C144.068 34.0599 142.21 34.4783 140.286 34.6152C137.632 34.8037 134.983 34.7417 132.449 33.7914C131.723 33.5151 131.058 33.0786 130.247 32.6577ZM138.396 28.3812C140.2 28.3915 141.976 28.2392 143.668 27.529C144.219 27.2992 144.518 27.0125 144.463 26.3592C144.396 25.5457 144.404 24.7193 144.461 23.9033C144.505 23.2706 144.266 22.9375 143.681 22.7309C140.078 21.4655 136.488 21.5094 132.901 22.7774C132.41 22.9504 132.152 23.2267 132.191 23.8077C132.248 24.6522 132.246 25.507 132.191 26.3514C132.155 26.9196 132.404 27.183 132.885 27.3999C134.643 28.1953 136.496 28.4096 138.396 28.3812Z" fill="white"/>
<path d="M97.5873 26.2175C97.2858 27.0645 97.6029 27.4157 98.2034 27.6739C100.717 28.7534 103.33 28.9497 105.984 28.4435C107.354 28.1827 108.682 27.7153 110.161 27.3021C110.488 27.6455 110.967 28.1491 111.481 28.6888C110.397 29.6882 109.064 30.1944 107.645 30.4965C104.66 31.1266 101.684 31.106 98.7311 30.3132C98.2788 30.1918 97.8394 30.0162 97.4079 29.8328C95.9262 29.2027 94.8916 28.3454 95.1958 26.4705C95.3752 25.3575 95.2894 24.1903 95.2088 23.054C95.149 22.1889 95.4895 21.6027 96.2304 21.3186C97.6705 20.766 99.1106 20.0713 100.613 19.857C103.259 19.4825 105.952 19.4799 108.565 20.2753C109.012 20.4122 109.443 20.6033 109.872 20.7892C111.248 21.3832 112.165 22.238 111.882 23.9243C111.762 24.6344 111.861 25.3808 111.861 26.22C107.075 26.2175 102.324 26.2175 97.5873 26.2175ZM109.482 23.9423C109.745 23.2916 109.334 23.0747 108.885 22.8603C106.54 21.7395 104.042 21.6905 101.546 21.9694C100.345 22.1037 99.1756 22.5685 98.0058 22.93C97.5301 23.0772 97.291 23.4233 97.5821 23.9423C101.567 23.9423 105.531 23.9423 109.482 23.9423Z" fill="white"/>
<path d="M274.532 24.4948C274.855 23.5858 274.457 23.1778 273.724 22.8757C271.008 21.7626 268.208 21.8014 265.401 22.3101C264.27 22.5141 263.194 23.0074 262.047 23.3844C261.655 22.9919 261.127 22.4651 260.581 21.9176C261.868 20.8846 263.381 20.2958 265.026 20.0247C267.964 19.5443 270.88 19.5573 273.75 20.4482C274.114 20.5618 274.467 20.7038 274.816 20.8588C276.207 21.4682 277.145 22.2998 276.877 24.0481C276.706 25.1637 276.797 26.3284 276.864 27.4672C276.906 28.1825 276.604 28.6215 276.069 28.9986C274.691 29.9696 273.139 30.4757 271.483 30.703C268.832 31.0645 266.196 31.0464 263.607 30.2898C262.991 30.109 262.388 29.8508 261.821 29.5486C260.274 28.7248 259.905 27.9992 260.225 26.2896C260.29 25.9487 260.633 25.5949 260.942 25.3729C263.071 23.8389 265.549 23.5574 268.075 23.5084C270.262 23.4696 272.416 23.6788 274.532 24.4948ZM274.545 27.1986C272.65 25.2618 264.61 25.1818 262.424 27.209C265.044 29.1096 272.224 29.1045 274.545 27.1986Z" fill="white"/>
<path d="M188.816 26.8565C189.081 27.1303 189.544 27.6132 190.131 28.2226C189.575 28.5842 189.102 28.969 188.569 29.222C185.816 30.5262 182.886 30.6062 179.923 30.3738C178.031 30.2266 176.2 29.847 174.542 28.8476C173.988 28.5145 173.741 28.1297 173.754 27.4402C173.801 24.6305 173.799 21.8208 173.757 19.0112C173.747 18.3242 173.999 17.9446 174.563 17.6192C177.186 16.0982 180.068 15.7935 182.993 15.9949C184.67 16.1111 186.338 16.5372 187.976 16.9556C188.709 17.1415 189.362 17.6502 190.183 18.0815C189.572 18.7142 189.096 19.21 188.621 19.7033C186.006 18.1719 183.196 18.0066 180.326 18.2958C179.283 18.3991 178.254 18.6574 177.222 18.8588C176.349 19.0292 175.883 19.4941 176.052 20.4444C176.107 20.7517 176.06 21.0771 176.06 21.4903C179.725 21.4903 183.331 21.4903 186.98 21.4903C186.98 22.2779 186.98 22.9674 186.98 23.7602C183.383 23.7602 179.777 23.7602 176.063 23.7602C176.063 24.8423 176.019 25.8287 176.094 26.8075C176.112 27.0399 176.494 27.3395 176.77 27.4402C179.177 28.2975 181.685 28.4163 184.176 28.078C185.686 27.8689 187.147 27.3085 188.816 26.8565Z" fill="white"/>
<path d="M94.1217 18.0387C93.9657 18.2918 93.9449 18.3486 93.9033 18.3899C93.5004 18.816 93.1573 19.4694 92.6737 19.5985C92.2396 19.7147 91.6548 19.2395 91.1271 19.051C87.766 17.8424 84.4022 17.8734 81.0541 19.0846C80.6122 19.2447 80.0065 19.3351 80.0325 20.0917C80.0559 20.8019 80.6356 20.82 81.0515 20.9904C83.0245 21.8013 85.1171 21.8116 87.2045 21.8607C89.44 21.9123 91.5742 22.3359 93.4666 23.6245C94.1165 24.0687 94.5272 24.5722 94.4076 25.427C94.3322 25.9719 94.327 26.5452 94.4076 27.0901C94.5636 28.167 94.0047 28.779 93.1494 29.2464C90.5266 30.6822 87.6828 31.0644 84.7714 30.7261C83.0947 30.5299 81.444 30.0444 79.8116 29.5847C79.2241 29.4194 78.7224 28.9572 78.1531 28.6137C78.751 28.0249 79.2423 27.5394 79.718 27.072C83.456 28.8952 87.3136 28.9081 91.2388 27.6763C91.7068 27.5291 92.1825 27.3845 92.1539 26.695C92.1227 25.9874 92.2448 25.2488 91.3116 25.019C90.0951 24.7194 88.8863 24.3372 87.649 24.1694C85.7618 23.9111 83.846 23.8543 81.9561 23.6038C81.1893 23.5005 80.4303 23.1726 79.7206 22.8343C77.758 21.9072 77.2485 20.8587 77.7736 18.767C77.8646 18.4028 78.2805 18.0697 78.621 17.827C80.1937 16.7062 82.0237 16.2336 83.9005 16.1045C86.5988 15.9211 89.3126 15.9521 91.8913 16.9593C92.6426 17.2433 93.3418 17.6539 94.1217 18.0387Z" fill="white"/>
<path d="M205.369 26.9289C204.262 26.2601 203.102 26.1232 201.93 26.1051C199.897 26.0715 197.864 26.1232 195.834 26.0612C194.36 26.0147 192.902 25.8056 191.62 24.9766C190.503 24.2535 190.347 22.3322 191.498 21.6659C192.72 20.9609 194.072 20.3205 195.444 20.0597C198.681 19.4476 201.94 19.4941 205.088 20.6485C205.839 20.9248 206.521 21.3793 207.313 21.7951C206.648 22.4226 206.123 22.921 205.605 23.4091C201.545 21.3147 197.422 21.4439 193.279 23.0682C193.261 23.2154 193.242 23.3626 193.224 23.5098C194.053 23.6673 194.88 23.9281 195.715 23.9643C198.244 24.0702 200.783 23.9824 203.302 24.189C204.457 24.2819 205.644 24.7442 206.682 25.2917C207.974 25.9734 207.89 28.1452 206.666 28.9587C204.927 30.113 202.962 30.5856 200.921 30.7638C198.215 31.0014 195.572 30.6553 193.034 29.6792C192.366 29.4235 191.769 28.9923 191.233 28.6953C191.763 28.0368 192.218 27.4738 192.645 26.9444C196.572 28.938 203.666 28.9484 205.369 26.9289Z" fill="white"/>
<path d="M242.735 16.0762C243.546 16.0762 244.217 16.0762 244.999 16.0762C244.999 17.5327 244.999 18.9711 244.999 20.4301C246.273 20.1564 247.427 19.7923 248.607 19.6735C251.277 19.4075 253.949 19.3946 256.53 20.301C256.998 20.4637 257.44 20.709 257.885 20.9337C258.961 21.476 259.577 22.2146 259.439 23.5549C259.296 24.9442 259.377 26.3594 259.421 27.7616C259.442 28.3943 259.208 28.7868 258.704 29.1406C257.3 30.1271 255.732 30.6591 254.048 30.8838C251.43 31.2298 248.828 31.1936 246.265 30.4809C245.841 30.3621 245.428 30.2072 245.02 30.0445C243.452 29.4195 242.561 28.5157 242.683 26.5814C242.883 23.4361 242.738 20.27 242.738 17.1143C242.735 16.7941 242.735 16.479 242.735 16.0762ZM251.287 28.7817C252.935 28.7636 254.768 28.6086 256.489 27.8133C256.983 27.586 257.274 27.3303 257.227 26.708C257.157 25.7499 257.175 24.7815 257.222 23.8183C257.248 23.2656 257.032 22.979 256.554 22.744C255.041 21.9977 253.414 21.8014 251.771 21.773C249.746 21.7394 247.721 21.773 245.821 22.651C245.249 22.9144 244.965 23.2398 245.01 23.9086C245.072 24.8383 245.059 25.7783 245.012 26.7106C244.984 27.258 245.176 27.5524 245.667 27.7849C247.385 28.6009 249.218 28.7507 251.287 28.7817Z" fill="white"/>
<path d="M242.008 25.2805C242.008 25.9235 241.943 26.5743 242.023 27.207C242.143 28.1444 241.664 28.6712 240.944 29.118C239.252 30.169 237.365 30.5745 235.423 30.7578C232.907 30.9954 230.432 30.7397 228.041 29.885C227.656 29.7481 227.297 29.5415 226.923 29.3711C225.774 28.8494 225.158 28.0928 225.335 26.7138C225.483 25.5646 225.418 24.3767 225.348 23.212C225.301 22.4192 225.654 21.975 226.273 21.5799C228.217 20.3404 230.401 19.9504 232.639 19.798C234.734 19.656 236.801 19.891 238.821 20.4876C238.99 20.5366 239.151 20.6063 239.315 20.6683C241.644 21.5877 242.01 22.1196 242.01 24.5807C242.008 24.8131 242.008 25.0455 242.008 25.2805ZM233.741 28.5473C235.486 28.586 237.308 28.3691 239.049 27.6408C239.536 27.4368 239.793 27.1708 239.759 26.5976C239.71 25.7531 239.71 24.9009 239.759 24.0565C239.793 23.4909 239.58 23.1474 239.057 23.0261C237.666 22.7033 236.281 22.2849 234.869 22.1351C232.694 21.9053 230.536 22.1326 228.467 22.9357C227.882 23.1629 227.578 23.4857 227.638 24.1675C227.705 24.95 227.695 25.7479 227.64 26.533C227.599 27.1295 227.83 27.4343 228.36 27.6615C230.045 28.3743 231.812 28.5679 233.741 28.5473Z" fill="white"/>
<path d="M167.036 25.3725C167.036 26.0439 166.979 26.7231 167.051 27.3868C167.132 28.1408 166.786 28.5876 166.209 28.975C164.447 30.1603 162.442 30.5864 160.378 30.7672C157.953 30.9789 155.562 30.7439 153.248 29.9408C152.973 29.8452 152.702 29.7264 152.437 29.6051C151.059 28.9801 150.116 28.1357 150.386 26.4029C150.542 25.4035 150.469 24.3576 150.397 23.3401C150.337 22.4879 150.688 21.8578 151.395 21.566C152.845 20.9669 154.311 20.311 155.837 20.0166C158.457 19.5104 161.101 19.6886 163.682 20.4504C163.989 20.5408 164.291 20.6647 164.59 20.7835C166.238 21.4369 167.475 22.3562 167.046 24.4092C166.981 24.7166 167.036 25.0497 167.036 25.3725ZM158.746 28.7787C160.433 28.443 162.125 28.1305 163.805 27.7612C164.574 27.5934 164.99 27.1414 164.873 26.2557C164.779 25.5662 164.8 24.8508 164.87 24.1562C164.935 23.4977 164.636 23.1258 164.075 22.9941C162.684 22.6635 161.291 22.2736 159.874 22.129C157.727 21.9095 155.595 22.1445 153.552 22.9218C152.954 23.149 152.588 23.4641 152.676 24.2052C152.765 24.9541 152.746 25.7263 152.681 26.4829C152.622 27.1647 152.928 27.4668 153.518 27.7018C155.187 28.3707 158.73 28.7012 158.746 28.7787Z" fill="white"/>
<path d="M223.073 27.0684C223.538 27.5564 224.038 28.0807 224.724 28.8038C223.593 29.3332 222.639 29.9349 221.599 30.2344C218.308 31.1847 214.978 31.1796 211.664 30.2861C211.269 30.1802 210.884 30.0227 210.507 29.86C208.974 29.204 207.877 28.3286 208.199 26.3737C208.384 25.2633 208.285 24.0934 208.215 22.9546C208.168 22.2341 208.475 21.8286 209.018 21.4439C210.572 20.3412 212.343 19.7937 214.199 19.6336C216.99 19.3934 219.79 19.4192 222.454 20.478C223.177 20.7647 223.84 21.2037 224.656 21.6401C224.051 22.2909 223.564 22.8125 223.068 23.3471C220.903 21.7589 218.42 21.746 215.951 21.7718C214.331 21.7899 212.73 21.9913 211.235 22.7118C210.728 22.9572 210.468 23.2335 210.507 23.8403C210.567 24.7726 210.474 25.7178 210.552 26.6474C210.578 26.9728 210.85 27.4661 211.118 27.5513C212.423 27.9722 213.746 28.45 215.095 28.592C217.851 28.8838 220.549 28.5481 223.073 27.0684Z" fill="white"/>
<path d="M114.879 30.4309C114.086 30.4309 113.392 30.4309 112.576 30.4309C112.576 29.9041 112.576 29.3876 112.576 28.8737C112.576 26.9704 112.61 25.0672 112.558 23.1665C112.537 22.4564 112.81 22.0303 113.361 21.6455C114.64 20.752 116.067 20.2536 117.593 20.0186C120.473 19.577 123.346 19.6002 126.145 20.4731C126.972 20.7313 127.733 21.2091 128.5 21.6326C129.288 22.069 129.582 22.743 129.267 23.714C128.389 23.6624 127.583 23.7863 126.629 23.2414C125.459 22.5726 123.982 22.3195 122.605 22.1517C120.346 21.8753 118.084 22.0174 115.914 22.8334C115.194 23.1046 114.814 23.4739 114.853 24.3596C114.941 26.3455 114.879 28.3365 114.879 30.4309Z" fill="white"/>
<path d="M279.856 30.4348C279.078 30.4348 278.439 30.4348 277.698 30.4348C277.698 29.4715 277.698 28.5444 277.698 27.6173C277.698 26.1557 277.763 24.6889 277.675 23.2298C277.62 22.3182 278.036 21.8172 278.727 21.3886C280.448 20.3169 282.375 19.9527 284.35 19.8107C286.619 19.648 288.886 19.741 291.065 20.4641C291.86 20.7275 292.601 21.1716 293.344 21.5719C294.184 22.0238 294.431 22.7366 294.132 23.6895C293.277 23.7076 292.536 23.7463 291.636 23.2582C290.425 22.5971 288.933 22.3208 287.529 22.1555C285.211 21.8792 282.892 22.0187 280.682 22.9251C280.066 23.1782 279.814 23.5397 279.835 24.2473C279.892 26.2848 279.856 28.3275 279.856 30.4348Z" fill="white"/>
<path d="M147.463 19.9648C148.214 19.9648 148.885 19.9648 149.633 19.9648C149.633 23.4279 149.633 26.8831 149.633 30.4056C148.952 30.4056 148.238 30.4056 147.463 30.4056C147.463 26.9606 147.463 23.5053 147.463 19.9648Z" fill="white"/>
</g>
<defs>
<clipPath id="clip0_2580_4335">
<rect width="294" height="47" fill="white"/>
</clipPath>
</defs>
</svg>
