<svg width="84" height="61" viewBox="0 0 84 61" fill="none" xmlns="http://www.w3.org/2000/svg">
<path d="M68.4055 8.80446L65.2791 12.2499L62.2023 15.6386L58.7073 19.4952C58.6151 19.4243 58.53 19.3534 58.445 19.2684C57.2469 18.0703 57.2469 16.1207 58.445 14.9155L60.1889 13.1715L64.315 9.0455C64.9034 8.45708 65.6974 8.13806 66.4914 8.13806C66.938 8.13806 67.3917 8.23731 67.81 8.43581C68.0227 8.54216 68.2212 8.66267 68.3984 8.80446H68.4055Z" fill="#3D63AE"/>
<path d="M68.4055 8.80446L65.2791 12.2499L62.2023 15.6386L58.7073 19.4952C58.6151 19.4243 58.53 19.3534 58.445 19.2684C57.2469 18.0703 57.2469 16.1207 58.445 14.9155L60.1889 13.1715L64.315 9.0455C64.9034 8.45708 65.6974 8.13806 66.4914 8.13806C66.938 8.13806 67.3917 8.23731 67.81 8.43581C68.0227 8.54216 68.2212 8.66267 68.3984 8.80446H68.4055Z" fill="#3D63AE"/>
<path d="M56.9423 50.5583C56.9706 51.8415 55.9498 52.8836 54.6737 52.8836H22.1831L24.9125 48.3535H54.5744C55.8151 48.3535 56.9068 49.3177 56.9423 50.5583Z" fill="black"/>
<path d="M63.4061 9.95112L61.7614 7.93774C61.6409 7.79595 61.5203 7.65417 61.3927 7.51947C60.0174 6.05906 58.1104 5.23669 56.0899 5.23669H26.7754C24.5068 5.23669 22.3304 6.31428 20.9479 8.12206L10.8314 21.4004L7.39307 25.9093H9.8389L11.9657 27.3839L14.7093 23.7754L24.5493 10.8656C25.0739 10.178 25.9105 9.7668 26.7754 9.7668H56.0828C56.9264 9.7668 57.7134 10.1425 58.2521 10.7948L58.3301 10.8869L60.1875 13.1626L62.2009 15.6368L65.2777 12.2481L63.4061 9.95112Z" fill="black"/>
<path d="M81.3993 34.6374V52.6089C81.3993 54.5301 80.662 56.3379 79.3221 57.7132L78.5778 58.4789C77.2095 59.8897 75.2954 60.6979 73.3316 60.6979H70.5951C68.1706 60.6979 65.9091 59.5068 64.5479 57.5076L55.9698 44.9453C55.4523 44.1796 54.5874 43.7259 53.6586 43.7259H29.2854C28.3142 43.7259 27.3996 44.2435 26.8963 45.0729L24.9184 48.3553L22.189 52.8854L19.6084 57.1603C18.2898 59.3438 15.8865 60.6979 13.3343 60.6979H9.93855C7.98188 60.6979 6.14574 59.9393 4.75622 58.5569C3.3738 57.1745 2.61523 55.3312 2.61523 53.3745V34.6799C2.61523 33.0848 3.14694 31.511 4.11109 30.242L7.40055 25.9175H9.84638L11.9732 27.392L7.71249 32.9855C7.34384 33.4676 7.13825 34.0702 7.13825 34.6799V53.3745C7.13825 54.1189 7.42891 54.8208 7.96061 55.3525C8.48523 55.8771 9.18707 56.1749 9.93855 56.1749H13.3343C14.3056 56.1749 15.2272 55.6573 15.7235 54.8208L19.02 49.3549L23.0113 42.7405C24.33 40.557 26.7332 39.1958 29.2854 39.1958H53.6657C56.0903 39.1958 58.3518 40.3939 59.713 42.3931L68.2911 54.9555C68.8086 55.7211 69.6735 56.1749 70.6022 56.1749H73.3387C74.0831 56.1749 74.8204 55.8629 75.3379 55.3312L76.0823 54.5656C76.5927 54.0409 76.8692 53.3462 76.8692 52.616V34.6445C76.8692 34.0064 76.6424 33.3755 76.2383 32.8792L70.6022 27.392L73.9683 24.5984L79.7475 30.0222C80.8109 31.3195 81.3922 32.9643 81.3922 34.6515L81.3993 34.6374Z" fill="black"/>
<path d="M47.6902 31.6466L44.7764 34.851C44.2802 35.3969 43.6776 35.8081 43.0324 36.0633C42.9261 36.1058 42.8198 36.1413 42.7063 36.1767H25.3303C24.8695 36.1767 24.4158 36.042 24.04 35.7797L11.9668 27.4001L9.84004 25.9255H2.2686C1.02087 25.9255 0 24.9117 0 23.6569C0 22.4021 1.01378 21.3954 2.2686 21.3954H10.549C10.6411 21.3954 10.7404 21.4025 10.8325 21.4167C11.1941 21.4592 11.5415 21.5939 11.8463 21.7995L14.7175 23.7916L26.0463 31.6466H47.6902Z" fill="black"/>
<path d="M84.0091 23.6488C84.0091 24.2868 83.7468 24.8611 83.3215 25.2722C82.9174 25.6692 82.3573 25.9103 81.7405 25.9103H74.162L71.8651 27.4983L70.2061 28.6468L59.9549 35.7574C59.5721 36.0197 59.1255 36.1544 58.6647 36.1544H47.2153L51.7454 31.6243H57.9557L68.9939 23.9678L64.088 17.9489L67.3066 14.7233L72.7938 21.4582C73.0064 21.3944 73.2262 21.366 73.446 21.366H81.7334C82.9812 21.366 84.002 22.3798 84.002 23.6275L84.0091 23.6488Z" fill="black"/>
<path d="M68.4055 8.80483L65.2791 12.2503L62.2023 15.639L58.7073 19.4956C58.6151 19.4247 58.53 19.3538 58.445 19.2687C57.2469 18.0706 57.2469 16.1211 58.445 14.9159L60.1889 13.1719L64.315 9.04587C64.9034 8.45745 65.6974 8.13843 66.4914 8.13843C66.938 8.13843 67.3917 8.23768 67.81 8.43618C68.0227 8.54252 68.2212 8.66304 68.3984 8.80483H68.4055Z" fill="#3D63AE"/>
<path d="M52.7586 26.0527L47.6826 31.6462L44.7689 34.8506C44.2726 35.3965 43.67 35.8076 43.0249 36.0629C42.9186 36.1054 42.8122 36.1408 42.6988 36.1763C42.6279 36.1976 42.557 36.2188 42.4861 36.2401C42.4649 36.2188 42.4507 36.1976 42.4294 36.1763C41.4369 34.964 41.5007 33.1775 42.635 32.0432L43.032 31.6462L48.5121 26.1661C49.1005 25.5777 49.8874 25.2587 50.6885 25.2587C51.1351 25.2587 51.5818 25.3579 52.0071 25.5564C52.2836 25.6911 52.5388 25.8613 52.7515 26.0456L52.7586 26.0527Z" fill="#3D63AE"/>
<path d="M74.0589 5.06106L70.6631 8.80425L67.5366 12.2497L64.4599 15.6384L60.9648 19.495L55.0239 26.0456L49.9479 31.6391L47.0342 34.8435C46.5379 35.3894 45.9354 35.8005 45.2902 36.0558C45.1839 36.0983 45.0775 36.1337 44.9641 36.1692C44.8932 36.1905 44.8223 36.2117 44.7514 36.233C43.9362 36.4457 43.0712 36.4244 42.256 36.1692C41.6676 35.9849 41.1004 35.68 40.5971 35.2476L36.4143 31.6462L28.7436 25.0389C27.4746 23.9471 27.3329 22.0401 28.4246 20.7711C29.5164 19.5021 31.4234 19.3603 32.6924 20.4521L43.4966 29.7533L60.5962 10.9027L63.6588 7.52816L69.5855 0.991767C70.7127 -0.241782 72.6268 -0.341033 73.8604 0.786176C75.101 1.90629 75.1932 3.82042 74.073 5.06106H74.0589Z" fill="#25D366"/>
</svg>
