<svg width="84" height="62" viewBox="0 0 84 62" fill="none" xmlns="http://www.w3.org/2000/svg">
<path d="M68.4055 9.50234L65.2791 12.9478L62.2023 16.3365L58.7073 20.1931C58.6151 20.1222 58.53 20.0513 58.445 19.9662C57.2469 18.7681 57.2469 16.8186 58.445 15.6134L60.1889 13.8694L64.315 9.74338C64.9034 9.15496 65.6974 8.83594 66.4914 8.83594C66.938 8.83594 67.3917 8.93519 67.81 9.13369C68.0227 9.24003 68.2212 9.36055 68.3984 9.50234H68.4055Z" fill="#3D63AE"/>
<path d="M68.4055 9.50234L65.2791 12.9478L62.2023 16.3365L58.7073 20.1931C58.6151 20.1222 58.53 20.0513 58.445 19.9662C57.2469 18.7681 57.2469 16.8186 58.445 15.6134L60.1889 13.8694L64.315 9.74338C64.9034 9.15496 65.6974 8.83594 66.4914 8.83594C66.938 8.83594 67.3917 8.93519 67.81 9.13369C68.0227 9.24003 68.2212 9.36055 68.3984 9.50234H68.4055Z" fill="#3D63AE"/>
<path d="M56.9423 51.2562C56.9706 52.5394 55.9498 53.5815 54.6737 53.5815H22.1831L24.9125 49.0514H54.5744C55.8151 49.0514 56.9068 50.0155 56.9423 51.2562Z" fill="white"/>
<path d="M63.4061 10.649L61.7614 8.63562C61.6409 8.49383 61.5203 8.35204 61.3927 8.21734C60.0174 6.75694 58.1104 5.93457 56.0899 5.93457H26.7754C24.5068 5.93457 22.3304 7.01215 20.9479 8.81994L10.8314 22.0983L7.39307 26.6072H9.8389L11.9657 28.0817L14.7093 24.4733L24.5493 11.5635C25.0739 10.8759 25.9105 10.4647 26.7754 10.4647H56.0828C56.9264 10.4647 57.7134 10.8404 58.2521 11.4926L58.3301 11.5848L60.1875 13.8605L62.2009 16.3347L65.2777 12.9459L63.4061 10.649Z" fill="white"/>
<path d="M81.3993 35.3351V53.3067C81.3993 55.2279 80.662 57.0357 79.3221 58.411L78.5778 59.1766C77.2095 60.5874 75.2954 61.3956 73.3316 61.3956H70.5951C68.1706 61.3956 65.9091 60.2046 64.5479 58.2054L55.9698 45.6431C55.4523 44.8774 54.5874 44.4237 53.6586 44.4237H29.2854C28.3142 44.4237 27.3996 44.9412 26.8963 45.7707L24.9184 49.053L22.189 53.5831L19.6084 57.858C18.2898 60.0415 15.8865 61.3956 13.3343 61.3956H9.93855C7.98188 61.3956 6.14574 60.6371 4.75622 59.2546C3.3738 57.8722 2.61523 56.029 2.61523 54.0723V35.3777C2.61523 33.7826 3.14694 32.2087 4.11109 30.9397L7.40055 26.6152H9.84638L11.9732 28.0898L7.71249 33.6833C7.34384 34.1654 7.13825 34.768 7.13825 35.3777V54.0723C7.13825 54.8167 7.42891 55.5185 7.96061 56.0502C8.48523 56.5748 9.18707 56.8726 9.93855 56.8726H13.3343C14.3056 56.8726 15.2272 56.3551 15.7235 55.5185L19.02 50.0526L23.0113 43.4383C24.33 41.2547 26.7332 39.8936 29.2854 39.8936H53.6657C56.0903 39.8936 58.3518 41.0917 59.713 43.0909L68.2911 55.6532C68.8086 56.4189 69.6735 56.8726 70.6022 56.8726H73.3387C74.0831 56.8726 74.8204 56.5607 75.3379 56.029L76.0823 55.2633C76.5927 54.7387 76.8692 54.0439 76.8692 53.3137V35.3422C76.8692 34.7042 76.6424 34.0732 76.2383 33.577L70.6022 28.0898L73.9683 25.2961L79.7475 30.7199C80.8109 32.0173 81.3922 33.662 81.3922 35.3493L81.3993 35.3351Z" fill="white"/>
<path d="M47.6902 32.3445L44.7764 35.5489C44.2802 36.0948 43.6776 36.5059 43.0324 36.7612C42.9261 36.8037 42.8198 36.8391 42.7063 36.8746H25.3303C24.8695 36.8746 24.4158 36.7399 24.04 36.4776L11.9668 28.098L9.84004 26.6234H2.2686C1.02087 26.6234 0 25.6096 0 24.3548C0 23.1 1.01378 22.0933 2.2686 22.0933H10.549C10.6411 22.0933 10.7404 22.1004 10.8325 22.1145C11.1941 22.1571 11.5415 22.2918 11.8463 22.4974L14.7175 24.4895L26.0463 32.3445H47.6902Z" fill="white"/>
<path d="M84.0091 24.3467C84.0091 24.9847 83.7468 25.5589 83.3215 25.9701C82.9174 26.3671 82.3573 26.6082 81.7405 26.6082H74.162L71.8651 28.1962L70.2061 29.3447L59.9549 36.4553C59.5721 36.7176 59.1255 36.8523 58.6647 36.8523H47.2153L51.7454 32.3222H57.9557L68.9939 24.6657L64.088 18.6468L67.3066 15.4211L72.7938 22.156C73.0064 22.0922 73.2262 22.0639 73.446 22.0639H81.7334C82.9812 22.0639 84.002 23.0777 84.002 24.3254L84.0091 24.3467Z" fill="white"/>
<path d="M68.4055 9.5027L65.2791 12.9481L62.2023 16.3369L58.7073 20.1935C58.6151 20.1226 58.53 20.0517 58.445 19.9666C57.2469 18.7685 57.2469 16.8189 58.445 15.6137L60.1889 13.8698L64.315 9.74374C64.9034 9.15532 65.6974 8.8363 66.4914 8.8363C66.938 8.8363 67.3917 8.93555 67.81 9.13406C68.0227 9.2404 68.2212 9.36092 68.3984 9.5027H68.4055Z" fill="#3D63AE"/>
<path d="M52.7586 26.7506L47.6826 32.3441L44.7689 35.5485C44.2726 36.0943 43.67 36.5055 43.0249 36.7607C42.9186 36.8033 42.8122 36.8387 42.6988 36.8742C42.6279 36.8954 42.557 36.9167 42.4861 36.938C42.4649 36.9167 42.4507 36.8954 42.4294 36.8742C41.4369 35.6619 41.5007 33.8754 42.635 32.7411L43.032 32.3441L48.5121 26.864C49.1005 26.2756 49.8874 25.9565 50.6885 25.9565C51.1351 25.9565 51.5818 26.0558 52.0071 26.2543C52.2836 26.389 52.5388 26.5591 52.7515 26.7435L52.7586 26.7506Z" fill="#3D63AE"/>
<path d="M74.0589 5.75894L70.6631 9.50212L67.5366 12.9476L64.4599 16.3363L60.9648 20.1929L55.0239 26.7434L49.9479 32.337L47.0342 35.5413C46.5379 36.0872 45.9354 36.4984 45.2902 36.7536C45.1839 36.7962 45.0775 36.8316 44.9641 36.8671C44.8932 36.8883 44.8223 36.9096 44.7514 36.9309C43.9362 37.1435 43.0712 37.1223 42.256 36.8671C41.6676 36.6827 41.1004 36.3779 40.5971 35.9454L36.4143 32.344L28.7436 25.7368C27.4746 24.645 27.3329 22.738 28.4246 21.469C29.5164 20.2 31.4234 20.0582 32.6924 21.1499L43.4966 30.4512L60.5962 11.6006L63.6588 8.22603L69.5855 1.68964C70.7127 0.456094 72.6268 0.356843 73.8604 1.48405C75.101 2.60417 75.1932 4.5183 74.073 5.75894H74.0589Z" fill="#25D366"/>
</svg>
