<svg
      width="337"
      height="89"
      viewBox="0 0 337 89"
      fill="none"
      xmlns="http://www.w3.org/2000/svg"
     
    >
      <path
        d="M68.406 8.804l-3.127 3.446-3.077 3.389-3.495 3.856a2.61 2.61 0 01-.262-.227 3.085 3.085 0 010-4.353l1.744-1.743 4.126-4.127a3.095 3.095 0 012.176-.907c.447 0 .9.1 1.319.298.213.106.411.227.588.368h.008z"
        fill="#3D63AE"
      />
      <path
        d="M68.406 8.804l-3.127 3.446-3.077 3.389-3.495 3.856a2.61 2.61 0 01-.262-.227 3.085 3.085 0 010-4.353l1.744-1.743 4.126-4.127a3.095 3.095 0 012.176-.907c.447 0 .9.1 1.319.298.213.106.411.227.588.368h.008z"
        fill="#3D63AE"
      />
      <path
        d="M56.942 50.558a2.266 2.266 0 01-2.268 2.326h-32.49l2.729-4.53h29.661c1.241 0 2.333.964 2.368 2.204zM63.406 9.951l-1.645-2.013a10.35 10.35 0 00-.368-.419 7.258 7.258 0 00-5.303-2.282H26.775a7.379 7.379 0 00-5.827 2.885L10.83 21.4l-3.438 4.51H9.84l2.127 1.474 2.743-3.609 9.84-12.91a2.821 2.821 0 012.226-1.098h29.308c.843 0 1.63.376 2.17 1.028l.077.092 1.858 2.276 2.013 2.474 3.077-3.389-1.872-2.297z"
        fill="#000"
      />
      <path
        d="M81.4 34.637V52.61a7.268 7.268 0 01-2.078 5.104l-.744.766a7.35 7.35 0 01-5.246 2.219h-2.737a7.306 7.306 0 01-6.047-3.19L55.97 44.945a2.782 2.782 0 00-2.311-1.22H29.285c-.97 0-1.885.518-2.389 1.348l-1.978 3.282-2.729 4.53-2.58 4.275a7.366 7.366 0 01-6.275 3.538H9.94a7.294 7.294 0 01-5.183-2.141 7.282 7.282 0 01-2.14-5.183V34.68c0-1.595.53-3.169 1.495-4.438l3.29-4.325h2.445l2.127 1.475-4.26 5.594a2.808 2.808 0 00-.575 1.694v18.694c0 .745.29 1.447.823 1.978a2.784 2.784 0 001.978.823h3.395c.972 0 1.893-.518 2.39-1.354l3.296-5.466 3.991-6.614a7.373 7.373 0 016.274-3.545h24.38a7.313 7.313 0 016.048 3.197l8.578 12.563a2.782 2.782 0 002.311 1.219h2.737c.744 0 1.481-.312 1.999-.844l.744-.765c.51-.525.787-1.22.787-1.95V34.645c0-.639-.227-1.27-.63-1.766l-5.637-5.487 3.366-2.794 5.78 5.424a7.316 7.316 0 011.644 4.63l.007-.015z"
        fill="#000"
      />
      <path
        d="M47.69 31.647l-2.914 3.204a4.704 4.704 0 01-1.744 1.212 4.382 4.382 0 01-.326.114H25.33c-.46 0-.914-.135-1.29-.397L11.967 27.4 9.84 25.926H2.269A2.27 2.27 0 010 23.655a2.26 2.26 0 012.269-2.26h8.28c.092 0 .191.006.284.02a2.3 2.3 0 011.013.383l2.871 1.993 11.33 7.855H47.69zM84.01 23.649c0 .638-.263 1.212-.689 1.623a2.247 2.247 0 01-1.58.638h-7.579l-2.297 1.588-1.659 1.149-10.251 7.11c-.383.263-.83.397-1.29.397h-11.45l4.53-4.53h6.21l11.039-7.656-4.906-6.02 3.219-3.225 5.487 6.735c.212-.064.432-.092.652-.092h8.287a2.27 2.27 0 012.269 2.262l.007.02z"
        fill="#000"
      />
      <path
        d="M68.406 8.805l-3.127 3.445-3.077 3.389-3.495 3.857a2.598 2.598 0 01-.262-.227 3.085 3.085 0 010-4.353l1.744-1.744 4.126-4.126a3.095 3.095 0 012.176-.908c.447 0 .9.1 1.319.298.213.107.411.227.588.369h.008zM52.759 26.053l-5.076 5.593-2.914 3.205a4.707 4.707 0 01-1.744 1.212 4.444 4.444 0 01-.326.113l-.213.064c-.021-.021-.035-.042-.057-.064a3.081 3.081 0 01.206-4.133l.397-.397 5.48-5.48a3.083 3.083 0 012.176-.907c.447 0 .894.099 1.32.297.276.135.53.305.743.49l.008.007z"
        fill="#3D63AE"
      />
      <path
        d="M74.059 5.061l-3.396 3.743-3.126 3.446-3.077 3.388-3.495 3.857-5.941 6.55-5.076 5.594-2.914 3.204a4.706 4.706 0 01-1.744 1.213 4.444 4.444 0 01-.326.113l-.213.064a4.528 4.528 0 01-2.495-.064 4.696 4.696 0 01-1.659-.921l-4.183-3.602-7.67-6.607a3.023 3.023 0 01-.32-4.268 3.023 3.023 0 014.268-.319l10.805 9.301 17.1-18.85 3.062-3.375L69.585.992C70.713-.242 72.627-.341 73.86.786a3.027 3.027 0 01.213 4.275h-.014z"
        fill="#25D366"
      />
      <path
        d="M329.119 22.693c-1.056-1.246-2.364-2.301-3.973-3.166-1.857-.998-3.951-1.493-6.433-1.493-2.732 0-5.224.746-7.549 2.15h-.001c-2.172 1.325-3.857 3.146-5.216 5.451l-.223.377H314.748l.054-.027c.327-.169.573-.338.808-.498 1.388-.793 2.843-1.263 4.445-1.263 1.611 0 3.063.394 4.441 1.26l.351.24.355.244.064.044H336.092v-7.49h-6.973v4.17z"
        fill="#000"
        stroke="#000"
      />
      <path
        d="M312.305 40.118h0l-.002-.004c-.844-1.58-1.234-3.488-1.234-5.654 0-1.675.31-3.188.851-4.54l.137-.343h-7.436l-.045.194c-.318 1.395-.558 2.959-.558 4.69 0 3.204.638 6.087 1.919 8.725h0l.004.008c1.36 2.553 3.125 4.539 5.377 5.947 2.249 1.406 4.741 2.151 7.395 2.151 2.403 0 4.575-.495 6.508-1.49a12.974 12.974 0 004.056-3.246V50.805h6.973V29.577h-8.032l.128.338c.543 1.436.852 2.951.852 4.708 0 2.158-.465 4.068-1.312 5.653-.851 1.593-1.925 2.774-3.298 3.559-1.391.796-2.849 1.267-4.454 1.267a8.277 8.277 0 01-4.445-1.262c-1.385-.871-2.537-2.057-3.384-3.722zM255.156 22.665c-1.021-1.239-2.382-2.283-3.973-3.138-1.858-.998-4.031-1.493-6.433-1.493-2.733 0-5.224.746-7.55 2.15h-.001c-2.171 1.325-3.856 3.146-5.216 5.451l-.222.377H240.801l.064-.044c.11-.075.24-.152.38-.234l.005-.003c.132-.077.272-.16.396-.244 1.389-.793 2.843-1.263 4.446-1.263 1.611 0 3.063.394 4.441 1.26l.351.24.355.244.064.044h10.826v-7.49h-6.973v4.143zM238.263 40.118h0l-.002-.004c-.844-1.58-1.234-3.488-1.234-5.654 0-1.675.31-3.188.851-4.54l.137-.343h-7.436l-.045.194c-.318 1.395-.558 2.959-.558 4.69 0 3.204.638 6.087 1.919 8.725h0l.004.008c1.36 2.553 3.125 4.539 5.377 5.947a14.123 14.123 0 007.553 2.151c2.404 0 4.498-.495 6.354-1.493h0l.004-.001c1.673-.934 2.99-1.997 4.048-3.3v4.544c0 3.048-.778 5.334-2.297 6.898-1.525 1.57-3.51 2.363-6.057 2.363-2.173 0-4.016-.48-5.544-1.502h0l-.008-.005c-1.527-.944-2.514-2.275-2.97-3.84l-.052-.18h-6.783l.032.277c.402 3.565 2.018 6.31 4.836 8.384 2.813 2.069 6.341 3.137 10.568 3.137 3.191 0 5.92-.657 8.177-1.984 2.329-1.324 4.1-3.148 5.307-5.55 1.203-2.313 1.843-4.954 1.843-7.916V29.577h-8.118l.137.343c.54 1.35.85 2.944.85 4.703 0 2.158-.465 4.068-1.312 5.653-.851 1.593-1.925 2.774-3.298 3.559-1.391.796-2.849 1.267-4.454 1.267a8.277 8.277 0 01-4.445-1.262c-1.385-.871-2.537-2.057-3.384-3.722zM200.191 37.393h23.459l.034-.21c.16-.991.24-2.062.24-3.292 0-1.4-.16-2.797-.399-4.109l-.037-.205H216.524l.034.28c.069.567.136 1.12.152 1.67h-16.513c.083-.6.217-1.144.352-1.633l.088-.317h-7.005l-.041.2c-.318 1.552-.558 3.115-.558 4.846 0 3.283.638 6.253 2.005 8.736 1.361 2.474 3.206 4.459 5.536 5.865l.003.002c2.411 1.407 5.061 2.066 8.099 2.066 3.674 0 6.73-.905 9.229-2.815 2.487-1.9 4.254-4.38 5.217-7.356l.106-.327h-7.368l-.068.141c-.693 1.427-1.63 2.506-2.798 3.23-1.168.723-2.581 1.1-4.239 1.1-2.313 0-4.302-.713-5.908-2.209-1.544-1.438-2.388-3.319-2.656-5.663zM213.964 25.955l.069.057h8.006l-.197-.368a14.308 14.308 0 00-5.382-5.624h0l-.004-.002c-2.331-1.325-4.979-1.984-7.938-1.984-3.037 0-5.766.659-8.178 2.066h0c-2.25 1.325-4.017 3.146-5.38 5.539l-.212.373h8.255l.069-.057c1.534-1.263 3.294-1.893 5.288-1.893 2.237 0 4.074.633 5.604 1.893zM187.205 25.362h.25v-7.328h-.25c-2.172 0-4.03.498-5.649 1.415h0l-.005.002c-1.3.776-2.428 1.79-3.332 3.096v-4.025h-6.894v7.49h10.481l.044-.017c.993-.393 2.224-.633 3.697-.633h1.658zM171.247 50.555v.25h6.894V33.81c0-1.611.157-2.886.463-3.912l.096-.321h-7.453v20.978zM156.801 50.555v.25h6.815V31.859c0-.747-.081-1.41-.159-2.057l-.001-.005-.027-.22h-7.106l.093.32c.23.788.385 1.82.385 2.938v17.72zM154.277 25.947l.072.065h8.334l-.106-.327c-.166-.513-.414-.939-.648-1.34l-.003-.006c-1.126-2.069-2.658-3.648-4.596-4.729-1.939-1.081-4.193-1.576-6.594-1.576-1.847 0-3.618.331-5.311 1.078h0l-.004.002a11.093 11.093 0 00-3.592 2.632v-3.224h-6.894v7.49h9.345l.072-.065c1.286-1.168 2.958-1.723 4.963-1.723 2.082 0 3.675.554 4.962 1.723zM134.935 50.555v.25h6.894v-17.97c0-1.035.155-2.074.312-2.965l.052-.293h-7.258v20.978zM104.757 37.393H128.137l.034-.21c.16-.991.24-2.062.24-3.292 0-1.4-.16-2.797-.399-4.109l-.038-.205h-6.963l.034.28c.069.567.136 1.12.152 1.67h-16.514c.084-.6.218-1.144.353-1.633l.088-.317h-7.005l-.041.2c-.318 1.552-.558 3.115-.558 4.846 0 3.283.638 6.253 2.004 8.736 1.362 2.475 3.208 4.46 5.619 5.867 2.411 1.407 5.06 2.066 8.099 2.066 3.674 0 6.73-.905 9.229-2.815 2.487-1.9 4.254-4.38 5.217-7.356l.106-.327h-7.368l-.068.141c-.693 1.427-1.63 2.506-2.798 3.23-1.168.723-2.581 1.1-4.24 1.1-2.312 0-4.301-.713-5.907-2.209-1.544-1.438-2.388-3.319-2.656-5.663zM118.45 25.955l.07.057h8.006l-.197-.368a14.303 14.303 0 00-5.383-5.624h0l-.003-.002c-2.331-1.325-4.979-1.984-7.938-1.984-3.037 0-5.766.659-8.178 2.066h0c-2.251 1.325-4.017 3.146-5.38 5.539l-.212.373h8.255l.069-.057c1.534-1.263 3.293-1.893 5.288-1.893 2.237 0 4.074.633 5.603 1.893zM296.488 14.805l-.01.013-.008.014-5.92 10.81-.202.37h7.594l.072-.128 4.176-7.546c.256-.357.428-.802.433-1.33.081-.446-.004-.885-.079-1.27l-.004-.02c-.09-.461-.352-.903-.596-1.238-.263-.36-.606-.623-1.007-.872-.36-.273-.799-.363-1.174-.44l-.023-.005c-.446-.092-.884-.002-1.264.077l-.021.004c-.452.093-.807.368-1.111.602l-.018.014c-.344.266-.598.615-.829.932l-.009.013zM288.341 29.704l-7.373 13.026-7.121-4.258-.007-.004-.007-.003a4.719 4.719 0 00-1.169-.43c-.446-.091-.884 0-1.264.078l-.021.004c-.452.093-.807.368-1.11.602l-.019.014c-.353.273-.609.63-.852 1.047l-.005.009-.004.008a5.021 5.021 0 00-.415 1.2c-.088.454-.001.901.075 1.294l.004.02c.089.462.355.826.583 1.14l.013.016c.264.364.612.628 1.018.879h0l.003.002 9.934 5.926c.359.272.797.362 1.171.44l.024.004c.445.092.883.002 1.264-.077l.021-.004c.451-.093.807-.368 1.11-.602l.018-.014c.344-.266.599-.615.829-.932l.01-.013.008-.012.008-.013 10.735-19.102.209-.372h-7.598l-.072.127z"
        fill="#000"
        stroke="#000"
        strokeWidth="0.5"
      />
      <path
        d="M285.594 84.014c-.782 0-1.486-.168-2.112-.505a3.827 3.827 0 01-1.481-1.457c-.352-.626-.528-1.347-.528-2.165 0-.818.181-1.54.543-2.165a3.793 3.793 0 011.51-1.444c.636-.346 1.345-.52 2.127-.52.782 0 1.491.174 2.126.52a3.694 3.694 0 011.496 1.444c.371.625.557 1.347.557 2.165 0 .818-.19 1.54-.572 2.165a3.867 3.867 0 01-1.525 1.457c-.635.337-1.349.505-2.141.505zm0-1.76c.372 0 .719-.087 1.041-.26.333-.183.597-.452.792-.808.196-.356.293-.79.293-1.3 0-.76-.205-1.341-.615-1.746a1.983 1.983 0 00-1.482-.62c-.586 0-1.08.207-1.481.62-.391.404-.586.987-.586 1.747 0 .76.19 1.347.572 1.76.391.405.879.607 1.466.607zM278.111 77.13a2.88 2.88 0 011.027-.996c.43-.24.919-.36 1.466-.36v2.121h-.542c-.646 0-1.134.15-1.467.448-.322.298-.484.817-.484 1.558v3.984h-2.053v-7.996h2.053v1.241zM274.032 75.889v7.996h-2.068v-1.01c-.264.346-.611.62-1.041.822-.42.192-.88.289-1.378.289-.636 0-1.198-.13-1.687-.39a2.918 2.918 0 01-1.158-1.17c-.274-.519-.411-1.135-.411-1.847v-4.69h2.053v4.402c0 .635.161 1.126.484 1.472.323.337.763.505 1.32.505.567 0 1.012-.168 1.334-.505.323-.346.484-.837.484-1.472v-4.402h2.068zM259.464 75.99c.606 0 1.139.12 1.598.36.46.23.821.534 1.085.91v-1.141h2.068v8.054c0 .74-.151 1.4-.454 1.977a3.298 3.298 0 01-1.364 1.385c-.606.347-1.34.52-2.2.52-1.154 0-2.102-.265-2.845-.794-.733-.529-1.149-1.25-1.247-2.165h2.039c.107.366.337.655.689.866.362.222.797.332 1.305.332.597 0 1.081-.178 1.452-.534.372-.346.557-.875.557-1.587V82.93c-.264.376-.63.688-1.1.939-.459.25-.987.375-1.583.375a3.53 3.53 0 01-1.877-.52 3.702 3.702 0 01-1.35-1.457c-.322-.636-.484-1.362-.484-2.18 0-.808.162-1.525.484-2.15.333-.626.778-1.107 1.335-1.444a3.636 3.636 0 011.892-.505zm2.683 4.127c0-.49-.097-.91-.293-1.256a1.983 1.983 0 00-.792-.808 2.1 2.1 0 00-1.07-.289c-.382 0-.734.092-1.056.275a2.114 2.114 0 00-.792.808c-.196.346-.293.76-.293 1.241 0 .481.097.905.293 1.27.205.356.469.63.792.823.332.192.684.288 1.056.288.381 0 .738-.09 1.07-.274.333-.192.597-.462.792-.808.196-.356.293-.78.293-1.27zM254.925 79.713c0 .29-.02.549-.059.78h-5.939c.049.577.254 1.03.616 1.357.361.327.806.49 1.334.49.763 0 1.305-.322 1.628-.967h2.214a3.675 3.675 0 01-1.349 1.905c-.665.491-1.481.736-2.449.736-.782 0-1.486-.168-2.112-.505a3.738 3.738 0 01-1.451-1.457c-.343-.626-.514-1.347-.514-2.165 0-.828.171-1.554.514-2.18a3.55 3.55 0 011.437-1.443c.616-.337 1.324-.505 2.126-.505.772 0 1.462.163 2.068.49a3.41 3.41 0 011.422 1.4c.343.597.514 1.285.514 2.064zm-2.127-.577c-.01-.52-.2-.933-.572-1.241-.371-.317-.826-.476-1.364-.476-.508 0-.938.154-1.29.462-.342.298-.552.716-.631 1.255h3.857zM242.491 84.014c-.665 0-1.261-.115-1.789-.346-.528-.24-.949-.563-1.261-.967a2.428 2.428 0 01-.499-1.342h2.068c.039.308.19.563.454.765.274.202.611.303 1.012.303.391 0 .694-.077.909-.231.225-.154.338-.351.338-.592 0-.26-.137-.452-.411-.577-.264-.135-.689-.28-1.276-.433a11.368 11.368 0 01-1.496-.447 2.663 2.663 0 01-.997-.708c-.274-.317-.41-.745-.41-1.284 0-.443.127-.847.381-1.213.264-.365.635-.654 1.114-.866.489-.211 1.061-.317 1.716-.317.968 0 1.74.24 2.317.722.577.471.895 1.11.954 1.92h-1.966a1.01 1.01 0 00-.41-.751c-.235-.193-.553-.289-.953-.289-.372 0-.66.067-.866.202a.647.647 0 00-.293.563c0 .27.137.476.411.62.273.135.699.275 1.275.42.587.143 1.071.293 1.452.447.382.153.709.394.983.721.283.318.43.741.44 1.27 0 .462-.132.876-.396 1.242-.254.365-.626.654-1.115.865-.479.203-1.041.303-1.686.303zM230.142 84.014c-.782 0-1.486-.168-2.112-.505a3.82 3.82 0 01-1.481-1.457c-.352-.626-.528-1.347-.528-2.165 0-.818.181-1.54.543-2.165a3.793 3.793 0 011.51-1.444c.636-.346 1.344-.52 2.127-.52.782 0 1.49.174 2.126.52a3.7 3.7 0 011.496 1.444c.371.625.557 1.347.557 2.165 0 .818-.191 1.54-.572 2.165a3.867 3.867 0 01-1.525 1.457c-.636.337-1.349.505-2.141.505zm0-1.76a2.17 2.17 0 001.041-.26c.332-.183.596-.452.792-.808.196-.356.293-.79.293-1.3 0-.76-.205-1.341-.616-1.746-.4-.413-.894-.62-1.481-.62-.586 0-1.08.207-1.481.62-.391.404-.587.987-.587 1.747 0 .76.191 1.347.572 1.76.391.405.88.607 1.467.607zM223.239 77.549v3.868c0 .27.064.466.191.591.137.116.362.174.675.174h.953v1.703h-1.291c-1.73 0-2.595-.828-2.595-2.483V77.55h-.968v-1.66h.968v-1.977h2.067v1.977h1.819v1.66h-1.819zM218.823 75.889v7.996h-2.068v-1.01c-.264.346-.611.62-1.041.822-.42.192-.88.289-1.378.289-.636 0-1.198-.13-1.687-.39a2.918 2.918 0 01-1.158-1.17c-.274-.519-.411-1.135-.411-1.847v-4.69h2.053v4.402c0 .635.161 1.126.484 1.472.323.337.763.505 1.32.505.567 0 1.012-.168 1.334-.505.323-.346.484-.837.484-1.472v-4.402h2.068zM200.688 79.858c0-.808.161-1.525.483-2.15.333-.626.778-1.107 1.335-1.444a3.636 3.636 0 011.892-.505c.606 0 1.134.12 1.584.36.459.241.826.544 1.099.91v-1.14h2.068v7.996h-2.068v-1.17c-.264.376-.63.689-1.099.939-.46.24-.993.36-1.599.36-.684 0-1.31-.173-1.877-.519a3.747 3.747 0 01-1.335-1.458c-.322-.635-.483-1.361-.483-2.18zm6.393.029c0-.491-.097-.91-.293-1.256a1.983 1.983 0 00-.792-.808 2.1 2.1 0 00-1.07-.289c-.382 0-.734.092-1.056.274a2.114 2.114 0 00-.792.809c-.196.346-.293.76-.293 1.24 0 .482.097.905.293 1.271.205.356.469.63.792.823.332.192.684.288 1.056.288.381 0 .738-.091 1.07-.274.333-.192.597-.462.792-.808.196-.356.293-.78.293-1.27zM187.253 79.858c0-.808.162-1.525.484-2.15.333-.626.778-1.107 1.335-1.444a3.636 3.636 0 011.892-.505c.606 0 1.134.12 1.583.36.46.241.827.544 1.1.91v-1.14h2.068v7.996h-2.068v-1.17c-.264.376-.63.689-1.1.939-.459.24-.992.36-1.598.36-.684 0-1.31-.173-1.877-.519a3.747 3.747 0 01-1.335-1.458c-.322-.635-.484-1.361-.484-2.18zm6.394.029c0-.491-.097-.91-.293-1.256a1.983 1.983 0 00-.792-.808 2.1 2.1 0 00-1.07-.289c-.382 0-.734.092-1.056.274a2.114 2.114 0 00-.792.809c-.196.346-.293.76-.293 1.24 0 .482.097.905.293 1.271.205.356.469.63.792.823.332.192.684.288 1.056.288.381 0 .738-.091 1.07-.274.333-.192.597-.462.792-.808.196-.356.293-.78.293-1.27zM185.753 73.204v10.68H183.7v-10.68h2.053zM176.943 75.759c.606 0 1.139.12 1.598.36.46.232.821.535 1.085.91v-1.14h2.068v8.053c0 .741-.151 1.4-.454 1.978a3.298 3.298 0 01-1.364 1.385c-.606.347-1.34.52-2.2.52-1.154 0-2.102-.265-2.845-.794-.733-.53-1.149-1.25-1.247-2.165h2.039c.107.366.337.654.689.866.362.221.797.332 1.305.332.597 0 1.081-.178 1.452-.534.372-.346.557-.876.557-1.588v-1.24c-.264.374-.63.687-1.099.937-.46.25-.988.376-1.584.376a3.53 3.53 0 01-1.877-.52 3.709 3.709 0 01-1.35-1.458c-.322-.635-.484-1.361-.484-2.18 0-.807.162-1.524.484-2.15.333-.625.778-1.106 1.335-1.443a3.636 3.636 0 011.892-.505zm2.683 4.128c0-.491-.097-.91-.293-1.256a1.983 1.983 0 00-.792-.808 2.1 2.1 0 00-1.07-.289c-.382 0-.734.092-1.056.274a2.114 2.114 0 00-.792.809c-.196.346-.293.76-.293 1.24 0 .482.097.905.293 1.271.205.356.469.63.792.823.332.192.684.288 1.056.288.381 0 .738-.091 1.07-.274.333-.192.597-.462.792-.808.196-.356.293-.78.293-1.27zM172.262 79.713c0 .29-.019.549-.059.78h-5.939c.049.577.254 1.03.616 1.357.362.327.807.49 1.335.49.762 0 1.305-.322 1.627-.967h2.215a3.686 3.686 0 01-1.349 1.905c-.665.491-1.482.736-2.449.736-.783 0-1.487-.168-2.112-.505a3.747 3.747 0 01-1.452-1.457c-.342-.626-.513-1.347-.513-2.165 0-.828.171-1.554.513-2.18a3.55 3.55 0 011.437-1.443c.616-.337 1.325-.505 2.127-.505.772 0 1.461.163 2.067.49.616.328 1.09.794 1.423 1.4.342.597.513 1.285.513 2.064zm-2.126-.577c-.01-.52-.201-.933-.572-1.241-.372-.317-.826-.476-1.364-.476-.509 0-.939.154-1.291.462-.342.298-.552.716-.63 1.255h3.857zM160.833 77.13a2.889 2.889 0 011.027-.996c.43-.24.919-.36 1.466-.36v2.121h-.542c-.645 0-1.134.15-1.467.448-.322.298-.484.817-.484 1.558v3.984h-2.053v-7.996h2.053v1.241zM150.092 75.773c.968 0 1.75.303 2.346.91.597.596.895 1.433.895 2.511v4.69h-2.053v-4.416c0-.635-.161-1.12-.484-1.458-.323-.346-.763-.519-1.32-.519-.567 0-1.017.173-1.349.52-.323.336-.484.822-.484 1.457v4.417h-2.053v-7.996h2.053v.996a2.782 2.782 0 011.041-.809c.43-.201.9-.303 1.408-.303zM144.092 79.713c0 .29-.019.549-.059.78h-5.939c.049.577.254 1.03.616 1.357.362.327.807.49 1.335.49.762 0 1.305-.322 1.627-.967h2.215a3.686 3.686 0 01-1.349 1.905c-.665.491-1.482.736-2.449.736-.783 0-1.486-.168-2.112-.505a3.747 3.747 0 01-1.452-1.457c-.342-.626-.513-1.347-.513-2.165 0-.828.171-1.554.513-2.18a3.55 3.55 0 011.437-1.443c.616-.337 1.325-.505 2.127-.505.772 0 1.461.163 2.067.49.616.328 1.09.794 1.423 1.4.342.597.513 1.285.513 2.064zm-2.126-.577c-.01-.52-.201-.933-.572-1.241-.372-.317-.826-.476-1.364-.476-.508 0-.939.154-1.291.462-.342.298-.552.716-.63 1.255h3.857zM127.301 84.014c-.782 0-1.486-.168-2.112-.505a3.827 3.827 0 01-1.481-1.457c-.352-.626-.528-1.347-.528-2.165 0-.818.181-1.54.543-2.165a3.793 3.793 0 011.51-1.444c.636-.346 1.345-.52 2.127-.52.782 0 1.491.174 2.126.52a3.694 3.694 0 011.496 1.444c.371.625.557 1.347.557 2.165 0 .818-.19 1.54-.572 2.165a3.867 3.867 0 01-1.525 1.457c-.635.337-1.349.505-2.141.505zm0-1.76c.372 0 .719-.087 1.041-.26.333-.183.597-.452.792-.808.196-.356.293-.79.293-1.3 0-.76-.205-1.341-.615-1.746a1.983 1.983 0 00-1.482-.62c-.586 0-1.08.207-1.481.62-.391.404-.586.987-.586 1.747 0 .76.19 1.347.572 1.76.391.405.879.607 1.466.607zM120.398 77.549v3.868c0 .27.064.466.191.591.136.116.361.174.674.174h.953v1.703h-1.29c-1.731 0-2.596-.828-2.596-2.483V77.55h-.968v-1.66h.968v-1.977h2.068v1.977h1.818v1.66h-1.818zM115.982 75.889v7.996h-2.068v-1.01c-.264.346-.611.62-1.041.822-.42.192-.88.289-1.379.289-.635 0-1.197-.13-1.686-.39a2.927 2.927 0 01-1.159-1.17c-.273-.519-.41-1.135-.41-1.847v-4.69h2.053v4.402c0 .635.161 1.126.484 1.472.322.337.762.505 1.32.505.567 0 1.012-.168 1.334-.505.323-.346.484-.837.484-1.472v-4.402h2.068zM104.091 81.965h-4.077l-.674 1.92h-2.156l3.681-10.089h2.39l3.681 10.089h-2.17l-.675-1.92zm-.557-1.616l-1.481-4.215-1.481 4.215h2.962z"
        fill="#000"
      />
    </svg>