    <svg
      width="392"
      height="78"
      viewBox="0 0 392 78"
      fill="none"
      xmlns="http://www.w3.org/2000/svg"
    
    >
      <path
        d="M79.538 10.355l-3.635 4.006-3.578 3.94-4.064 4.485a3.065 3.065 0 01-.305-.264 3.587 3.587 0 010-5.062l2.028-2.027 4.798-4.798a3.599 3.599 0 012.53-1.055c.52 0 1.047.115 1.534.346.247.124.478.264.684.429h.008z"
        fill="#3D63AE"
      />
      <path
        d="M79.538 10.355l-3.635 4.006-3.578 3.94-4.064 4.485a3.065 3.065 0 01-.305-.264 3.587 3.587 0 010-5.062l2.028-2.027 4.798-4.798a3.599 3.599 0 012.53-1.055c.52 0 1.047.115 1.534.346.247.124.478.264.684.429h.008z"
        fill="#3D63AE"
      />
      <path
        d="M66.21 58.904a2.634 2.634 0 01-2.638 2.703H25.793l3.174-5.267h34.49c1.442 0 2.711 1.121 2.752 2.564zM73.725 11.688l-1.912-2.34c-.14-.166-.28-.33-.43-.487a8.44 8.44 0 00-6.165-2.655H31.133a8.58 8.58 0 00-6.776 3.355l-11.763 15.44-3.998 5.242h2.844l2.473 1.715 3.19-4.196 11.441-15.01a3.28 3.28 0 012.589-1.278H65.21c.98 0 1.896.437 2.522 1.195l.09.107 2.16 2.646 2.342 2.877 3.577-3.94-2.176-2.67z"
        fill="#fff"
      />
      <path
        d="M94.647 40.392v20.896a8.45 8.45 0 01-2.416 5.935l-.865.89a8.546 8.546 0 01-6.1 2.58h-3.182a8.495 8.495 0 01-7.031-3.709l-9.974-14.607a3.235 3.235 0 00-2.688-1.417h-28.34a3.27 3.27 0 00-2.777 1.566l-2.3 3.816L25.8 61.61l-3 4.97a8.564 8.564 0 01-7.295 4.114h-3.949a8.48 8.48 0 01-6.026-2.49 8.467 8.467 0 01-2.489-6.026V40.441c0-1.854.618-3.684 1.74-5.16l3.824-5.028h2.844l2.473 1.715-4.954 6.503a3.265 3.265 0 00-.668 1.97v21.737c0 .866.338 1.682.956 2.3.61.61 1.426.957 2.3.957h3.949c1.129 0 2.2-.602 2.777-1.575l3.834-6.355 4.64-7.691a8.572 8.572 0 017.296-4.122H62.4a8.502 8.502 0 017.03 3.718l9.975 14.607a3.235 3.235 0 002.687 1.418h3.182c.866 0 1.723-.363 2.325-.981l.865-.89c.594-.61.915-1.419.915-2.268V40.4c0-.742-.264-1.475-.733-2.052l-6.554-6.38 3.914-3.249 6.72 6.307a8.506 8.506 0 011.912 5.382l.009-.016z"
        fill="#fff"
      />
      <path
        d="M55.451 36.914l-3.388 3.726a5.473 5.473 0 01-2.027 1.41c-.124.05-.248.09-.38.132H29.453a2.621 2.621 0 01-1.5-.462l-14.039-9.743-2.473-1.715H2.638A2.64 2.64 0 010 27.624c0-1.459 1.179-2.63 2.638-2.63h9.628c.107 0 .222.01.33.026.42.049.824.206 1.178.445l3.339 2.316 13.172 9.133h25.166zM97.681 27.615c0 .742-.305 1.41-.8 1.888a2.612 2.612 0 01-1.838.742h-8.812l-2.67 1.846-1.93 1.335-11.919 8.268a2.641 2.641 0 01-1.5.462H54.899l5.268-5.267h7.22l12.835-8.903-5.704-6.998 3.742-3.751 6.38 7.83c.248-.073.503-.106.759-.106h9.636a2.638 2.638 0 012.638 2.63l.008.024z"
        fill="#fff"
      />
      <path
        d="M79.538 10.355l-3.635 4.006-3.578 3.94-4.064 4.485a3.05 3.05 0 01-.305-.264 3.587 3.587 0 010-5.061l2.028-2.028 4.798-4.797a3.599 3.599 0 012.53-1.056c.52 0 1.047.116 1.534.347.247.123.478.263.684.428h.008zM61.345 30.41l-5.902 6.504-3.388 3.726a5.473 5.473 0 01-2.028 1.41 5.18 5.18 0 01-.38.131l-.247.074c-.024-.024-.04-.049-.066-.074a3.583 3.583 0 01.24-4.805l.461-.462 6.372-6.372a3.584 3.584 0 012.53-1.055c.52 0 1.04.115 1.534.346.321.157.618.355.866.569l.008.008z"
        fill="#3D63AE"
      />
      <path
        d="M86.111 6.002l-3.948 4.353-3.635 4.006-3.578 3.94-4.064 4.484-6.907 7.617-5.902 6.504-3.388 3.726a5.471 5.471 0 01-2.028 1.41c-.124.049-.248.09-.38.131l-.247.074a5.265 5.265 0 01-2.901-.074 5.458 5.458 0 01-1.93-1.072l-4.863-4.187-8.919-7.683a3.515 3.515 0 01-.37-4.962 3.515 3.515 0 014.962-.37l12.562 10.814 19.883-21.918 3.56-3.924 6.892-7.6c1.31-1.435 3.536-1.55 4.97-.24a3.52 3.52 0 01.248 4.971h-.017z"
        fill="#25D366"
      />
      <path
        d="M382.722 26.615c-1.237-1.482-2.777-2.734-4.68-3.757-2.152-1.156-4.58-1.73-7.461-1.73-3.169 0-6.059.864-8.757 2.493h-.001c-2.518 1.537-4.473 3.649-6.051 6.325l-.222.377H365.961l.054-.028c.379-.195.663-.39.936-.578 1.62-.925 3.319-1.474 5.191-1.474 1.881 0 3.577.46 5.186 1.472l.822.564.063.044h12.535v-8.628h-8.026v4.92zM363.094 46.783h0l-.002-.004c-.985-1.845-1.439-4.07-1.439-6.593 0-1.953.361-3.718.991-5.295l.137-.342h-8.553l-.045.194c-.37 1.62-.648 3.435-.648 5.443 0 3.72.741 7.066 2.228 10.127h-.001l.005.009c1.578 2.963 3.625 5.266 6.237 6.9 2.608 1.63 5.499 2.495 8.577 2.495 2.789 0 5.307-.575 7.549-1.73a15.07 15.07 0 004.775-3.85v5.013h8.026V34.549h-9.239l.128.338c.632 1.674.993 3.44.993 5.488 0 2.516-.542 4.743-1.53 6.593-.992 1.857-2.247 3.236-3.851 4.153-1.622.929-3.324 1.48-5.199 1.48-1.792 0-3.581-.461-5.19-1.474-1.616-1.017-2.961-2.401-3.949-4.344zM296.721 26.585c-1.19-1.474-2.795-2.715-4.679-3.727-2.153-1.156-4.673-1.73-7.461-1.73-3.17 0-6.059.864-8.757 2.493h-.001c-2.518 1.537-4.473 3.649-6.051 6.325l-.222.377h10.427l.064-.044c.129-.089.282-.179.445-.274l.004-.003c.154-.09.318-.187.46-.284 1.62-.926 3.319-1.475 5.191-1.475 1.881 0 3.577.46 5.186 1.472l.409.28.413.284.064.044h12.535v-8.628H296.721v4.89zM277.002 46.783h0l-.002-.004c-.985-1.845-1.439-4.07-1.439-6.593 0-1.953.361-3.718.992-5.295l.137-.342h-8.554l-.044.194c-.371 1.62-.649 3.435-.649 5.443 0 3.72.741 7.066 2.228 10.127h0l.004.009c1.578 2.963 3.626 5.266 6.238 6.9 2.609 1.631 5.592 2.495 8.76 2.495 2.789 0 5.217-.575 7.369-1.731h0l.003-.002c1.981-1.105 3.529-2.365 4.768-3.916v5.399c0 3.55-.907 6.22-2.682 8.048-1.783 1.835-4.101 2.76-7.072 2.76-2.532 0-4.684-.559-6.469-1.754h0l-.008-.005c-1.784-1.102-2.938-2.658-3.471-4.488l-.052-.18h-7.81l.031.278c.467 4.133 2.339 7.315 5.607 9.72 3.263 2.399 7.356 3.64 12.264 3.64 3.705 0 6.871-.764 9.487-2.303 2.701-1.535 4.755-3.65 6.155-6.435 1.396-2.684 2.138-5.748 2.138-9.187V34.55h-9.338l.137.342c.63 1.575.992 3.434.992 5.484 0 2.516-.543 4.743-1.531 6.593-.992 1.857-2.247 3.236-3.851 4.153-1.622.929-3.324 1.48-5.199 1.48-1.792 0-3.581-.461-5.19-1.474-1.616-1.017-2.961-2.401-3.949-4.344zM232.725 43.555H260.012l.034-.21c.186-1.15.279-2.392.279-3.82 0-1.626-.186-3.248-.463-4.771l-.038-.205h-8.017l.034.28c.082.673.162 1.332.179 1.988h-19.29c.097-.72.256-1.37.418-1.952l.088-.316h-8.059l-.041.2c-.369 1.803-.648 3.617-.648 5.626 0 3.812.741 7.258 2.326 10.139 1.58 2.87 3.72 5.172 6.423 6.804l.003.002c2.796 1.632 5.869 2.397 9.396 2.397 4.265 0 7.809-1.051 10.707-3.265 2.885-2.204 4.934-5.082 6.052-8.533l.105-.327H251.015l-.068.14c-.809 1.665-1.903 2.926-3.269 3.772-1.365.846-3.016 1.286-4.95 1.286-2.698 0-5.021-.832-6.897-2.58-1.814-1.69-2.799-3.9-3.106-6.655zM248.81 30.266l.07.057h9.226l-.197-.368c-1.49-2.782-3.634-4.99-6.243-6.525h0l-.003-.002c-2.704-1.536-5.776-2.3-9.21-2.3-3.525 0-6.691.764-9.488 2.396h-.001c-2.61 1.536-4.659 3.648-6.24 6.425l-.213.374H236.026l.069-.057c1.791-1.476 3.846-2.212 6.174-2.212 2.61 0 4.755.74 6.541 2.212zM217.671 29.567h.25V21.127h-.25c-2.519 0-4.673.577-6.548 1.64h0l-.005.002a12.287 12.287 0 00-3.936 3.696v-4.77h-7.934v8.628h12.137l.045-.018c1.159-.46 2.596-.738 4.313-.738h1.928zM199.157 58.9v.25h7.934V39.43c0-1.876.182-3.362.54-4.56l.096-.321h-8.57v24.35zM182.36 58.9v.25h7.842V37.16c0-.865-.093-1.634-.184-2.387l-.001-.005-.027-.22h-8.172l.093.32c.268.92.449 2.125.449 3.427V58.9zM179.412 30.258l.072.065h9.619l-.106-.327c-.192-.593-.479-1.085-.751-1.553l-.004-.005c-1.305-2.4-3.081-4.23-5.327-5.483-2.247-1.254-4.861-1.828-7.648-1.828-2.142 0-4.196.384-6.159 1.25h0l-.004.002a12.837 12.837 0 00-4.234 3.13v-3.814h-7.934v8.628h10.809l.072-.065c1.505-1.367 3.459-2.015 5.798-2.015 2.429 0 4.292.647 5.797 2.015zM156.936 58.9v.25h7.934V38.296c0-1.206.18-2.418.363-3.454l.052-.293h-8.349v24.35zM121.76 43.555h27.195l.034-.21c.186-1.15.279-2.392.279-3.82 0-1.626-.186-3.248-.463-4.771l-.038-.205h-8.017l.034.28c.082.673.162 1.332.179 1.988h-19.29c.097-.72.256-1.37.418-1.952l.088-.316h-8.059l-.041.2c-.369 1.803-.648 3.617-.648 5.626 0 3.812.74 7.258 2.326 10.139 1.58 2.871 3.721 5.174 6.518 6.806 2.796 1.632 5.869 2.397 9.396 2.397 4.265 0 7.809-1.051 10.706-3.265 2.886-2.204 4.935-5.082 6.052-8.533l.106-.327H140.05l-.069.14c-.808 1.665-1.903 2.926-3.268 3.772-1.365.846-3.016 1.286-4.951 1.286-2.698 0-5.021-.832-6.897-2.58-1.813-1.69-2.799-3.9-3.105-6.655zM137.753 30.266l.069.057H147.049l-.197-.368c-1.49-2.782-3.634-4.99-6.243-6.525h0l-.003-.002c-2.704-1.536-5.776-2.3-9.21-2.3-3.526 0-6.691.764-9.488 2.396h-.001c-2.61 1.536-4.659 3.648-6.24 6.425l-.213.374H124.969l.069-.057c1.791-1.476 3.845-2.212 6.174-2.212 2.61 0 4.755.74 6.541 2.212zM344.771 17.356l-.009.013-.008.014-6.883 12.57-.203.37H346.406l.071-.129 4.857-8.776c.295-.41.493-.92.498-1.528.093-.513-.005-1.018-.092-1.47l-.004-.02c-.103-.526-.403-1.034-.686-1.422-.301-.414-.696-.716-1.162-1.004-.411-.313-.914-.417-1.352-.507l-.024-.005c-.51-.105-1.012-.001-1.456.09l-.022.005c-.516.106-.923.42-1.277.694l-.018.014c-.396.306-.689.708-.958 1.078l-.01.013zM335.302 34.675l-8.593 15.183-8.316-4.972-.007-.004-.007-.004a5.463 5.463 0 00-1.349-.495c-.51-.105-1.012-.001-1.457.09l-.021.005c-.516.106-.922.42-1.277.694l-.018.014c-.405.313-.7.723-.981 1.206l-.005.009-.004.008c-.19.39-.383.884-.48 1.385-.101.52-.001 1.034.088 1.492l.004.02c.102.528.406.945.673 1.312l.013.017c.303.416.702.72 1.172 1.01l.003.003 11.552 6.892c.411.312.914.415 1.351.505l.024.005c.51.105 1.012.001 1.457-.09l.021-.005c.516-.106.923-.42 1.277-.694l.019-.014c.395-.306.688-.708.957-1.077l.01-.014.008-.011.008-.013 12.482-22.21.209-.373h-8.741l-.072.126z"
        fill="#fff"
        stroke="#fff"
        strokeWidth="0.5"
      />
    </svg>