<svg width="337" height="89" viewBox="0 0 337 89" fill="none" xmlns="http://www.w3.org/2000/svg">
<path d="M68.4055 8.80446L65.2791 12.2499L62.2023 15.6386L58.7073 19.4952C58.6151 19.4243 58.53 19.3534 58.445 19.2684C57.2469 18.0703 57.2469 16.1207 58.445 14.9155L60.1889 13.1715L64.315 9.0455C64.9034 8.45708 65.6974 8.13806 66.4914 8.13806C66.938 8.13806 67.3917 8.23731 67.81 8.43581C68.0227 8.54216 68.2212 8.66267 68.3984 8.80446H68.4055Z" fill="#3D63AE"/>
<path d="M68.4055 8.80446L65.2791 12.2499L62.2023 15.6386L58.7073 19.4952C58.6151 19.4243 58.53 19.3534 58.445 19.2684C57.2469 18.0703 57.2469 16.1207 58.445 14.9155L60.1889 13.1715L64.315 9.0455C64.9034 8.45708 65.6974 8.13806 66.4914 8.13806C66.938 8.13806 67.3917 8.23731 67.81 8.43581C68.0227 8.54216 68.2212 8.66267 68.3984 8.80446H68.4055Z" fill="#3D63AE"/>
<path d="M56.9423 50.5583C56.9706 51.8415 55.9498 52.8836 54.6737 52.8836H22.1831L24.9125 48.3535H54.5744C55.8151 48.3535 56.9068 49.3177 56.9423 50.5583Z" fill="black"/>
<path d="M63.4061 9.95112L61.7614 7.93774C61.6409 7.79595 61.5203 7.65417 61.3927 7.51947C60.0174 6.05906 58.1104 5.23669 56.0899 5.23669H26.7754C24.5068 5.23669 22.3304 6.31428 20.9479 8.12206L10.8314 21.4004L7.39307 25.9093H9.8389L11.9657 27.3839L14.7093 23.7754L24.5493 10.8656C25.0739 10.178 25.9105 9.7668 26.7754 9.7668H56.0828C56.9264 9.7668 57.7134 10.1425 58.2521 10.7948L58.3301 10.8869L60.1875 13.1626L62.2009 15.6368L65.2777 12.2481L63.4061 9.95112Z" fill="black"/>
<path d="M81.3993 34.6374V52.6089C81.3993 54.5301 80.662 56.3379 79.3221 57.7132L78.5778 58.4789C77.2095 59.8897 75.2954 60.6979 73.3316 60.6979H70.5951C68.1706 60.6979 65.9091 59.5068 64.5479 57.5076L55.9698 44.9453C55.4523 44.1796 54.5874 43.7259 53.6586 43.7259H29.2854C28.3142 43.7259 27.3996 44.2435 26.8963 45.0729L24.9184 48.3553L22.189 52.8854L19.6084 57.1603C18.2898 59.3438 15.8865 60.6979 13.3343 60.6979H9.93855C7.98188 60.6979 6.14574 59.9393 4.75622 58.5569C3.3738 57.1744 2.61523 55.3312 2.61523 53.3745V34.6799C2.61523 33.0848 3.14694 31.511 4.11109 30.242L7.40055 25.9175H9.84638L11.9732 27.392L7.71249 32.9855C7.34384 33.4676 7.13825 34.0702 7.13825 34.6799V53.3745C7.13825 54.1189 7.42891 54.8208 7.96061 55.3525C8.48523 55.8771 9.18707 56.1749 9.93855 56.1749H13.3343C14.3056 56.1749 15.2272 55.6573 15.7235 54.8208L19.02 49.3549L23.0113 42.7405C24.33 40.557 26.7332 39.1958 29.2854 39.1958H53.6657C56.0903 39.1958 58.3518 40.3939 59.713 42.3931L68.2911 54.9555C68.8086 55.7211 69.6735 56.1749 70.6022 56.1749H73.3387C74.0831 56.1749 74.8204 55.8629 75.3379 55.3312L76.0823 54.5656C76.5927 54.0409 76.8692 53.3462 76.8692 52.616V34.6445C76.8692 34.0064 76.6424 33.3755 76.2383 32.8792L70.6022 27.392L73.9683 24.5984L79.7475 30.0222C80.8109 31.3195 81.3922 32.9643 81.3922 34.6515L81.3993 34.6374Z" fill="black"/>
<path d="M47.6902 31.6466L44.7764 34.851C44.2802 35.3969 43.6776 35.8081 43.0324 36.0633C42.9261 36.1058 42.8198 36.1413 42.7063 36.1767H25.3303C24.8695 36.1767 24.4158 36.042 24.04 35.7797L11.9668 27.4001L9.84004 25.9255H2.2686C1.02087 25.9255 0 24.9117 0 23.6569C0 22.4021 1.01378 21.3954 2.2686 21.3954H10.549C10.6411 21.3954 10.7404 21.4025 10.8325 21.4167C11.1941 21.4592 11.5415 21.5939 11.8463 21.7995L14.7175 23.7916L26.0463 31.6466H47.6902Z" fill="black"/>
<path d="M84.0091 23.6488C84.0091 24.2868 83.7468 24.8611 83.3215 25.2722C82.9174 25.6692 82.3573 25.9103 81.7405 25.9103H74.162L71.8651 27.4983L70.2061 28.6468L59.9549 35.7574C59.5721 36.0197 59.1255 36.1544 58.6647 36.1544H47.2153L51.7454 31.6243H57.9557L68.9939 23.9678L64.088 17.9489L67.3066 14.7233L72.7938 21.4582C73.0064 21.3944 73.2262 21.366 73.446 21.366H81.7334C82.9812 21.366 84.002 22.3798 84.002 23.6275L84.0091 23.6488Z" fill="black"/>
<path d="M68.4055 8.80483L65.2791 12.2503L62.2023 15.639L58.7073 19.4956C58.6151 19.4247 58.53 19.3538 58.445 19.2687C57.2469 18.0706 57.2469 16.1211 58.445 14.9159L60.1889 13.1719L64.315 9.04587C64.9034 8.45745 65.6974 8.13843 66.4914 8.13843C66.938 8.13843 67.3917 8.23768 67.81 8.43618C68.0227 8.54252 68.2212 8.66304 68.3984 8.80483H68.4055Z" fill="#3D63AE"/>
<path d="M52.7586 26.0527L47.6826 31.6462L44.7689 34.8506C44.2726 35.3965 43.67 35.8076 43.0249 36.0629C42.9186 36.1054 42.8122 36.1408 42.6988 36.1763C42.6279 36.1976 42.557 36.2188 42.4861 36.2401C42.4649 36.2188 42.4507 36.1976 42.4294 36.1763C41.4369 34.964 41.5007 33.1775 42.635 32.0432L43.032 31.6462L48.5121 26.1661C49.1005 25.5777 49.8874 25.2587 50.6885 25.2587C51.1351 25.2587 51.5818 25.3579 52.0071 25.5564C52.2836 25.6911 52.5388 25.8613 52.7515 26.0456L52.7586 26.0527Z" fill="#3D63AE"/>
<path d="M74.0589 5.06106L70.6631 8.80425L67.5366 12.2497L64.4599 15.6384L60.9648 19.495L55.0239 26.0456L49.9479 31.6391L47.0342 34.8435C46.538 35.3894 45.9354 35.8005 45.2902 36.0558C45.1839 36.0983 45.0775 36.1337 44.9641 36.1692C44.8932 36.1905 44.8223 36.2117 44.7514 36.233C43.9362 36.4457 43.0712 36.4244 42.256 36.1692C41.6676 35.9849 41.1004 35.68 40.5971 35.2476L36.4143 31.6462L28.7436 25.0389C27.4746 23.9471 27.3329 22.0401 28.4246 20.7711C29.5164 19.5021 31.4234 19.3603 32.6924 20.4521L43.4966 29.7533L60.5962 10.9027L63.6588 7.52816L69.5855 0.991767C70.7127 -0.241782 72.6268 -0.341033 73.8604 0.786176C75.101 1.90629 75.1932 3.82042 74.073 5.06106H74.0589Z" fill="#25D366"/>
<path d="M329.119 22.6929C328.063 21.4468 326.755 20.3916 325.146 19.5271C323.289 18.5294 321.195 18.0342 318.713 18.0342C315.981 18.0342 313.489 18.7798 311.164 20.1836L311.163 20.1842C308.991 21.5093 307.306 23.3298 305.947 25.6354L305.724 26.0124H306.162H314.687H314.748L314.802 25.9847C315.129 25.8162 315.375 25.6474 315.61 25.4866C316.998 24.6937 318.453 24.2241 320.055 24.2241C321.666 24.2241 323.118 24.6177 324.496 25.4837L324.847 25.7247L325.202 25.9685L325.266 26.0124H325.344H335.842H336.092V25.7624V18.7719V18.5219H335.842H329.369H329.119V18.7719V22.6929Z" fill="black" stroke="black" stroke-width="0.5"/>
<path d="M312.305 40.1181L312.305 40.118L312.303 40.1136C311.459 38.5337 311.069 36.6262 311.069 34.4602C311.069 32.7847 311.379 31.2718 311.92 29.9197L312.057 29.5769H311.688H304.82H304.621L304.576 29.7712C304.258 31.1662 304.018 32.7298 304.018 34.4602C304.018 37.665 304.656 40.5477 305.937 43.1856L305.937 43.1857L305.941 43.1939C307.301 45.7468 309.066 47.7327 311.318 49.1409C313.567 50.5466 316.059 51.2923 318.713 51.2923C321.116 51.2923 323.288 50.7971 325.221 49.8015C326.905 48.9346 328.222 47.8154 329.277 46.5559V50.5546V50.8046H329.527H336H336.25V50.5546V29.8269V29.5769H336H328.58H328.218L328.346 29.9152C328.889 31.3514 329.198 32.866 329.198 34.6227C329.198 36.7814 328.733 38.691 327.886 40.2762C327.035 41.8686 325.961 43.0496 324.588 43.8348C323.197 44.6308 321.739 45.1024 320.134 45.1024C318.599 45.1024 317.067 44.7074 315.689 43.8402C314.304 42.969 313.152 41.7829 312.305 40.1181Z" fill="black" stroke="black" stroke-width="0.5"/>
<path d="M255.156 22.6647C254.135 21.4263 252.774 20.3817 251.183 19.5271C249.325 18.5291 247.152 18.0342 244.75 18.0342C242.017 18.0342 239.526 18.7798 237.2 20.1836L237.199 20.1842C235.028 21.5093 233.343 23.3298 231.983 25.6354L231.761 26.0124H232.199H240.724H240.801L240.865 25.9685C240.975 25.8931 241.105 25.8164 241.245 25.734L241.25 25.7315C241.382 25.6538 241.522 25.571 241.646 25.4868C243.035 24.6938 244.489 24.2241 246.092 24.2241C247.703 24.2241 249.155 24.6177 250.533 25.4836L250.884 25.7247L251.239 25.9685L251.303 26.0124H251.38H261.879H262.129V25.7624V18.7719V18.5219H261.879H255.406H255.156V18.7719V22.6647Z" fill="black" stroke="black" stroke-width="0.5"/>
<path d="M238.263 40.1181L238.263 40.118L238.261 40.1136C237.417 38.5337 237.027 36.6262 237.027 34.4602C237.027 32.7847 237.337 31.2718 237.878 29.9197L238.015 29.5769H237.646H230.778H230.579L230.534 29.7712C230.216 31.1662 229.976 32.7298 229.976 34.4602C229.976 37.665 230.614 40.5477 231.895 43.1856L231.895 43.1857L231.899 43.1939C233.259 45.7468 235.024 47.7327 237.276 49.1409C239.526 50.5478 242.098 51.2923 244.829 51.2923C247.233 51.2923 249.327 50.7968 251.183 49.7994L251.183 49.7995L251.187 49.7976C252.86 48.864 254.177 47.8009 255.235 46.4986V51.0423C255.235 54.0902 254.457 56.3758 252.938 57.94C251.413 59.5106 249.428 60.3027 246.881 60.3027C244.708 60.3027 242.865 59.8237 241.337 58.8005L241.337 58.8004L241.329 58.7956C239.802 57.8522 238.815 56.5208 238.359 54.9554L238.307 54.7753H238.119H231.804H231.524L231.556 55.0534C231.958 58.6182 233.574 61.3633 236.392 63.4365C239.205 65.5056 242.733 66.574 246.96 66.574C250.151 66.574 252.88 65.9168 255.137 64.5896C257.466 63.2659 259.237 61.4425 260.444 59.0408C261.647 56.7269 262.287 54.0863 262.287 51.1236V29.8269V29.5769H262.037H254.538H254.169L254.306 29.9197C254.846 31.2696 255.156 32.8635 255.156 34.6227C255.156 36.7814 254.691 38.691 253.844 40.2762C252.993 41.8687 251.919 43.0496 250.546 43.8348C249.155 44.6308 247.697 45.1024 246.092 45.1024C244.557 45.1024 243.025 44.7074 241.647 43.8402C240.262 42.969 239.11 41.7829 238.263 40.1181Z" fill="black" stroke="black" stroke-width="0.5"/>
<path d="M200.191 37.3926H223.437H223.65L223.684 37.1825C223.844 36.1917 223.924 35.1214 223.924 33.8912C223.924 32.4908 223.764 31.0936 223.525 29.7821L223.488 29.5769H223.279H216.806H216.524L216.558 29.857C216.627 30.424 216.694 30.9776 216.71 31.5278H200.197C200.28 30.9266 200.414 30.3829 200.549 29.8937L200.637 29.5769H200.309H193.836H193.632L193.591 29.7768C193.273 31.3293 193.033 32.8921 193.033 34.6227C193.033 37.9055 193.671 40.8756 195.038 43.3595C196.399 45.8333 198.244 47.8178 200.574 49.2242L200.577 49.2261C202.988 50.633 205.638 51.2923 208.676 51.2923C212.35 51.2923 215.406 50.3867 217.905 48.4773C220.392 46.5772 222.159 44.0964 223.122 41.1213L223.228 40.7943H222.884H216.017H215.86L215.792 40.9351C215.099 42.362 214.162 43.441 212.994 44.1644C211.826 44.888 210.413 45.265 208.755 45.265C206.442 45.265 204.453 44.5524 202.847 43.0561C201.303 41.6175 200.459 39.7375 200.191 37.3926Z" fill="black" stroke="black" stroke-width="0.5"/>
<path d="M213.964 25.9554L214.033 26.0124H214.123H221.621H222.039L221.842 25.6443C220.557 23.2467 218.709 21.3434 216.46 20.0196L216.46 20.0195L216.456 20.0177C214.125 18.6934 211.477 18.0342 208.518 18.0342C205.481 18.0342 202.752 18.693 200.34 20.1004L200.34 20.1008C198.09 21.4249 196.323 23.2458 194.96 25.6387L194.748 26.0124H195.178H202.914H203.003L203.072 25.9554C204.606 24.6918 206.366 24.0616 208.36 24.0616C210.597 24.0616 212.434 24.6954 213.964 25.9554Z" fill="black" stroke="black" stroke-width="0.5"/>
<path d="M187.205 25.3621H187.455V25.1121V18.2842V18.0342H187.205C185.033 18.0342 183.175 18.5317 181.556 19.4485L181.556 19.4484L181.551 19.4513C180.251 20.2265 179.123 21.2418 178.219 22.5465V18.7719V18.5219H177.969H171.575H171.325V18.7719V25.7624V26.0124H171.575H181.758H181.806L181.85 25.9949C182.843 25.6016 184.074 25.3621 185.547 25.3621H187.205Z" fill="black" stroke="black" stroke-width="0.5"/>
<path d="M171.247 50.5546V50.8046H171.497H177.891H178.141V50.5546V33.8099C178.141 32.1988 178.298 30.9243 178.604 29.8985L178.7 29.5769H178.365H171.497H171.247V29.8269V50.5546Z" fill="black" stroke="black" stroke-width="0.5"/>
<path d="M156.801 50.5546V50.8046H157.051H163.366H163.616V50.5546V31.859C163.616 31.1123 163.535 30.4494 163.457 29.8021L163.456 29.7968L163.429 29.5769H163.208H156.656H156.323L156.416 29.8968C156.646 30.6849 156.801 31.7179 156.801 32.8345V50.5546Z" fill="black" stroke="black" stroke-width="0.5"/>
<path d="M154.277 25.9474L154.349 26.0124H154.446H162.339H162.683L162.577 25.6854C162.411 25.1721 162.163 24.746 161.929 24.3446L161.926 24.3392C160.8 22.27 159.268 20.691 157.33 19.6103C155.391 18.5289 153.137 18.0342 150.736 18.0342C148.889 18.0342 147.118 18.365 145.425 19.1122L145.425 19.1121L145.421 19.1141C144.027 19.76 142.812 20.6549 141.829 21.7458V18.7719V18.5219H141.579H135.185H134.935V18.7719V25.7624V26.0124H135.185H144.184H144.28L144.352 25.9474C145.638 24.7787 147.31 24.2241 149.315 24.2241C151.397 24.2241 152.99 24.7779 154.277 25.9474Z" fill="black" stroke="black" stroke-width="0.5"/>
<path d="M134.935 50.5546V50.8046H135.185H141.579H141.829V50.5546V32.8345C141.829 31.8003 141.984 30.7611 142.141 29.8704L142.193 29.5769H141.895H135.185H134.935V29.8269V50.5546Z" fill="black" stroke="black" stroke-width="0.5"/>
<path d="M104.757 37.3926H127.924H128.137L128.171 37.1825C128.331 36.1917 128.411 35.1214 128.411 33.8912C128.411 32.4908 128.251 31.0936 128.012 29.7821L127.974 29.5769H127.766H121.293H121.011L121.045 29.857C121.114 30.424 121.181 30.9776 121.197 31.5278H104.683C104.767 30.9266 104.901 30.3829 105.036 29.8937L105.124 29.5769H104.795H98.3226H98.1185L98.0776 29.7768C97.7602 31.3293 97.52 32.8921 97.52 34.6227C97.52 37.9055 98.1575 40.8756 99.5244 43.3595C100.886 45.8337 102.732 47.8193 105.143 49.2261C107.554 50.633 110.203 51.2923 113.242 51.2923C116.916 51.2923 119.972 50.3867 122.471 48.4773C124.958 46.5772 126.725 44.0964 127.688 41.1213L127.794 40.7943H127.45H120.583H120.426L120.358 40.9351C119.665 42.362 118.728 43.441 117.56 44.1644C116.392 44.888 114.979 45.265 113.32 45.265C111.008 45.265 109.019 44.5524 107.413 43.0561C105.869 41.6175 105.025 39.7375 104.757 37.3926Z" fill="black" stroke="black" stroke-width="0.5"/>
<path d="M118.45 25.9554L118.52 26.0124H118.609H126.108H126.526L126.329 25.6443C125.044 23.2467 123.196 21.3434 120.946 20.0196L120.946 20.0195L120.943 20.0177C118.612 18.6934 115.964 18.0342 113.005 18.0342C109.968 18.0342 107.239 18.693 104.827 20.1004L104.827 20.1008C102.576 21.4249 100.81 23.2458 99.4473 25.6387L99.2346 26.0124H99.6646H107.4H107.49L107.559 25.9554C109.093 24.6918 110.852 24.0616 112.847 24.0616C115.084 24.0616 116.921 24.6954 118.45 25.9554Z" fill="black" stroke="black" stroke-width="0.5"/>
<path d="M296.488 14.8048L296.478 14.8178L296.47 14.8319L290.55 25.6428L290.348 26.0129H290.77H297.795H297.942L298.014 25.884L302.19 18.3377C302.446 17.981 302.618 17.5361 302.623 17.0079C302.704 16.5618 302.619 16.1232 302.544 15.7372L302.54 15.7172C302.45 15.257 302.188 14.815 301.944 14.4797C301.681 14.1194 301.338 13.8567 300.937 13.6079C300.577 13.3349 300.138 13.2446 299.763 13.1675C299.755 13.1659 299.748 13.1643 299.74 13.1627C299.294 13.071 298.856 13.1613 298.476 13.2397L298.455 13.244C298.003 13.337 297.648 13.6116 297.344 13.8461C297.338 13.8507 297.332 13.8554 297.326 13.86C296.982 14.1258 296.728 14.4754 296.497 14.792L296.488 14.8048Z" fill="black" stroke="black" stroke-width="0.5"/>
<path d="M288.341 29.7038L280.968 42.7304L273.847 38.4724L273.84 38.4684L273.833 38.4647C273.505 38.2956 273.088 38.123 272.664 38.0357C272.218 37.944 271.78 38.0343 271.4 38.1127L271.379 38.117C270.927 38.21 270.572 38.4846 270.269 38.719C270.262 38.7237 270.256 38.7284 270.25 38.733C269.897 39.006 269.641 39.3636 269.398 39.7804L269.393 39.7886L269.389 39.7971C269.225 40.1347 269.058 40.5623 268.974 40.9966C268.886 41.451 268.973 41.8983 269.049 42.2912L269.053 42.3112C269.142 42.7726 269.408 43.1366 269.636 43.4503L269.649 43.4674C269.913 43.8309 270.261 44.0951 270.667 44.3458L270.667 44.3458L270.67 44.3478L280.604 50.2743C280.963 50.5463 281.401 50.6364 281.775 50.7134L281.799 50.7182C282.244 50.81 282.682 50.7196 283.063 50.6412L283.084 50.6369C283.535 50.5439 283.891 50.2693 284.194 50.0349L284.212 50.0209C284.556 49.7551 284.811 49.4055 285.041 49.0889L285.051 49.0761L285.059 49.0642L285.067 49.0514L295.802 29.9494L296.011 29.5769H295.584H288.559H288.413L288.341 29.7038Z" fill="black" stroke="black" stroke-width="0.5"/>
<path d="M285.594 84.0145C284.812 84.0145 284.108 83.8462 283.482 83.5094C282.857 83.163 282.363 82.6771 282.001 82.0517C281.649 81.4262 281.473 80.7046 281.473 79.8867C281.473 79.0689 281.654 78.3472 282.016 77.7218C282.387 77.0964 282.891 76.6153 283.526 76.2785C284.162 75.9321 284.871 75.7589 285.653 75.7589C286.435 75.7589 287.144 75.9321 287.779 76.2785C288.415 76.6153 288.913 77.0964 289.275 77.7218C289.646 78.3472 289.832 79.0689 289.832 79.8867C289.832 80.7046 289.642 81.4262 289.26 82.0517C288.889 82.6771 288.38 83.163 287.735 83.5094C287.1 83.8462 286.386 84.0145 285.594 84.0145ZM285.594 82.2537C285.966 82.2537 286.313 82.1671 286.635 81.9939C286.968 81.8111 287.232 81.5417 287.427 81.1857C287.623 80.8297 287.72 80.3967 287.72 79.8867C287.72 79.1266 287.515 78.5445 287.105 78.1403C286.704 77.7266 286.21 77.5197 285.623 77.5197C285.037 77.5197 284.543 77.7266 284.142 78.1403C283.751 78.5445 283.556 79.1266 283.556 79.8867C283.556 80.6469 283.746 81.2338 284.128 81.6475C284.519 82.0517 285.007 82.2537 285.594 82.2537Z" fill="black"/>
<path d="M278.111 77.1301C278.375 76.7068 278.717 76.3748 279.138 76.1343C279.568 75.8937 280.057 75.7734 280.604 75.7734V77.8951H280.062C279.416 77.8951 278.928 78.0442 278.595 78.3425C278.273 78.6408 278.111 79.1604 278.111 79.9013V83.8847H276.058V75.8889H278.111V77.1301Z" fill="black"/>
<path d="M274.032 75.8888V83.8846H271.964V82.8743C271.7 83.2207 271.353 83.4949 270.923 83.697C270.503 83.8894 270.043 83.9857 269.545 83.9857C268.909 83.9857 268.347 83.8558 267.858 83.596C267.369 83.3266 266.983 82.9369 266.7 82.4269C266.426 81.9073 266.289 81.2915 266.289 80.5795V75.8888H268.342V80.2908C268.342 80.9259 268.503 81.4166 268.826 81.763C269.149 82.0998 269.589 82.2681 270.146 82.2681C270.713 82.2681 271.158 82.0998 271.48 81.763C271.803 81.4166 271.964 80.9259 271.964 80.2908V75.8888H274.032Z" fill="black"/>
<path d="M259.464 75.9891C260.07 75.9891 260.603 76.1094 261.062 76.35C261.522 76.5809 261.883 76.884 262.147 77.2592V76.119H264.215V84.1726C264.215 84.9135 264.064 85.5726 263.761 86.1499C263.457 86.7369 263.003 87.1987 262.397 87.5355C261.791 87.8819 261.057 88.0551 260.197 88.0551C259.043 88.0551 258.095 87.7905 257.352 87.2613C256.619 86.732 256.203 86.0104 256.105 85.0963H258.144C258.251 85.4619 258.481 85.7506 258.833 85.9623C259.195 86.1836 259.63 86.2942 260.138 86.2942C260.735 86.2942 261.219 86.1162 261.59 85.7602C261.962 85.4138 262.147 84.8846 262.147 84.1726V82.9314C261.883 83.3066 261.517 83.6193 261.047 83.8695C260.588 84.1197 260.06 84.2448 259.464 84.2448C258.779 84.2448 258.154 84.0716 257.587 83.7252C257.019 83.3788 256.57 82.8929 256.237 82.2675C255.915 81.6324 255.753 80.906 255.753 80.0881C255.753 79.2798 255.915 78.563 256.237 77.9376C256.57 77.3122 257.015 76.8311 257.572 76.4943C258.139 76.1575 258.77 75.9891 259.464 75.9891ZM262.147 80.117C262.147 79.6262 262.05 79.2077 261.854 78.8613C261.659 78.5053 261.395 78.2359 261.062 78.053C260.73 77.8606 260.373 77.7644 259.992 77.7644C259.61 77.7644 259.258 77.8558 258.936 78.0386C258.613 78.2214 258.349 78.4908 258.144 78.8469C257.948 79.1932 257.851 79.607 257.851 80.0881C257.851 80.5692 257.948 80.9926 258.144 81.3582C258.349 81.7142 258.613 81.9884 258.936 82.1809C259.268 82.3733 259.62 82.4695 259.992 82.4695C260.373 82.4695 260.73 82.3781 261.062 82.1953C261.395 82.0029 261.659 81.7334 261.854 81.3871C262.05 81.031 262.147 80.6077 262.147 80.117Z" fill="black"/>
<path d="M254.925 79.7135C254.925 80.0022 254.905 80.262 254.866 80.4929H248.927C248.976 81.0702 249.181 81.5225 249.543 81.8496C249.904 82.1768 250.349 82.3403 250.877 82.3403C251.64 82.3403 252.182 82.018 252.505 81.3733H254.719C254.485 82.1431 254.035 82.7781 253.37 83.2785C252.705 83.7692 251.889 84.0145 250.921 84.0145C250.139 84.0145 249.435 83.8462 248.809 83.5094C248.193 83.163 247.709 82.6771 247.358 82.0517C247.015 81.4262 246.844 80.7046 246.844 79.8867C246.844 79.0592 247.015 78.3328 247.358 77.7074C247.7 77.0819 248.179 76.6008 248.795 76.2641C249.411 75.9273 250.119 75.7589 250.921 75.7589C251.693 75.7589 252.383 75.9225 252.989 76.2496C253.605 76.5768 254.079 77.0434 254.411 77.6496C254.754 78.2462 254.925 78.9342 254.925 79.7135ZM252.798 79.1362C252.788 78.6166 252.598 78.2029 252.226 77.895C251.855 77.5775 251.4 77.4187 250.862 77.4187C250.354 77.4187 249.924 77.5726 249.572 77.8806C249.23 78.1788 249.02 78.5974 248.941 79.1362H252.798Z" fill="black"/>
<path d="M242.491 84.0145C241.826 84.0145 241.23 83.8991 240.702 83.6682C240.174 83.4276 239.753 83.1053 239.441 82.7012C239.137 82.297 238.971 81.8496 238.942 81.3589H241.01C241.049 81.6668 241.2 81.9218 241.464 82.1238C241.738 82.3259 242.075 82.4269 242.476 82.4269C242.867 82.4269 243.17 82.35 243.385 82.196C243.61 82.042 243.723 81.8448 243.723 81.6042C243.723 81.3445 243.586 81.152 243.312 81.0269C243.048 80.8922 242.623 80.7479 242.036 80.5939C241.43 80.4496 240.931 80.3005 240.54 80.1465C240.159 79.9926 239.827 79.7568 239.543 79.4393C239.269 79.1218 239.133 78.6936 239.133 78.1548C239.133 77.7122 239.26 77.308 239.514 76.9424C239.778 76.5768 240.149 76.2881 240.628 76.0764C241.117 75.8648 241.689 75.7589 242.344 75.7589C243.312 75.7589 244.084 75.9995 244.661 76.4806C245.238 76.952 245.556 77.5919 245.615 78.4001H243.649C243.62 78.0826 243.483 77.8324 243.239 77.6496C243.004 77.4572 242.686 77.361 242.286 77.361C241.914 77.361 241.626 77.4283 241.42 77.563C241.225 77.6977 241.127 77.8854 241.127 78.1259C241.127 78.3953 241.264 78.6022 241.538 78.7465C241.811 78.8812 242.237 79.0208 242.813 79.1651C243.4 79.3094 243.884 79.4586 244.265 79.6125C244.647 79.7665 244.974 80.007 245.248 80.3342C245.531 80.6517 245.678 81.075 245.688 81.6042C245.688 82.0661 245.556 82.4798 245.292 82.8455C245.038 83.2111 244.666 83.4998 244.177 83.7115C243.698 83.9135 243.136 84.0145 242.491 84.0145Z" fill="black"/>
<path d="M230.142 84.0145C229.36 84.0145 228.656 83.8462 228.03 83.5094C227.404 83.163 226.911 82.6771 226.549 82.0517C226.197 81.4262 226.021 80.7046 226.021 79.8867C226.021 79.0689 226.202 78.3472 226.564 77.7218C226.935 77.0964 227.439 76.6153 228.074 76.2785C228.71 75.9321 229.418 75.7589 230.201 75.7589C230.983 75.7589 231.691 75.9321 232.327 76.2785C232.962 76.6153 233.461 77.0964 233.823 77.7218C234.194 78.3472 234.38 79.0689 234.38 79.8867C234.38 80.7046 234.189 81.4262 233.808 82.0517C233.437 82.6771 232.928 83.163 232.283 83.5094C231.647 83.8462 230.934 84.0145 230.142 84.0145ZM230.142 82.2537C230.513 82.2537 230.86 82.1671 231.183 81.9939C231.515 81.8111 231.779 81.5417 231.975 81.1857C232.171 80.8297 232.268 80.3967 232.268 79.8867C232.268 79.1266 232.063 78.5445 231.652 78.1403C231.252 77.7266 230.758 77.5197 230.171 77.5197C229.585 77.5197 229.091 77.7266 228.69 78.1403C228.299 78.5445 228.103 79.1266 228.103 79.8867C228.103 80.6469 228.294 81.2338 228.675 81.6475C229.066 82.0517 229.555 82.2537 230.142 82.2537Z" fill="black"/>
<path d="M223.239 77.5487V81.4167C223.239 81.6862 223.303 81.8834 223.43 82.0085C223.567 82.124 223.792 82.1817 224.105 82.1817H225.058V83.8848H223.767C222.037 83.8848 221.172 83.0573 221.172 81.4023V77.5487H220.204V75.8889H221.172V73.9116H223.239V75.8889H225.058V77.5487H223.239Z" fill="black"/>
<path d="M218.823 75.8888V83.8846H216.755V82.8743C216.491 83.2207 216.144 83.4949 215.714 83.697C215.294 83.8894 214.834 83.9857 214.336 83.9857C213.7 83.9857 213.138 83.8558 212.649 83.596C212.16 83.3266 211.774 82.9369 211.491 82.4269C211.217 81.9073 211.08 81.2915 211.08 80.5795V75.8888H213.133V80.2908C213.133 80.9259 213.294 81.4166 213.617 81.763C213.94 82.0998 214.38 82.2681 214.937 82.2681C215.504 82.2681 215.949 82.0998 216.271 81.763C216.594 81.4166 216.755 80.9259 216.755 80.2908V75.8888H218.823Z" fill="black"/>
<path d="M200.688 79.8579C200.688 79.0496 200.849 78.3328 201.171 77.7074C201.504 77.0819 201.949 76.6008 202.506 76.2641C203.073 75.9273 203.704 75.7589 204.398 75.7589C205.004 75.7589 205.532 75.8792 205.982 76.1197C206.441 76.3603 206.808 76.6634 207.081 77.029V75.8888H209.149V83.8847H207.081V82.7156C206.817 83.0908 206.451 83.4036 205.982 83.6537C205.522 83.8943 204.989 84.0145 204.383 84.0145C203.699 84.0145 203.073 83.8414 202.506 83.495C201.949 83.1486 201.504 82.6627 201.171 82.0372C200.849 81.4022 200.688 80.6757 200.688 79.8579ZM207.081 79.8867C207.081 79.396 206.984 78.9775 206.788 78.6311C206.593 78.2751 206.329 78.0056 205.996 77.8228C205.664 77.6304 205.307 77.5342 204.926 77.5342C204.544 77.5342 204.192 77.6256 203.87 77.8084C203.547 77.9912 203.283 78.2606 203.078 78.6166C202.882 78.963 202.785 79.3768 202.785 79.8579C202.785 80.339 202.882 80.7623 203.078 81.128C203.283 81.484 203.547 81.7582 203.87 81.9506C204.202 82.1431 204.554 82.2393 204.926 82.2393C205.307 82.2393 205.664 82.1479 205.996 81.9651C206.329 81.7726 206.593 81.5032 206.788 81.1568C206.984 80.8008 207.081 80.3774 207.081 79.8867Z" fill="black"/>
<path d="M187.253 79.8579C187.253 79.0496 187.415 78.3328 187.737 77.7074C188.07 77.0819 188.515 76.6008 189.072 76.2641C189.639 75.9273 190.27 75.7589 190.964 75.7589C191.57 75.7589 192.098 75.8792 192.547 76.1197C193.007 76.3603 193.374 76.6634 193.647 77.029V75.8888H195.715V83.8847H193.647V82.7156C193.383 83.0908 193.017 83.4036 192.547 83.6537C192.088 83.8943 191.555 84.0145 190.949 84.0145C190.265 84.0145 189.639 83.8414 189.072 83.495C188.515 83.1486 188.07 82.6627 187.737 82.0372C187.415 81.4022 187.253 80.6757 187.253 79.8579ZM193.647 79.8867C193.647 79.396 193.55 78.9775 193.354 78.6311C193.159 78.2751 192.895 78.0056 192.562 77.8228C192.23 77.6304 191.873 77.5342 191.492 77.5342C191.11 77.5342 190.758 77.6256 190.436 77.8084C190.113 77.9912 189.849 78.2606 189.644 78.6166C189.448 78.963 189.351 79.3768 189.351 79.8579C189.351 80.339 189.448 80.7623 189.644 81.128C189.849 81.484 190.113 81.7582 190.436 81.9506C190.768 82.1431 191.12 82.2393 191.492 82.2393C191.873 82.2393 192.23 82.1479 192.562 81.9651C192.895 81.7726 193.159 81.5032 193.354 81.1568C193.55 80.8008 193.647 80.3774 193.647 79.8867Z" fill="black"/>
<path d="M185.753 73.2042V83.8846H183.7V73.2042H185.753Z" fill="black"/>
<path d="M176.943 75.7589C177.549 75.7589 178.082 75.8792 178.541 76.1197C179.001 76.3507 179.362 76.6538 179.626 77.029V75.8888H181.694V83.9424C181.694 84.6833 181.543 85.3424 181.24 85.9197C180.936 86.5066 180.482 86.9685 179.876 87.3053C179.27 87.6516 178.536 87.8248 177.676 87.8248C176.522 87.8248 175.574 87.5602 174.831 87.031C174.098 86.5018 173.682 85.7802 173.584 84.8661H175.623C175.73 85.2317 175.96 85.5204 176.312 85.7321C176.674 85.9534 177.109 86.064 177.617 86.064C178.214 86.064 178.698 85.886 179.069 85.53C179.441 85.1836 179.626 84.6544 179.626 83.9424V82.7011C179.362 83.0764 178.996 83.3891 178.527 83.6393C178.067 83.8895 177.539 84.0145 176.943 84.0145C176.258 84.0145 175.633 83.8414 175.066 83.495C174.499 83.1486 174.049 82.6627 173.716 82.0372C173.394 81.4022 173.232 80.6757 173.232 79.8579C173.232 79.0496 173.394 78.3328 173.716 77.7074C174.049 77.0819 174.494 76.6008 175.051 76.2641C175.618 75.9273 176.249 75.7589 176.943 75.7589ZM179.626 79.8867C179.626 79.396 179.529 78.9775 179.333 78.6311C179.138 78.2751 178.874 78.0056 178.541 77.8228C178.209 77.6304 177.852 77.5342 177.471 77.5342C177.089 77.5342 176.737 77.6256 176.415 77.8084C176.092 77.9912 175.828 78.2606 175.623 78.6166C175.427 78.963 175.33 79.3768 175.33 79.8579C175.33 80.339 175.427 80.7623 175.623 81.128C175.828 81.484 176.092 81.7582 176.415 81.9506C176.747 82.1431 177.099 82.2393 177.471 82.2393C177.852 82.2393 178.209 82.1479 178.541 81.9651C178.874 81.7726 179.138 81.5032 179.333 81.1568C179.529 80.8008 179.626 80.3774 179.626 79.8867Z" fill="black"/>
<path d="M172.262 79.7135C172.262 80.0022 172.243 80.262 172.203 80.4929H166.264C166.313 81.0702 166.518 81.5225 166.88 81.8496C167.242 82.1768 167.687 82.3403 168.215 82.3403C168.977 82.3403 169.52 82.018 169.842 81.3733H172.057C171.822 82.1431 171.372 82.7781 170.708 83.2785C170.043 83.7692 169.226 84.0145 168.259 84.0145C167.476 84.0145 166.772 83.8462 166.147 83.5094C165.531 83.163 165.047 82.6771 164.695 82.0517C164.353 81.4262 164.182 80.7046 164.182 79.8867C164.182 79.0592 164.353 78.3328 164.695 77.7074C165.037 77.0819 165.516 76.6008 166.132 76.2641C166.748 75.9273 167.457 75.7589 168.259 75.7589C169.031 75.7589 169.72 75.9225 170.326 76.2496C170.942 76.5768 171.416 77.0434 171.749 77.6496C172.091 78.2462 172.262 78.9342 172.262 79.7135ZM170.136 79.1362C170.126 78.6166 169.935 78.2029 169.564 77.895C169.192 77.5775 168.738 77.4187 168.2 77.4187C167.691 77.4187 167.261 77.5726 166.909 77.8806C166.567 78.1788 166.357 78.5974 166.279 79.1362H170.136Z" fill="black"/>
<path d="M160.833 77.1301C161.097 76.7068 161.44 76.3748 161.86 76.1343C162.29 75.8937 162.779 75.7734 163.326 75.7734V77.8951H162.784C162.139 77.8951 161.65 78.0442 161.317 78.3425C160.995 78.6408 160.833 79.1604 160.833 79.9013V83.8847H158.78V75.8889H160.833V77.1301Z" fill="black"/>
<path d="M150.092 75.7734C151.06 75.7734 151.842 76.0765 152.438 76.6827C153.035 77.2793 153.333 78.1164 153.333 79.194V83.8847H151.28V79.4683C151.28 78.8332 151.119 78.3473 150.796 78.0105C150.473 77.6642 150.033 77.491 149.476 77.491C148.909 77.491 148.459 77.6642 148.127 78.0105C147.804 78.3473 147.643 78.8332 147.643 79.4683V83.8847H145.59V75.8889H147.643V76.8848C147.917 76.5384 148.264 76.269 148.684 76.0765C149.114 75.8745 149.584 75.7734 150.092 75.7734Z" fill="black"/>
<path d="M144.092 79.7135C144.092 80.0022 144.073 80.262 144.033 80.4929H138.094C138.143 81.0702 138.348 81.5225 138.71 81.8496C139.072 82.1768 139.517 82.3403 140.045 82.3403C140.807 82.3403 141.35 82.018 141.672 81.3733H143.887C143.652 82.1431 143.202 82.7781 142.538 83.2785C141.873 83.7692 141.056 84.0145 140.089 84.0145C139.306 84.0145 138.603 83.8462 137.977 83.5094C137.361 83.163 136.877 82.6771 136.525 82.0517C136.183 81.4262 136.012 80.7046 136.012 79.8867C136.012 79.0592 136.183 78.3328 136.525 77.7074C136.867 77.0819 137.346 76.6008 137.962 76.2641C138.578 75.9273 139.287 75.7589 140.089 75.7589C140.861 75.7589 141.55 75.9225 142.156 76.2496C142.772 76.5768 143.246 77.0434 143.579 77.6496C143.921 78.2462 144.092 78.9342 144.092 79.7135ZM141.966 79.1362C141.956 78.6166 141.765 78.2029 141.394 77.895C141.022 77.5775 140.568 77.4187 140.03 77.4187C139.522 77.4187 139.091 77.5726 138.739 77.8806C138.397 78.1788 138.187 78.5974 138.109 79.1362H141.966Z" fill="black"/>
<path d="M127.301 84.0145C126.519 84.0145 125.815 83.8462 125.189 83.5094C124.564 83.163 124.07 82.6771 123.708 82.0517C123.356 81.4262 123.18 80.7046 123.18 79.8867C123.18 79.0689 123.361 78.3472 123.723 77.7218C124.094 77.0964 124.598 76.6153 125.233 76.2785C125.869 75.9321 126.578 75.7589 127.36 75.7589C128.142 75.7589 128.851 75.9321 129.486 76.2785C130.122 76.6153 130.62 77.0964 130.982 77.7218C131.353 78.3472 131.539 79.0689 131.539 79.8867C131.539 80.7046 131.349 81.4262 130.967 82.0517C130.596 82.6771 130.087 83.163 129.442 83.5094C128.807 83.8462 128.093 84.0145 127.301 84.0145ZM127.301 82.2537C127.673 82.2537 128.02 82.1671 128.342 81.9939C128.675 81.8111 128.939 81.5417 129.134 81.1857C129.33 80.8297 129.427 80.3967 129.427 79.8867C129.427 79.1266 129.222 78.5445 128.812 78.1403C128.411 77.7266 127.917 77.5197 127.33 77.5197C126.744 77.5197 126.25 77.7266 125.849 78.1403C125.458 78.5445 125.263 79.1266 125.263 79.8867C125.263 80.6469 125.453 81.2338 125.835 81.6475C126.226 82.0517 126.714 82.2537 127.301 82.2537Z" fill="black"/>
<path d="M120.398 77.5487V81.4167C120.398 81.6862 120.462 81.8834 120.589 82.0085C120.725 82.124 120.95 82.1817 121.263 82.1817H122.216V83.8848H120.926C119.195 83.8848 118.33 83.0573 118.33 81.4023V77.5487H117.362V75.8889H118.33V73.9116H120.398V75.8889H122.216V77.5487H120.398Z" fill="black"/>
<path d="M115.982 75.8888V83.8846H113.914V82.8743C113.65 83.2207 113.303 83.4949 112.873 83.697C112.453 83.8894 111.993 83.9857 111.494 83.9857C110.859 83.9857 110.297 83.8558 109.808 83.596C109.319 83.3266 108.933 82.9369 108.649 82.4269C108.376 81.9073 108.239 81.2915 108.239 80.5795V75.8888H110.292V80.2908C110.292 80.9259 110.453 81.4166 110.776 81.763C111.098 82.0998 111.538 82.2681 112.096 82.2681C112.663 82.2681 113.108 82.0998 113.43 81.763C113.753 81.4166 113.914 80.9259 113.914 80.2908V75.8888H115.982Z" fill="black"/>
<path d="M104.091 81.9653H100.014L99.3398 83.8849H97.1841L100.865 73.7963H103.255L106.936 83.8849H104.766L104.091 81.9653ZM103.534 80.3488L102.053 76.1344L100.572 80.3488H103.534Z" fill="black"/>
</svg>
