<svg width="337" height="89" viewBox="0 0 337 89" fill="none" xmlns="http://www.w3.org/2000/svg">
<path d="M68.4055 9.62941L65.2791 13.0748L62.2023 16.4636L58.7073 20.3202C58.6151 20.2493 58.53 20.1784 58.445 20.0933C57.2469 18.8952 57.2469 16.9456 58.445 15.7404L60.1889 13.9965L64.315 9.87045C64.9034 9.28203 65.6974 8.96301 66.4914 8.96301C66.938 8.96301 67.3917 9.06226 67.81 9.26077C68.0227 9.36711 68.2212 9.48763 68.3984 9.62941H68.4055Z" fill="#3D63AE"/>
<path d="M68.4055 9.62941L65.2791 13.0748L62.2023 16.4636L58.7073 20.3202C58.6151 20.2493 58.53 20.1784 58.445 20.0933C57.2469 18.8952 57.2469 16.9456 58.445 15.7404L60.1889 13.9965L64.315 9.87045C64.9034 9.28203 65.6974 8.96301 66.4914 8.96301C66.938 8.96301 67.3917 9.06226 67.81 9.26077C68.0227 9.36711 68.2212 9.48763 68.3984 9.62941H68.4055Z" fill="#3D63AE"/>
<path d="M56.9423 51.3833C56.9706 52.6664 55.9498 53.7086 54.6737 53.7086H22.1831L24.9125 49.1785H54.5744C55.8151 49.1785 56.9068 50.1426 56.9423 51.3833Z" fill="white"/>
<path d="M63.4061 10.7761L61.7614 8.76269C61.6409 8.62091 61.5203 8.47912 61.3927 8.34442C60.0174 6.88401 58.1104 6.06165 56.0899 6.06165H26.7754C24.5068 6.06165 22.3304 7.13923 20.9479 8.94702L10.8314 22.2254L7.39307 26.7342H9.8389L11.9657 28.2088L14.7093 24.6003L24.5493 11.6906C25.0739 11.0029 25.9105 10.5917 26.7754 10.5917H56.0828C56.9264 10.5917 57.7134 10.9675 58.2521 11.6197L58.3301 11.7119L60.1875 13.9876L62.2009 16.4617L65.2777 13.073L63.4061 10.7761Z" fill="white"/>
<path d="M81.3993 35.4623V53.4339C81.3993 55.3551 80.662 57.1629 79.3221 58.5382L78.5778 59.3038C77.2095 60.7146 75.2954 61.5228 73.3316 61.5228H70.5951C68.1706 61.5228 65.9091 60.3318 64.5479 58.3326L55.9698 45.7702C55.4523 45.0046 54.5874 44.5509 53.6586 44.5509H29.2854C28.3142 44.5509 27.3996 45.0684 26.8963 45.8979L24.9184 49.1802L22.189 53.7103L19.6084 57.9852C18.2898 60.1687 15.8865 61.5228 13.3343 61.5228H9.93855C7.98188 61.5228 6.14574 60.7643 4.75622 59.3818C3.3738 57.9994 2.61523 56.1562 2.61523 54.1995V35.5049C2.61523 33.9097 3.14694 32.3359 4.11109 31.0669L7.40055 26.7424H9.84638L11.9732 28.217L7.71249 33.8105C7.34384 34.2926 7.13825 34.8952 7.13825 35.5049V54.1995C7.13825 54.9439 7.42891 55.6457 7.96061 56.1774C8.48523 56.702 9.18707 56.9998 9.93855 56.9998H13.3343C14.3056 56.9998 15.2272 56.4823 15.7235 55.6457L19.02 50.1798L23.0113 43.5655C24.33 41.3819 26.7332 40.0208 29.2854 40.0208H53.6657C56.0903 40.0208 58.3518 41.2189 59.713 43.2181L68.2911 55.7804C68.8086 56.5461 69.6735 56.9998 70.6022 56.9998H73.3387C74.0831 56.9998 74.8204 56.6879 75.3379 56.1562L76.0823 55.3905C76.5927 54.8659 76.8692 54.1711 76.8692 53.4409V35.4694C76.8692 34.8314 76.6424 34.2004 76.2383 33.7042L70.6022 28.217L73.9683 25.4233L79.7475 30.8471C80.8109 32.1445 81.3922 33.7892 81.3922 35.4765L81.3993 35.4623Z" fill="white"/>
<path d="M47.6902 32.4716L44.7764 35.6759C44.2802 36.2218 43.6776 36.633 43.0324 36.8882C42.9261 36.9308 42.8198 36.9662 42.7063 37.0017H25.3303C24.8695 37.0017 24.4158 36.867 24.04 36.6047L11.9668 28.225L9.84004 26.7504H2.2686C1.02087 26.7504 0 25.7367 0 24.4818C0 23.227 1.01378 22.2203 2.2686 22.2203H10.549C10.6411 22.2203 10.7404 22.2274 10.8325 22.2416C11.1941 22.2841 11.5415 22.4188 11.8463 22.6244L14.7175 24.6165L26.0463 32.4716H47.6902Z" fill="white"/>
<path d="M84.0091 24.4737C84.0091 25.1118 83.7468 25.686 83.3215 26.0972C82.9174 26.4942 82.3573 26.7352 81.7405 26.7352H74.162L71.8651 28.3233L70.2061 29.4717L59.9549 36.5824C59.5721 36.8447 59.1255 36.9794 58.6647 36.9794H47.2153L51.7454 32.4493H57.9557L68.9939 24.7927L64.088 18.7739L67.3066 15.5482L72.7938 22.2831C73.0064 22.2193 73.2262 22.191 73.446 22.191H81.7334C82.9812 22.191 84.002 23.2047 84.002 24.4525L84.0091 24.4737Z" fill="white"/>
<path d="M68.4055 9.62978L65.2791 13.0752L62.2023 16.4639L58.7073 20.3205C58.6151 20.2496 58.53 20.1788 58.445 20.0937C57.2469 18.8956 57.2469 16.946 58.445 15.7408L60.1889 13.9968L64.315 9.87082C64.9034 9.2824 65.6974 8.96338 66.4914 8.96338C66.938 8.96338 67.3917 9.06263 67.81 9.26113C68.0227 9.36747 68.2212 9.48799 68.3984 9.62978H68.4055Z" fill="#3D63AE"/>
<path d="M52.7586 26.8776L47.6826 32.4711L44.7689 35.6755C44.2726 36.2214 43.67 36.6326 43.0249 36.8878C42.9186 36.9303 42.8122 36.9658 42.6988 37.0012C42.6279 37.0225 42.557 37.0438 42.4861 37.065C42.4649 37.0438 42.4507 37.0225 42.4294 37.0012C41.4369 35.789 41.5007 34.0024 42.635 32.8681L43.032 32.4711L48.5121 26.9911C49.1005 26.4026 49.8874 26.0836 50.6885 26.0836C51.1351 26.0836 51.5818 26.1829 52.0071 26.3814C52.2836 26.5161 52.5388 26.6862 52.7515 26.8705L52.7586 26.8776Z" fill="#3D63AE"/>
<path d="M74.0589 5.88601L70.6631 9.6292L67.5366 13.0746L64.4599 16.4633L60.9648 20.32L55.0239 26.8705L49.9479 32.464L47.0342 35.6684C46.538 36.2143 45.9354 36.6255 45.2902 36.8807C45.1839 36.9232 45.0775 36.9587 44.9641 36.9941C44.8932 37.0154 44.8223 37.0367 44.7514 37.0579C43.9362 37.2706 43.0712 37.2494 42.256 36.9941C41.6676 36.8098 41.1004 36.505 40.5971 36.0725L36.4143 32.4711L28.7436 25.8638C27.4746 24.7721 27.3329 22.865 28.4246 21.596C29.5164 20.327 31.4234 20.1853 32.6924 21.277L43.4966 30.5783L60.5962 11.7276L63.6588 8.35311L69.5855 1.81672C70.7127 0.583169 72.6268 0.483918 73.8604 1.61113C75.101 2.73125 75.1932 4.64537 74.073 5.88601H74.0589Z" fill="#25D366"/>
<path d="M329.119 23.5178C328.063 22.2717 326.755 21.2165 325.146 20.352C323.289 19.3543 321.195 18.8591 318.713 18.8591C315.981 18.8591 313.489 19.6048 311.164 21.0085L311.163 21.0091C308.991 22.3343 307.306 24.1547 305.947 26.4604L305.724 26.8374H306.162H314.687H314.748L314.802 26.8096C315.129 26.6411 315.375 26.4724 315.61 26.3116C316.998 25.5187 318.453 25.0491 320.055 25.0491C321.666 25.0491 323.118 25.4427 324.496 26.3086L324.847 26.5496L325.202 26.7935L325.266 26.8374H325.344H335.842H336.092V26.5874V19.5968V19.3468H335.842H329.369H329.119V19.5968V23.5178Z" fill="white" stroke="white" stroke-width="0.5"/>
<path d="M312.305 40.943L312.305 40.943L312.303 40.9386C311.459 39.3587 311.069 37.4511 311.069 35.2851C311.069 33.6096 311.379 32.0967 311.92 30.7447L312.057 30.4019H311.688H304.82H304.621L304.576 30.5962C304.258 31.9911 304.018 33.5548 304.018 35.2851C304.018 38.4899 304.656 41.3726 305.937 44.0105L305.937 44.0106L305.941 44.0189C307.301 46.5718 309.066 48.5577 311.318 49.9659C313.567 51.3715 316.059 52.1173 318.713 52.1173C321.116 52.1173 323.288 51.622 325.221 50.6264C326.905 49.7596 328.222 48.6404 329.277 47.3808V51.3796V51.6296H329.527H336H336.25V51.3796V30.6519V30.4019H336H328.58H328.218L328.346 30.7402C328.889 32.1764 329.198 33.6909 329.198 35.4477C329.198 37.6064 328.733 39.5159 327.886 41.1012C327.035 42.6936 325.961 43.8745 324.588 44.6598C323.197 45.4557 321.739 45.9273 320.134 45.9273C318.599 45.9273 317.067 45.5323 315.689 44.6652C314.304 43.7939 313.152 42.6079 312.305 40.943Z" fill="white" stroke="white" stroke-width="0.5"/>
<path d="M255.156 23.4897C254.135 22.2512 252.774 21.2067 251.183 20.352C249.325 19.354 247.152 18.8591 244.75 18.8591C242.017 18.8591 239.526 19.6048 237.2 21.0085L237.199 21.0091C235.028 22.3343 233.343 24.1547 231.983 26.4604L231.761 26.8374H232.199H240.724H240.801L240.865 26.7935C240.975 26.7181 241.105 26.6414 241.245 26.559L241.25 26.5564C241.382 26.4788 241.522 26.3959 241.646 26.3117C243.035 25.5187 244.489 25.0491 246.092 25.0491C247.703 25.0491 249.155 25.4427 250.533 26.3086L250.884 26.5496L251.239 26.7935L251.303 26.8374H251.38H261.879H262.129V26.5874V19.5968V19.3468H261.879H255.406H255.156V19.5968V23.4897Z" fill="white" stroke="white" stroke-width="0.5"/>
<path d="M238.263 40.943L238.263 40.943L238.261 40.9386C237.417 39.3587 237.027 37.4511 237.027 35.2851C237.027 33.6096 237.337 32.0967 237.878 30.7447L238.015 30.4019H237.646H230.778H230.579L230.534 30.5962C230.216 31.9911 229.976 33.5548 229.976 35.2851C229.976 38.4899 230.614 41.3726 231.895 44.0105L231.895 44.0106L231.899 44.0189C233.259 46.5718 235.024 48.5577 237.276 49.9659C239.526 51.3727 242.098 52.1173 244.829 52.1173C247.233 52.1173 249.327 51.6218 251.183 50.6244L251.183 50.6244L251.187 50.6225C252.86 49.689 254.177 48.6258 255.235 47.3235V51.8673C255.235 54.9152 254.457 57.2007 252.938 58.7649C251.413 60.3356 249.428 61.1277 246.881 61.1277C244.708 61.1277 242.865 60.6486 241.337 59.6255L241.337 59.6254L241.329 59.6206C239.802 58.6772 238.815 57.3458 238.359 55.7804L238.307 55.6003H238.119H231.804H231.524L231.556 55.8783C231.958 59.4431 233.574 62.1883 236.392 64.2615C239.205 66.3306 242.733 67.3989 246.96 67.3989C250.151 67.3989 252.88 66.7417 255.137 65.4145C257.466 64.0908 259.237 62.2675 260.444 59.8657C261.647 57.5518 262.287 54.9112 262.287 51.9486V30.6519V30.4019H262.037H254.538H254.169L254.306 30.7447C254.846 32.0946 255.156 33.6885 255.156 35.4477C255.156 37.6064 254.691 39.5159 253.844 41.1012C252.993 42.6936 251.919 43.8745 250.546 44.6598C249.155 45.4557 247.697 45.9273 246.092 45.9273C244.557 45.9273 243.025 45.5323 241.647 44.6652C240.262 43.7939 239.11 42.6079 238.263 40.943Z" fill="white" stroke="white" stroke-width="0.5"/>
<path d="M200.191 38.2175H223.437H223.65L223.684 38.0075C223.844 37.0166 223.924 35.9463 223.924 34.7161C223.924 33.3158 223.764 31.9185 223.525 30.6071L223.488 30.4019H223.279H216.806H216.524L216.558 30.682C216.627 31.2489 216.694 31.8025 216.71 32.3527H200.197C200.28 31.7516 200.414 31.2079 200.549 30.7187L200.637 30.4019H200.309H193.836H193.632L193.591 30.6018C193.273 32.1543 193.033 33.717 193.033 35.4477C193.033 38.7305 193.671 41.7006 195.038 44.1844C196.399 46.6582 198.244 48.6428 200.574 50.0492L200.577 50.0511C202.988 51.4579 205.638 52.1173 208.676 52.1173C212.35 52.1173 215.406 51.2117 217.905 49.3023C220.392 47.4022 222.159 44.9214 223.122 41.9462L223.228 41.6192H222.884H216.017H215.86L215.792 41.76C215.099 43.187 214.162 44.2659 212.994 44.9894C211.826 45.713 210.413 46.0899 208.755 46.0899C206.442 46.0899 204.453 45.3774 202.847 43.881C201.303 42.4424 200.459 40.5625 200.191 38.2175Z" fill="white" stroke="white" stroke-width="0.5"/>
<path d="M213.964 26.7803L214.033 26.8374H214.123H221.621H222.039L221.842 26.4693C220.557 24.0716 218.709 22.1684 216.46 20.8445L216.46 20.8445L216.456 20.8426C214.125 19.5184 211.477 18.8591 208.518 18.8591C205.481 18.8591 202.752 19.5179 200.34 20.9253L200.34 20.9258C198.09 22.2498 196.323 24.0707 194.96 26.4637L194.748 26.8374H195.178H202.914H203.003L203.072 26.7803C204.606 25.5168 206.366 24.8865 208.36 24.8865C210.597 24.8865 212.434 25.5204 213.964 26.7803Z" fill="white" stroke="white" stroke-width="0.5"/>
<path d="M187.205 26.1871H187.455V25.9371V19.1091V18.8591H187.205C185.033 18.8591 183.175 19.3566 181.556 20.2734L181.556 20.2734L181.551 20.2762C180.251 21.0514 179.123 22.0668 178.219 23.3715V19.5968V19.3468H177.969H171.575H171.325V19.5968V26.5874V26.8374H171.575H181.758H181.806L181.85 26.8198C182.843 26.4266 184.074 26.1871 185.547 26.1871H187.205Z" fill="white" stroke="white" stroke-width="0.5"/>
<path d="M171.247 51.3796V51.6296H171.497H177.891H178.141V51.3796V34.6348C178.141 33.0237 178.298 31.7492 178.604 30.7234L178.7 30.4019H178.365H171.497H171.247V30.6519V51.3796Z" fill="white" stroke="white" stroke-width="0.5"/>
<path d="M156.801 51.3796V51.6296H157.051H163.366H163.616V51.3796V32.684C163.616 31.9373 163.535 31.2744 163.457 30.627L163.456 30.6217L163.429 30.4019H163.208H156.656H156.323L156.416 30.7218C156.646 31.5098 156.801 32.5428 156.801 33.6594V51.3796Z" fill="white" stroke="white" stroke-width="0.5"/>
<path d="M154.277 26.7724L154.349 26.8374H154.446H162.339H162.683L162.577 26.5104C162.411 25.997 162.163 25.571 161.929 25.1695L161.926 25.1642C160.8 23.0949 159.268 21.516 157.33 20.4352C155.391 19.3538 153.137 18.8591 150.736 18.8591C148.889 18.8591 147.118 19.19 145.425 19.9371L145.425 19.9371L145.421 19.939C144.027 20.585 142.812 21.4798 141.829 22.5707V19.5968V19.3468H141.579H135.185H134.935V19.5968V26.5874V26.8374H135.185H144.184H144.28L144.352 26.7724C145.638 25.6036 147.31 25.0491 149.315 25.0491C151.397 25.0491 152.99 25.6029 154.277 26.7724Z" fill="white" stroke="white" stroke-width="0.5"/>
<path d="M134.935 51.3796V51.6296H135.185H141.579H141.829V51.3796V33.6594C141.829 32.6253 141.984 31.5861 142.141 30.6953L142.193 30.4019H141.895H135.185H134.935V30.6519V51.3796Z" fill="white" stroke="white" stroke-width="0.5"/>
<path d="M104.757 38.2175H127.924H128.137L128.171 38.0075C128.331 37.0166 128.411 35.9463 128.411 34.7161C128.411 33.3158 128.251 31.9185 128.012 30.6071L127.974 30.4019H127.766H121.293H121.011L121.045 30.682C121.114 31.2489 121.181 31.8025 121.197 32.3527H104.683C104.767 31.7516 104.901 31.2079 105.036 30.7187L105.124 30.4019H104.795H98.3226H98.1185L98.0776 30.6018C97.7602 32.1543 97.52 33.717 97.52 35.4477C97.52 38.7305 98.1575 41.7006 99.5244 44.1844C100.886 46.6587 102.732 48.6443 105.143 50.0511C107.554 51.4579 110.203 52.1173 113.242 52.1173C116.916 52.1173 119.972 51.2117 122.471 49.3023C124.958 47.4022 126.725 44.9214 127.688 41.9462L127.794 41.6192H127.45H120.583H120.426L120.358 41.76C119.665 43.187 118.728 44.2659 117.56 44.9894C116.392 45.713 114.979 46.0899 113.32 46.0899C111.008 46.0899 109.019 45.3774 107.413 43.881C105.869 42.4424 105.025 40.5625 104.757 38.2175Z" fill="white" stroke="white" stroke-width="0.5"/>
<path d="M118.45 26.7803L118.52 26.8374H118.609H126.108H126.526L126.329 26.4693C125.044 24.0716 123.196 22.1684 120.946 20.8445L120.946 20.8445L120.943 20.8426C118.612 19.5184 115.964 18.8591 113.005 18.8591C109.968 18.8591 107.239 19.5179 104.827 20.9253L104.827 20.9258C102.576 22.2498 100.81 24.0707 99.4473 26.4637L99.2346 26.8374H99.6646H107.4H107.49L107.559 26.7803C109.093 25.5168 110.852 24.8865 112.847 24.8865C115.084 24.8865 116.921 25.5204 118.45 26.7803Z" fill="white" stroke="white" stroke-width="0.5"/>
<path d="M296.488 15.6298L296.478 15.6428L296.47 15.6569L290.55 26.4678L290.348 26.8379H290.77H297.795H297.942L298.014 26.7089L302.19 19.1626C302.446 18.8059 302.618 18.361 302.623 17.8329C302.704 17.3867 302.619 16.9481 302.544 16.5621L302.54 16.5421C302.45 16.0819 302.188 15.6399 301.944 15.3046C301.681 14.9444 301.338 14.6816 300.937 14.4329C300.577 14.1598 300.138 14.0696 299.763 13.9925C299.755 13.9909 299.748 13.9893 299.74 13.9877C299.294 13.8959 298.856 13.9862 298.476 14.0647L298.455 14.0689C298.003 14.162 297.648 14.4366 297.344 14.671C297.338 14.6757 297.332 14.6803 297.326 14.6849C296.982 14.9507 296.728 15.3004 296.497 15.6169L296.488 15.6298Z" fill="white" stroke="white" stroke-width="0.5"/>
<path d="M288.341 30.5287L280.968 43.5554L273.847 39.2974L273.84 39.2933L273.833 39.2897C273.505 39.1206 273.088 38.948 272.664 38.8607C272.218 38.7689 271.78 38.8592 271.4 38.9377L271.379 38.9419C270.927 39.035 270.572 39.3096 270.269 39.544C270.262 39.5486 270.256 39.5533 270.25 39.5579C269.897 39.8309 269.641 40.1885 269.398 40.6054L269.393 40.6135L269.389 40.622C269.225 40.9596 269.058 41.3873 268.974 41.8216C268.886 42.2759 268.973 42.7233 269.049 43.1162L269.053 43.1362C269.142 43.5975 269.408 43.9615 269.636 44.2753L269.649 44.2924C269.913 44.6558 270.261 44.92 270.667 45.1707L270.667 45.1708L270.67 45.1727L280.604 51.0992C280.963 51.3713 281.401 51.4614 281.775 51.5384L281.799 51.5432C282.244 51.6349 282.682 51.5446 283.063 51.4662L283.084 51.4619C283.535 51.3689 283.891 51.0943 284.194 50.8598L284.212 50.8459C284.556 50.5801 284.811 50.2304 285.041 49.9139L285.051 49.9011L285.059 49.8892L285.067 49.8764L295.802 30.7743L296.011 30.4019H295.584H288.559H288.413L288.341 30.5287Z" fill="white" stroke="white" stroke-width="0.5"/>
<path d="M285.594 84.8395C284.812 84.8395 284.108 84.6711 283.482 84.3343C282.857 83.988 282.363 83.502 282.001 82.8766C281.649 82.2512 281.473 81.5295 281.473 80.7117C281.473 79.8938 281.654 79.1722 282.016 78.5467C282.387 77.9213 282.891 77.4402 283.526 77.1034C284.162 76.7571 284.871 76.5839 285.653 76.5839C286.435 76.5839 287.144 76.7571 287.779 77.1034C288.415 77.4402 288.913 77.9213 289.275 78.5467C289.646 79.1722 289.832 79.8938 289.832 80.7117C289.832 81.5295 289.642 82.2512 289.26 82.8766C288.889 83.502 288.38 83.988 287.735 84.3343C287.1 84.6711 286.386 84.8395 285.594 84.8395ZM285.594 83.0787C285.966 83.0787 286.313 82.9921 286.635 82.8189C286.968 82.6361 287.232 82.3667 287.427 82.0106C287.623 81.6546 287.72 81.2216 287.72 80.7117C287.72 79.9515 287.515 79.3694 287.105 78.9653C286.704 78.5516 286.21 78.3447 285.623 78.3447C285.037 78.3447 284.543 78.5516 284.142 78.9653C283.751 79.3694 283.556 79.9515 283.556 80.7117C283.556 81.4718 283.746 82.0588 284.128 82.4725C284.519 82.8766 285.007 83.0787 285.594 83.0787Z" fill="white"/>
<path d="M278.111 77.9551C278.375 77.5317 278.717 77.1998 279.138 76.9592C279.568 76.7187 280.057 76.5984 280.604 76.5984V78.72H280.062C279.416 78.72 278.928 78.8692 278.595 79.1675C278.273 79.4657 278.111 79.9853 278.111 80.7262V84.7097H276.058V76.7139H278.111V77.9551Z" fill="white"/>
<path d="M274.032 76.7137V84.7096H271.964V83.6993C271.7 84.0457 271.353 84.3199 270.923 84.522C270.503 84.7144 270.043 84.8106 269.545 84.8106C268.909 84.8106 268.347 84.6807 267.858 84.4209C267.369 84.1515 266.983 83.7618 266.7 83.2519C266.426 82.7323 266.289 82.1165 266.289 81.4044V76.7137H268.342V81.1158C268.342 81.7508 268.503 82.2416 268.826 82.5879C269.149 82.9247 269.589 83.0931 270.146 83.0931C270.713 83.0931 271.158 82.9247 271.48 82.5879C271.803 82.2416 271.964 81.7508 271.964 81.1158V76.7137H274.032Z" fill="white"/>
<path d="M259.464 76.8141C260.07 76.8141 260.603 76.9344 261.062 77.1749C261.522 77.4058 261.883 77.7089 262.147 78.0842V76.944H264.215V84.9976C264.215 85.7384 264.064 86.3976 263.761 86.9749C263.457 87.5618 263.003 88.0237 262.397 88.3604C261.791 88.7068 261.057 88.88 260.197 88.88C259.043 88.88 258.095 88.6154 257.352 88.0862C256.619 87.557 256.203 86.8354 256.105 85.9213H258.144C258.251 86.2869 258.481 86.5756 258.833 86.7872C259.195 87.0085 259.63 87.1192 260.138 87.1192C260.735 87.1192 261.219 86.9412 261.59 86.5852C261.962 86.2388 262.147 85.7096 262.147 84.9976V83.7563C261.883 84.1316 261.517 84.4443 261.047 84.6945C260.588 84.9446 260.06 85.0697 259.464 85.0697C258.779 85.0697 258.154 84.8965 257.587 84.5501C257.019 84.2037 256.57 83.7178 256.237 83.0924C255.915 82.4574 255.753 81.7309 255.753 80.913C255.753 80.1048 255.915 79.388 256.237 78.7625C256.57 78.1371 257.015 77.656 257.572 77.3192C258.139 76.9825 258.77 76.8141 259.464 76.8141ZM262.147 80.9419C262.147 80.4512 262.05 80.0326 261.854 79.6862C261.659 79.3302 261.395 79.0608 261.062 78.878C260.73 78.6856 260.373 78.5893 259.992 78.5893C259.61 78.5893 259.258 78.6807 258.936 78.8636C258.613 79.0464 258.349 79.3158 258.144 79.6718C257.948 80.0182 257.851 80.4319 257.851 80.913C257.851 81.3941 257.948 81.8175 258.144 82.1831C258.349 82.5392 258.613 82.8134 258.936 83.0058C259.268 83.1983 259.62 83.2945 259.992 83.2945C260.373 83.2945 260.73 83.2031 261.062 83.0202C261.395 82.8278 261.659 82.5584 261.854 82.212C262.05 81.856 262.147 81.4326 262.147 80.9419Z" fill="white"/>
<path d="M254.925 80.5385C254.925 80.8271 254.905 81.0869 254.866 81.3179H248.927C248.976 81.8952 249.181 82.3474 249.543 82.6746C249.904 83.0017 250.349 83.1653 250.877 83.1653C251.64 83.1653 252.182 82.8429 252.505 82.1983H254.719C254.485 82.968 254.035 83.6031 253.37 84.1034C252.705 84.5941 251.889 84.8395 250.921 84.8395C250.139 84.8395 249.435 84.6711 248.809 84.3343C248.193 83.988 247.709 83.502 247.358 82.8766C247.015 82.2512 246.844 81.5295 246.844 80.7117C246.844 79.8842 247.015 79.1577 247.358 78.5323C247.7 77.9069 248.179 77.4258 248.795 77.089C249.411 76.7522 250.119 76.5839 250.921 76.5839C251.693 76.5839 252.383 76.7474 252.989 77.0746C253.605 77.4017 254.079 77.8684 254.411 78.4746C254.754 79.0711 254.925 79.7591 254.925 80.5385ZM252.798 79.9612C252.788 79.4416 252.598 79.0278 252.226 78.7199C251.855 78.4024 251.4 78.2436 250.862 78.2436C250.354 78.2436 249.924 78.3976 249.572 78.7055C249.23 79.0038 249.02 79.4223 248.941 79.9612H252.798Z" fill="white"/>
<path d="M242.491 84.8395C241.826 84.8395 241.23 84.724 240.702 84.4931C240.174 84.2526 239.753 83.9302 239.441 83.5261C239.137 83.122 238.971 82.6746 238.942 82.1838H241.01C241.049 82.4917 241.2 82.7467 241.464 82.9488C241.738 83.1508 242.075 83.2519 242.476 83.2519C242.867 83.2519 243.17 83.1749 243.385 83.0209C243.61 82.867 243.723 82.6697 243.723 82.4292C243.723 82.1694 243.586 81.977 243.312 81.8519C243.048 81.7172 242.623 81.5728 242.036 81.4189C241.43 81.2746 240.931 81.1254 240.54 80.9715C240.159 80.8175 239.827 80.5818 239.543 80.2643C239.269 79.9467 239.133 79.5186 239.133 78.9797C239.133 78.5371 239.26 78.133 239.514 77.7674C239.778 77.4017 240.149 77.1131 240.628 76.9014C241.117 76.6897 241.689 76.5839 242.344 76.5839C243.312 76.5839 244.084 76.8244 244.661 77.3055C245.238 77.777 245.556 78.4168 245.615 79.2251H243.649C243.62 78.9076 243.483 78.6574 243.239 78.4746C243.004 78.2821 242.686 78.1859 242.286 78.1859C241.914 78.1859 241.626 78.2533 241.42 78.388C241.225 78.5227 241.127 78.7103 241.127 78.9509C241.127 79.2203 241.264 79.4271 241.538 79.5715C241.811 79.7062 242.237 79.8457 242.813 79.99C243.4 80.1344 243.884 80.2835 244.265 80.4375C244.647 80.5914 244.974 80.832 245.248 81.1591C245.531 81.4766 245.678 81.9 245.688 82.4292C245.688 82.8911 245.556 83.3048 245.292 83.6704C245.038 84.0361 244.666 84.3247 244.177 84.5364C243.698 84.7385 243.136 84.8395 242.491 84.8395Z" fill="white"/>
<path d="M230.142 84.8395C229.36 84.8395 228.656 84.6711 228.03 84.3343C227.404 83.988 226.911 83.502 226.549 82.8766C226.197 82.2512 226.021 81.5295 226.021 80.7117C226.021 79.8938 226.202 79.1722 226.564 78.5467C226.935 77.9213 227.439 77.4402 228.074 77.1034C228.71 76.7571 229.418 76.5839 230.201 76.5839C230.983 76.5839 231.691 76.7571 232.327 77.1034C232.962 77.4402 233.461 77.9213 233.823 78.5467C234.194 79.1722 234.38 79.8938 234.38 80.7117C234.38 81.5295 234.189 82.2512 233.808 82.8766C233.437 83.502 232.928 83.988 232.283 84.3343C231.647 84.6711 230.934 84.8395 230.142 84.8395ZM230.142 83.0787C230.513 83.0787 230.86 82.9921 231.183 82.8189C231.515 82.6361 231.779 82.3667 231.975 82.0106C232.171 81.6546 232.268 81.2216 232.268 80.7117C232.268 79.9515 232.063 79.3694 231.652 78.9653C231.252 78.5516 230.758 78.3447 230.171 78.3447C229.585 78.3447 229.091 78.5516 228.69 78.9653C228.299 79.3694 228.103 79.9515 228.103 80.7117C228.103 81.4718 228.294 82.0588 228.675 82.4725C229.066 82.8766 229.555 83.0787 230.142 83.0787Z" fill="white"/>
<path d="M223.239 78.3737V82.2417C223.239 82.5111 223.303 82.7084 223.43 82.8334C223.567 82.9489 223.792 83.0066 224.105 83.0066H225.058V84.7097H223.767C222.037 84.7097 221.172 83.8822 221.172 82.2273V78.3737H220.204V76.7139H221.172V74.7366H223.239V76.7139H225.058V78.3737H223.239Z" fill="white"/>
<path d="M218.823 76.7137V84.7096H216.755V83.6993C216.491 84.0457 216.144 84.3199 215.714 84.522C215.294 84.7144 214.834 84.8106 214.336 84.8106C213.7 84.8106 213.138 84.6807 212.649 84.4209C212.16 84.1515 211.774 83.7618 211.491 83.2519C211.217 82.7323 211.08 82.1165 211.08 81.4044V76.7137H213.133V81.1158C213.133 81.7508 213.294 82.2416 213.617 82.5879C213.94 82.9247 214.38 83.0931 214.937 83.0931C215.504 83.0931 215.949 82.9247 216.271 82.5879C216.594 82.2416 216.755 81.7508 216.755 81.1158V76.7137H218.823Z" fill="white"/>
<path d="M200.688 80.6828C200.688 79.8746 200.849 79.1577 201.171 78.5323C201.504 77.9069 201.949 77.4258 202.506 77.089C203.073 76.7522 203.704 76.5839 204.398 76.5839C205.004 76.5839 205.532 76.7041 205.982 76.9447C206.441 77.1852 206.808 77.4883 207.081 77.854V76.7138H209.149V84.7096H207.081V83.5405C206.817 83.9158 206.451 84.2285 205.982 84.4787C205.522 84.7192 204.989 84.8395 204.383 84.8395C203.699 84.8395 203.073 84.6663 202.506 84.3199C201.949 83.9735 201.504 83.4876 201.171 82.8622C200.849 82.2271 200.688 81.5007 200.688 80.6828ZM207.081 80.7117C207.081 80.221 206.984 79.8024 206.788 79.456C206.593 79.1 206.329 78.8306 205.996 78.6478C205.664 78.4553 205.307 78.3591 204.926 78.3591C204.544 78.3591 204.192 78.4505 203.87 78.6333C203.547 78.8162 203.283 79.0856 203.078 79.4416C202.882 79.788 202.785 80.2017 202.785 80.6828C202.785 81.1639 202.882 81.5873 203.078 81.9529C203.283 82.3089 203.547 82.5832 203.87 82.7756C204.202 82.968 204.554 83.0642 204.926 83.0642C205.307 83.0642 205.664 82.9728 205.996 82.79C206.329 82.5976 206.593 82.3282 206.788 81.9818C206.984 81.6258 207.081 81.2024 207.081 80.7117Z" fill="white"/>
<path d="M187.253 80.6828C187.253 79.8746 187.415 79.1577 187.737 78.5323C188.07 77.9069 188.515 77.4258 189.072 77.089C189.639 76.7522 190.27 76.5839 190.964 76.5839C191.57 76.5839 192.098 76.7041 192.547 76.9447C193.007 77.1852 193.374 77.4883 193.647 77.854V76.7138H195.715V84.7096H193.647V83.5405C193.383 83.9158 193.017 84.2285 192.547 84.4787C192.088 84.7192 191.555 84.8395 190.949 84.8395C190.265 84.8395 189.639 84.6663 189.072 84.3199C188.515 83.9735 188.07 83.4876 187.737 82.8622C187.415 82.2271 187.253 81.5007 187.253 80.6828ZM193.647 80.7117C193.647 80.221 193.55 79.8024 193.354 79.456C193.159 79.1 192.895 78.8306 192.562 78.6478C192.23 78.4553 191.873 78.3591 191.492 78.3591C191.11 78.3591 190.758 78.4505 190.436 78.6333C190.113 78.8162 189.849 79.0856 189.644 79.4416C189.448 79.788 189.351 80.2017 189.351 80.6828C189.351 81.1639 189.448 81.5873 189.644 81.9529C189.849 82.3089 190.113 82.5832 190.436 82.7756C190.768 82.968 191.12 83.0642 191.492 83.0642C191.873 83.0642 192.23 82.9728 192.562 82.79C192.895 82.5976 193.159 82.3282 193.354 81.9818C193.55 81.6258 193.647 81.2024 193.647 80.7117Z" fill="white"/>
<path d="M185.753 74.0292V84.7095H183.7V74.0292H185.753Z" fill="white"/>
<path d="M176.943 76.5839C177.549 76.5839 178.082 76.7041 178.541 76.9447C179.001 77.1756 179.362 77.4787 179.626 77.854V76.7138H181.694V84.7673C181.694 85.5082 181.543 86.1673 181.24 86.7446C180.936 87.3316 180.482 87.7934 179.876 88.1302C179.27 88.4766 178.536 88.6498 177.676 88.6498C176.522 88.6498 175.574 88.3852 174.831 87.856C174.098 87.3268 173.682 86.6051 173.584 85.691H175.623C175.73 86.0567 175.96 86.3453 176.312 86.557C176.674 86.7783 177.109 86.889 177.617 86.889C178.214 86.889 178.698 86.711 179.069 86.355C179.441 86.0086 179.626 85.4794 179.626 84.7673V83.5261C179.362 83.9014 178.996 84.2141 178.527 84.4642C178.067 84.7144 177.539 84.8395 176.943 84.8395C176.258 84.8395 175.633 84.6663 175.066 84.3199C174.499 83.9735 174.049 83.4876 173.716 82.8622C173.394 82.2271 173.232 81.5007 173.232 80.6828C173.232 79.8746 173.394 79.1577 173.716 78.5323C174.049 77.9069 174.494 77.4258 175.051 77.089C175.618 76.7522 176.249 76.5839 176.943 76.5839ZM179.626 80.7117C179.626 80.221 179.529 79.8024 179.333 79.456C179.138 79.1 178.874 78.8306 178.541 78.6478C178.209 78.4553 177.852 78.3591 177.471 78.3591C177.089 78.3591 176.737 78.4505 176.415 78.6333C176.092 78.8162 175.828 79.0856 175.623 79.4416C175.427 79.788 175.33 80.2017 175.33 80.6828C175.33 81.1639 175.427 81.5873 175.623 81.9529C175.828 82.3089 176.092 82.5831 176.415 82.7756C176.747 82.968 177.099 83.0642 177.471 83.0642C177.852 83.0642 178.209 82.9728 178.541 82.79C178.874 82.5976 179.138 82.3282 179.333 81.9818C179.529 81.6258 179.626 81.2024 179.626 80.7117Z" fill="white"/>
<path d="M172.262 80.5385C172.262 80.8271 172.243 81.0869 172.203 81.3179H166.264C166.313 81.8952 166.518 82.3474 166.88 82.6746C167.242 83.0017 167.687 83.1653 168.215 83.1653C168.977 83.1653 169.52 82.8429 169.842 82.1983H172.057C171.822 82.968 171.372 83.6031 170.708 84.1034C170.043 84.5941 169.226 84.8395 168.259 84.8395C167.476 84.8395 166.772 84.6711 166.147 84.3343C165.531 83.988 165.047 83.502 164.695 82.8766C164.353 82.2512 164.182 81.5295 164.182 80.7117C164.182 79.8842 164.353 79.1577 164.695 78.5323C165.037 77.9069 165.516 77.4258 166.132 77.089C166.748 76.7522 167.457 76.5839 168.259 76.5839C169.031 76.5839 169.72 76.7474 170.326 77.0746C170.942 77.4017 171.416 77.8684 171.749 78.4746C172.091 79.0711 172.262 79.7591 172.262 80.5385ZM170.136 79.9612C170.126 79.4416 169.935 79.0278 169.564 78.7199C169.192 78.4024 168.738 78.2436 168.2 78.2436C167.691 78.2436 167.261 78.3976 166.909 78.7055C166.567 79.0038 166.357 79.4223 166.279 79.9612H170.136Z" fill="white"/>
<path d="M160.833 77.9551C161.097 77.5317 161.44 77.1998 161.86 76.9592C162.29 76.7187 162.779 76.5984 163.326 76.5984V78.72H162.784C162.139 78.72 161.65 78.8692 161.317 79.1675C160.995 79.4657 160.833 79.9853 160.833 80.7262V84.7097H158.78V76.7139H160.833V77.9551Z" fill="white"/>
<path d="M150.092 76.5984C151.06 76.5984 151.842 76.9015 152.438 77.5077C153.035 78.1042 153.333 78.9413 153.333 80.019V84.7097H151.28V80.2932C151.28 79.6582 151.119 79.1723 150.796 78.8355C150.473 78.4891 150.033 78.3159 149.476 78.3159C148.909 78.3159 148.459 78.4891 148.127 78.8355C147.804 79.1723 147.643 79.6582 147.643 80.2932V84.7097H145.59V76.7139H147.643V77.7097C147.917 77.3633 148.264 77.0939 148.684 76.9015C149.114 76.6994 149.584 76.5984 150.092 76.5984Z" fill="white"/>
<path d="M144.092 80.5385C144.092 80.8271 144.073 81.0869 144.033 81.3179H138.094C138.143 81.8952 138.348 82.3474 138.71 82.6746C139.072 83.0017 139.517 83.1653 140.045 83.1653C140.807 83.1653 141.35 82.8429 141.672 82.1983H143.887C143.652 82.968 143.202 83.6031 142.538 84.1034C141.873 84.5941 141.056 84.8395 140.089 84.8395C139.306 84.8395 138.603 84.6711 137.977 84.3343C137.361 83.988 136.877 83.502 136.525 82.8766C136.183 82.2512 136.012 81.5295 136.012 80.7117C136.012 79.8842 136.183 79.1577 136.525 78.5323C136.867 77.9069 137.346 77.4258 137.962 77.089C138.578 76.7522 139.287 76.5839 140.089 76.5839C140.861 76.5839 141.55 76.7474 142.156 77.0746C142.772 77.4017 143.246 77.8684 143.579 78.4746C143.921 79.0711 144.092 79.7591 144.092 80.5385ZM141.966 79.9612C141.956 79.4416 141.765 79.0278 141.394 78.7199C141.022 78.4024 140.568 78.2436 140.03 78.2436C139.522 78.2436 139.091 78.3976 138.739 78.7055C138.397 79.0038 138.187 79.4223 138.109 79.9612H141.966Z" fill="white"/>
<path d="M127.301 84.8395C126.519 84.8395 125.815 84.6711 125.189 84.3343C124.564 83.988 124.07 83.502 123.708 82.8766C123.356 82.2512 123.18 81.5295 123.18 80.7117C123.18 79.8938 123.361 79.1722 123.723 78.5467C124.094 77.9213 124.598 77.4402 125.233 77.1034C125.869 76.7571 126.578 76.5839 127.36 76.5839C128.142 76.5839 128.851 76.7571 129.486 77.1034C130.122 77.4402 130.62 77.9213 130.982 78.5467C131.353 79.1722 131.539 79.8938 131.539 80.7117C131.539 81.5295 131.349 82.2512 130.967 82.8766C130.596 83.502 130.087 83.988 129.442 84.3343C128.807 84.6711 128.093 84.8395 127.301 84.8395ZM127.301 83.0787C127.673 83.0787 128.02 82.9921 128.342 82.8189C128.675 82.6361 128.939 82.3667 129.134 82.0106C129.33 81.6546 129.427 81.2216 129.427 80.7117C129.427 79.9515 129.222 79.3694 128.812 78.9653C128.411 78.5516 127.917 78.3447 127.33 78.3447C126.744 78.3447 126.25 78.5516 125.849 78.9653C125.458 79.3694 125.263 79.9515 125.263 80.7117C125.263 81.4718 125.453 82.0588 125.835 82.4725C126.226 82.8766 126.714 83.0787 127.301 83.0787Z" fill="white"/>
<path d="M120.398 78.3737V82.2417C120.398 82.5111 120.462 82.7084 120.589 82.8334C120.725 82.9489 120.95 83.0066 121.263 83.0066H122.216V84.7097H120.926C119.195 84.7097 118.33 83.8822 118.33 82.2273V78.3737H117.362V76.7139H118.33V74.7366H120.398V76.7139H122.216V78.3737H120.398Z" fill="white"/>
<path d="M115.982 76.7137V84.7096H113.914V83.6993C113.65 84.0457 113.303 84.3199 112.873 84.522C112.453 84.7144 111.993 84.8106 111.494 84.8106C110.859 84.8106 110.297 84.6807 109.808 84.4209C109.319 84.1515 108.933 83.7618 108.649 83.2519C108.376 82.7323 108.239 82.1165 108.239 81.4044V76.7137H110.292V81.1158C110.292 81.7508 110.453 82.2416 110.776 82.5879C111.098 82.9247 111.538 83.0931 112.096 83.0931C112.663 83.0931 113.108 82.9247 113.43 82.5879C113.753 82.2416 113.914 81.7508 113.914 81.1158V76.7137H115.982Z" fill="white"/>
<path d="M104.091 82.7903H100.014L99.3398 84.7098H97.1841L100.865 74.6212H103.255L106.936 84.7098H104.766L104.091 82.7903ZM103.534 81.1738L102.053 76.9594L100.572 81.1738H103.534Z" fill="white"/>
</svg>
