<svg width="201" height="44" viewBox="0 0 201 44" fill="none" xmlns="http://www.w3.org/2000/svg">
<path d="M33.5 36.3008C32.2 37.0008 31.1 37.0008 30.6 36.4008C30.5 36.3008 30.5 36.2008 30.5 36.0008V35.8008C30.5 35.5008 30.6 35.0008 30.8 34.7008C32.6 31.4008 38.3 24.7008 38.3 18.7008C38.3 13.1008 36.8 9.80078 35.5 7.60078C35.2 7.20078 34.9 6.60078 34.7 6.10078C34.6 6.00078 34.6 5.80078 34.6 5.60078C34.6 4.90078 35.2 4.30078 35.9 4.30078C36 4.30078 36.2 4.30078 36.3 4.40078C37 4.60078 37.7 5.10078 38.5 5.60078C42 8.20078 46.4 14.1008 46.4 18.7008C46.4 26.6008 37.2 34.6008 33.5 36.3008ZM19.4 37.7008C19.4 37.9008 19.3 38.2008 19.1 38.3008C19.1 38.3008 18.4 38.8008 17.4 39.1008C16.5 39.4008 15.4 39.6008 13.8 39.8008C7.5 40.2008 3.2 35.1008 3 31.6008V30.8008C3.2 29.6008 4.2 28.6008 5.5 28.5008C6.5 28.4008 7.5 29.0008 8 29.8008C8 29.9008 8 30.0008 8.1 30.0008C8.2 30.2008 8.3 30.5008 8.5 30.7008C8.8 31.4008 9.2 32.1008 9.6 32.8008C11.8 36.2008 14.8 37.0008 17.4 37.1008H18.7C19.1 37.1008 19.4 37.4008 19.4 37.7008ZM27.4 22.5008C25.1 26.9008 20.4 28.9008 18.2 27.3008C16 25.7008 14.5 21.8008 15.9 19.0008C17.7 15.4008 22.9 14.4008 25.8 15.9008C28.2 16.9008 28.9 19.7008 27.4 22.5008ZM29.9 10.1008C24 7.30078 13.7 9.20078 10.1 16.4008C7.3 22.0008 10.4 29.7008 14.7 33.0008C19.1 36.3008 28.5 32.3008 33.1 23.5008C36 17.8008 34.7 12.4008 29.9 10.1008Z" fill="white"/>
<path d="M176.999 30.3012H162.999C162.999 30.3012 161.099 30.4012 161.999 28.6012L169.199 16.4012H165.699C161.999 16.4012 162.399 12.7012 162.399 12.7012H174.799C175.199 12.7012 176.499 12.9012 175.599 14.5012L168.299 26.6012H174.199C176.899 26.6012 177.099 29.3012 176.999 30.3012ZM81.1992 14.1012C82.0992 15.2012 82.5992 16.9012 82.5992 19.3012V28.3012C82.5992 29.6012 81.4992 30.7012 80.1992 30.7012C79.3992 30.7012 78.5992 30.6012 77.7992 30.5012V20.5012C77.7992 19.3012 77.6992 18.3012 77.2992 17.7012C76.9992 17.0012 76.3992 16.7012 75.3992 16.7012C74.9992 16.7012 74.5992 16.7012 74.2992 16.9012C73.9992 17.1012 73.5992 17.2012 73.2992 17.5012C72.9992 17.8012 72.6992 18.2012 72.4992 18.8012C72.2992 19.4012 72.1992 20.1012 72.1992 21.0012V28.3012C72.1992 29.6012 71.0992 30.7012 69.7992 30.7012C68.9992 30.7012 68.1992 30.6012 67.3992 30.5012V20.6012C67.3992 19.4012 67.2992 18.4012 66.8992 17.8012C66.5992 17.1012 65.9992 16.8012 64.9992 16.8012C64.5992 16.8012 64.1992 16.8012 63.7992 17.0012C63.3992 17.1012 63.0992 17.3012 62.7992 17.7012C62.4992 18.0012 62.1992 18.5012 62.0992 19.1012C61.8992 19.7012 61.7992 20.5012 61.7992 21.4012V29.3012C61.7992 29.3012 61.7992 29.4012 61.6992 29.4012C61.2992 30.1012 60.4992 30.6012 59.5992 30.6012C58.7992 30.6012 57.9992 30.5012 57.1992 30.4012V12.9012C57.4992 12.8012 57.7992 12.8012 58.1992 12.7012H60.2992C60.5992 12.7012 60.8992 12.8012 61.1992 12.9012C61.2992 13.0012 61.2992 13.2012 61.3992 13.4012C61.4992 13.6012 61.4992 13.8012 61.5992 14.1012C61.5992 14.3012 61.6992 14.6012 61.6992 14.8012C61.6992 15.0012 61.7992 15.2012 61.7992 15.4012C61.9992 15.1012 62.1992 14.7012 62.4992 14.4012C62.7992 14.1012 63.0992 13.8012 63.5992 13.5012C63.9992 13.2012 64.4992 13.0012 64.9992 12.8012C65.4992 12.6012 66.0992 12.5012 66.6992 12.5012C69.4992 12.5012 71.1992 13.5012 71.9992 15.6012C72.4992 14.8012 73.0992 14.0012 73.8992 13.4012C74.6992 12.8012 75.7992 12.5012 77.0992 12.5012C78.8992 12.5012 80.2992 13.0012 81.1992 14.1012ZM94.2992 26.8012C93.9992 26.8012 93.7992 26.9012 93.3992 27.0012C93.0992 27.1012 92.6992 27.1012 92.3992 27.1012C92.0992 27.1012 91.6992 27.1012 91.3992 27.0012C90.9992 27.0012 90.5992 26.9012 90.2992 26.7012C89.8992 26.6012 89.5992 26.3012 89.3992 26.0012C89.0992 25.7012 88.9992 25.2012 88.9992 24.6012C88.9992 23.7012 89.2992 23.1012 89.9992 22.7012C90.6992 22.3012 91.4992 22.1012 92.5992 22.1012H93.3992C93.6992 22.1012 93.9992 22.2012 94.2992 22.2012V26.8012ZM96.9992 14.1012C95.6992 13.0012 93.7992 12.4012 91.4992 12.4012C90.5992 12.4012 89.6992 12.5012 88.6992 12.6012C88.2992 12.7012 87.8992 12.8012 87.3992 12.9012C87.2992 12.9012 87.1992 12.9012 87.0992 13.0012C86.5992 13.1012 86.1992 13.3012 85.6992 13.4012C85.6992 14.0012 85.7992 14.5012 85.8992 15.0012C85.8992 15.1012 85.8992 15.2012 85.9992 15.3012C85.9992 15.4012 85.9992 15.4012 86.0992 15.5012C86.3992 16.1012 86.9992 16.6012 87.7992 16.6012H88.0992C88.1992 16.6012 88.2992 16.6012 88.3992 16.5012C89.1992 16.3012 89.9992 16.2012 90.6992 16.2012C91.2992 16.2012 91.7992 16.2012 92.2992 16.3012C92.7992 16.4012 93.1992 16.5012 93.4992 16.7012C93.7992 16.9012 94.0992 17.2012 94.2992 17.5012C94.4992 17.8012 94.5992 18.3012 94.5992 18.8012V19.2012C93.7992 19.1012 93.0992 19.1012 92.3992 19.1012C91.4992 19.1012 90.5992 19.2012 89.6992 19.4012C88.7992 19.6012 87.9992 19.9012 87.1992 20.3012C86.4992 20.7012 85.8992 21.3012 85.3992 22.1012C84.8992 22.8012 84.6992 23.8012 84.6992 24.8012C84.6992 25.9012 84.8992 26.8012 85.2992 27.6012C85.6992 28.4012 86.1992 29.0012 86.8992 29.4012C87.5992 29.9012 88.3992 30.2012 89.3992 30.4012C90.3992 30.6012 91.3992 30.7012 92.5992 30.7012C93.9992 30.7012 96.1992 30.4012 97.4992 30.1012C98.6992 29.8012 99.3992 28.9012 99.3992 27.8012V19.4012C98.9992 17.0012 98.3992 15.2012 96.9992 14.1012ZM186.999 26.7012C186.699 26.7012 186.499 26.8012 186.099 26.8012C185.799 26.9012 185.399 26.9012 185.099 26.9012H184.099C183.699 26.9012 183.299 26.8012 182.999 26.6012C182.599 26.5012 182.299 26.2012 182.099 25.9012C181.899 25.6012 181.699 25.1012 181.699 24.5012C181.699 23.6012 181.999 23.0012 182.699 22.6012C183.399 22.2012 184.199 22.0012 185.299 22.0012H186.199C186.499 22.0012 186.799 22.1012 187.099 22.1012L186.999 26.7012ZM189.699 14.0012C188.399 12.9012 186.499 12.3012 184.099 12.3012C183.199 12.3012 182.299 12.4012 181.299 12.5012C180.899 12.6012 180.399 12.6012 179.999 12.8012C179.899 12.8012 179.799 12.8012 179.699 12.9012C179.199 13.0012 178.799 13.2012 178.299 13.3012C178.299 13.9012 178.299 14.4012 178.499 14.9012C178.499 15.0012 178.499 15.1012 178.599 15.2012C178.599 15.3012 178.599 15.3012 178.699 15.4012C178.999 16.0012 179.599 16.5012 180.399 16.5012H180.699C180.799 16.5012 180.899 16.5012 180.999 16.4012C181.799 16.2012 182.599 16.1012 183.299 16.1012C183.899 16.1012 184.399 16.1012 184.899 16.2012C185.399 16.3012 185.699 16.4012 186.099 16.6012C186.399 16.8012 186.699 17.1012 186.899 17.4012C187.099 17.7012 187.199 18.2012 187.199 18.7012V19.1012C186.399 19.0012 185.699 19.0012 184.999 19.0012C184.099 19.0012 183.199 19.1012 182.299 19.3012C181.399 19.5012 180.599 19.8012 179.799 20.2012C179.099 20.6012 178.499 21.2012 177.999 22.0012C177.499 22.7012 177.299 23.7012 177.299 24.7012C177.299 25.8012 177.499 26.7012 177.899 27.5012C178.299 28.3012 178.799 28.9012 179.499 29.3012C180.199 29.8012 180.999 30.1012 181.999 30.3012C182.999 30.5012 183.999 30.6012 185.199 30.6012C186.599 30.6012 188.799 30.3012 190.099 30.0012C191.299 29.7012 191.999 28.8012 191.999 27.7012V19.3012C191.699 16.9012 190.999 15.1012 189.699 14.0012ZM155.899 26.7012C155.599 26.7012 155.399 26.8012 154.999 26.8012C154.699 26.9012 154.299 26.9012 153.999 26.9012H152.999C152.599 26.9012 152.199 26.8012 151.899 26.6012C151.499 26.5012 151.199 26.2012 150.999 25.9012C150.699 25.6012 150.599 25.1012 150.599 24.5012C150.599 23.6012 150.899 23.0012 151.599 22.6012C152.299 22.2012 153.099 22.0012 154.199 22.0012H155.099C155.399 22.0012 155.699 22.1012 155.999 22.1012L155.899 26.7012ZM158.599 14.0012C157.299 12.9012 155.399 12.3012 153.099 12.3012C152.199 12.3012 151.299 12.4012 150.299 12.5012C149.899 12.6012 149.499 12.6012 148.999 12.8012C148.899 12.8012 148.799 12.8012 148.699 12.9012C148.199 13.0012 147.799 13.2012 147.299 13.3012C147.299 13.9012 147.399 14.4012 147.499 14.9012C147.499 15.0012 147.499 15.1012 147.599 15.2012C147.599 15.3012 147.599 15.3012 147.699 15.4012C147.999 16.0012 148.599 16.5012 149.399 16.5012H149.699C149.799 16.5012 149.899 16.5012 149.999 16.4012C150.799 16.2012 151.599 16.1012 152.299 16.1012C152.899 16.1012 153.399 16.1012 153.899 16.2012C154.399 16.3012 154.699 16.4012 155.099 16.6012C155.399 16.8012 155.699 17.1012 155.899 17.4012C156.099 17.7012 156.199 18.2012 156.199 18.7012V19.1012C155.399 19.0012 154.699 19.0012 153.999 19.0012C153.099 19.0012 152.199 19.1012 151.299 19.3012C150.399 19.5012 149.599 19.8012 148.799 20.2012C148.099 20.6012 147.499 21.2012 146.999 22.0012C146.499 22.7012 146.299 23.7012 146.299 24.7012C146.299 25.3012 146.299 25.8012 146.399 26.2012C146.199 26.2012 144.799 26.4012 144.599 26.5012H143.999C143.599 26.5012 143.199 26.5012 142.999 26.4012C142.699 26.3012 142.499 26.1012 142.299 25.9012C142.099 25.7012 141.999 25.3012 141.899 24.9012C141.799 24.5012 141.799 23.9012 141.799 23.2012V7.50117C141.799 6.20117 140.699 5.20117 139.399 5.20117C138.599 5.20117 137.799 5.30117 136.999 5.40117V24.4012C136.999 26.6012 137.499 28.2012 138.599 29.1012C139.699 30.1012 141.099 30.5012 142.799 30.5012C143.199 30.5012 143.699 30.5012 144.199 30.4012C144.599 30.4012 147.499 29.8012 148.799 29.6012C149.399 29.9012 150.099 30.2012 150.899 30.4012C151.899 30.6012 152.899 30.7012 154.099 30.7012C155.499 30.7012 157.699 30.4012 158.999 30.1012C160.199 29.8012 160.899 28.9012 160.899 27.8012V19.4012C160.699 16.9012 159.999 15.1012 158.599 14.0012ZM128.799 25.6012C128.099 26.5012 126.999 27.0012 125.599 27.0012C124.799 27.0012 124.099 26.9012 123.499 26.7012V20.7012C123.499 20.1012 123.599 19.6012 123.699 19.1012C123.799 18.6012 123.999 18.2012 124.199 17.8012C124.499 17.4012 124.799 17.1012 125.199 16.9012C125.599 16.7012 126.099 16.6012 126.699 16.6012C127.299 16.6012 127.799 16.7012 128.299 17.0012C128.699 17.3012 129.099 17.6012 129.299 18.0012C129.599 18.4012 129.799 18.9012 129.899 19.6012C129.999 20.2012 130.099 20.9012 130.099 21.6012C129.899 23.3012 129.599 24.7012 128.799 25.6012ZM133.099 14.6012C132.499 13.9012 131.699 13.3012 130.899 12.9012C130.099 12.5012 129.099 12.4012 128.199 12.4012C127.599 12.4012 126.999 12.5012 126.499 12.7012C125.999 12.9012 125.499 13.1012 125.099 13.4012C124.699 13.7012 124.299 14.0012 123.999 14.3012C123.699 14.6012 123.399 15.0012 123.199 15.4012C123.199 15.2012 123.199 15.0012 123.099 14.8012V14.6012C122.399 12.5012 118.699 13.6012 118.699 13.6012V26.5012C118.399 26.6012 117.699 26.7012 117.499 26.7012H116.899C116.499 26.7012 116.099 26.7012 115.899 26.6012C115.599 26.5012 115.399 26.3012 115.199 26.1012C114.999 25.9012 114.899 25.5012 114.799 25.1012C114.699 24.7012 114.699 24.1012 114.699 23.4012V7.60117C114.699 6.30117 113.599 5.30117 112.299 5.30117C111.499 5.30117 110.699 5.40117 109.899 5.50117V24.5012C109.899 25.2012 109.999 25.9012 110.099 26.5012C109.799 26.6012 109.099 26.7012 108.899 26.7012H108.299C107.899 26.7012 107.499 26.7012 107.299 26.6012C106.999 26.5012 106.799 26.3012 106.599 26.1012C106.399 25.9012 106.299 25.5012 106.199 25.1012C106.099 24.7012 106.099 24.1012 106.099 23.4012V7.60117C106.099 6.30117 104.999 5.30117 103.699 5.30117C102.899 5.30117 102.099 5.40117 101.299 5.50117V24.5012C101.299 26.7012 101.799 28.3012 102.899 29.2012C103.999 30.2012 105.399 30.6012 107.099 30.6012C107.499 30.6012 107.999 30.6012 108.499 30.5012C108.999 30.5012 111.799 30.0012 112.399 29.8012C113.299 30.3012 114.399 30.6012 115.599 30.6012C115.999 30.6012 116.499 30.6012 116.999 30.5012C117.199 30.5012 117.899 30.4012 118.599 30.3012V38.5012C118.999 38.6012 119.399 38.6012 119.799 38.6012H121.099C122.299 38.6012 123.299 37.7012 123.499 36.5012V30.6012C123.699 30.6012 124.099 30.7012 124.399 30.7012H125.499C126.999 30.7012 128.299 30.5012 129.499 30.0012C130.699 29.6012 131.699 28.9012 132.499 28.1012C133.299 27.3012 133.899 26.3012 134.399 25.1012C134.799 23.9012 135.099 22.6012 135.099 21.1012C135.099 19.6012 134.899 18.3012 134.599 17.1012C134.199 16.3012 133.699 15.3012 133.099 14.6012ZM195.899 17.1012C195.599 17.1012 195.299 17.1012 194.999 17.0012C194.699 16.9012 194.499 16.8012 194.299 16.6012C194.099 16.4012 193.999 16.2012 193.899 15.9012C193.799 15.6012 193.799 15.3012 193.799 15.0012C193.799 14.7012 193.899 14.3012 193.999 14.1012C194.099 13.8012 194.299 13.6012 194.499 13.4012C194.699 13.2012 194.899 13.1012 195.199 13.0012C195.499 12.9012 195.699 12.9012 195.999 12.9012C196.299 12.9012 196.599 12.9012 196.899 13.0012C197.199 13.1012 197.399 13.3012 197.599 13.4012C197.799 13.6012 197.899 13.8012 197.999 14.1012C198.099 14.4012 198.099 14.7012 198.099 15.0012C198.099 15.3012 197.999 15.7012 197.899 15.9012C197.799 16.2012 197.599 16.4012 197.399 16.6012C197.199 16.8012 196.999 16.9012 196.699 17.0012C196.499 17.0012 196.199 17.1012 195.899 17.1012ZM195.899 16.6012C196.399 16.6012 196.799 16.5012 197.099 16.2012C197.399 15.9012 197.499 15.5012 197.499 14.9012C197.499 14.3012 197.399 13.9012 197.099 13.6012C196.799 13.3012 196.399 13.2012 195.899 13.2012C195.399 13.2012 195.099 13.3012 194.799 13.6012C194.499 13.9012 194.399 14.3012 194.399 14.9012C194.399 15.5012 194.499 15.9012 194.799 16.2012C194.999 16.5012 195.399 16.6012 195.899 16.6012ZM195.099 13.8012H195.899C196.099 13.8012 196.199 13.8012 196.399 13.9012C196.499 13.9012 196.599 14.0012 196.699 14.0012C196.799 14.1012 196.799 14.1012 196.799 14.2012V14.4012C196.799 14.5012 196.799 14.7012 196.699 14.8012C196.699 14.9012 196.599 15.0012 196.399 15.0012L196.799 15.9012H196.299L195.899 15.1012H195.499V15.9012H194.999L195.099 13.8012ZM195.899 14.7012C196.099 14.7012 196.199 14.7012 196.199 14.6012V14.4012C196.199 14.3012 196.199 14.3012 196.099 14.2012C196.099 14.2012 195.899 14.1012 195.699 14.1012H195.399V14.6012H195.899V14.7012Z" fill="white"/>
</svg>
