 <svg
      width="392"
      height="78"
      viewBox="0 0 392 78"
      fill="none"
      xmlns="http://www.w3.org/2000/svg"
      
    >
      <path
        d="M79.538 10.237l-3.635 4.006-3.578 3.94-4.064 4.485a3.065 3.065 0 01-.305-.264 3.587 3.587 0 010-5.061l2.028-2.028 4.798-4.797a3.599 3.599 0 012.53-1.056c.52 0 1.047.116 1.534.347.247.123.478.263.684.428h.008z"
        fill="#3D63AE"
      />
      <path
        d="M79.538 10.237l-3.635 4.006-3.578 3.94-4.064 4.485a3.065 3.065 0 01-.305-.264 3.587 3.587 0 010-5.061l2.028-2.028 4.798-4.797a3.599 3.599 0 012.53-1.056c.52 0 1.047.116 1.534.347.247.123.478.263.684.428h.008z"
        fill="#3D63AE"
      />
      <path
        d="M66.21 58.786a2.634 2.634 0 01-2.638 2.704H25.793l3.174-5.268h34.49c1.442 0 2.711 1.122 2.752 2.564zM73.725 11.57l-1.912-2.34c-.14-.165-.28-.33-.43-.487a8.44 8.44 0 00-6.165-2.654H31.133a8.58 8.58 0 00-6.776 3.355l-11.763 15.44-3.998 5.242h2.844l2.473 1.714 3.19-4.195 11.441-15.011a3.28 3.28 0 012.589-1.278H65.21c.98 0 1.896.437 2.522 1.196l.09.107 2.16 2.646 2.342 2.877 3.577-3.94-2.176-2.672z"
        fill="#000"
      />
      <path
        d="M94.647 40.274v20.897a8.45 8.45 0 01-2.416 5.935l-.865.89a8.546 8.546 0 01-6.1 2.58h-3.182a8.495 8.495 0 01-7.031-3.71L65.079 52.26a3.235 3.235 0 00-2.688-1.418h-28.34a3.27 3.27 0 00-2.777 1.566l-2.3 3.817-3.174 5.267-3 4.97a8.564 8.564 0 01-7.295 4.114h-3.949a8.48 8.48 0 01-6.026-2.49 8.467 8.467 0 01-2.489-6.025V40.324c0-1.855.618-3.685 1.74-5.16l3.824-5.029h2.844l2.473 1.715-4.954 6.504a3.265 3.265 0 00-.668 1.97V62.06c0 .865.338 1.681.956 2.3.61.61 1.426.956 2.3.956h3.949c1.129 0 2.2-.602 2.777-1.575l3.834-6.355 4.64-7.69a8.572 8.572 0 017.296-4.122H62.4a8.502 8.502 0 017.03 3.717L79.406 63.9a3.234 3.234 0 002.687 1.418h3.182c.866 0 1.723-.363 2.325-.981l.865-.89c.594-.61.915-1.418.915-2.267V40.282c0-.741-.264-1.475-.733-2.052l-6.554-6.38 3.914-3.248 6.72 6.306a8.506 8.506 0 011.912 5.383l.009-.017z"
        fill="#000"
      />
      <path
        d="M55.451 36.797l-3.388 3.726a5.473 5.473 0 01-2.027 1.41 5.18 5.18 0 01-.38.131H29.453a2.622 2.622 0 01-1.5-.462L13.913 31.86l-2.473-1.715H2.638A2.64 2.64 0 010 27.508a2.628 2.628 0 012.638-2.63h9.628c.107 0 .222.008.33.025.42.05.824.206 1.178.445l3.339 2.316 13.172 9.134h25.166zM97.681 27.497c0 .742-.305 1.41-.8 1.888a2.612 2.612 0 01-1.838.742h-8.812l-2.67 1.847-1.93 1.335-11.919 8.268a2.641 2.641 0 01-1.5.461H54.899l5.268-5.267h7.22l12.835-8.903-5.704-6.998 3.742-3.75 6.38 7.83c.248-.074.503-.107.759-.107h9.636a2.638 2.638 0 012.638 2.63l.008.024z"
        fill="#000"
      />
      <path
        d="M79.538 10.238l-3.635 4.006-3.578 3.94-4.064 4.484a3.04 3.04 0 01-.305-.264 3.587 3.587 0 010-5.06l2.028-2.029 4.798-4.797a3.599 3.599 0 012.53-1.055c.52 0 1.047.115 1.534.346.247.124.478.264.684.429h.008zM61.345 30.293l-5.902 6.503-3.388 3.726a5.471 5.471 0 01-2.028 1.41c-.124.05-.247.09-.38.132l-.247.074c-.024-.025-.04-.05-.066-.074a3.583 3.583 0 01.24-4.806l.461-.462 6.372-6.372a3.584 3.584 0 012.53-1.055c.52 0 1.04.116 1.534.346.321.157.618.355.866.57l.008.008z"
        fill="#3D63AE"
      />
      <path
        d="M86.111 5.885l-3.948 4.352-3.635 4.006-3.578 3.94-4.064 4.485-6.907 7.616-5.902 6.504-3.388 3.726a5.471 5.471 0 01-2.028 1.41c-.124.049-.248.09-.38.131l-.247.075a5.265 5.265 0 01-2.901-.075 5.46 5.46 0 01-1.93-1.071l-4.863-4.188-8.919-7.682a3.515 3.515 0 01-.37-4.963 3.515 3.515 0 014.962-.37l12.562 10.814 19.883-21.918 3.56-3.924 6.892-7.6c1.31-1.434 3.536-1.55 4.97-.239a3.52 3.52 0 01.248 4.97h-.017z"
        fill="#25D366"
      />
      <path
        d="M382.722 26.497c-1.237-1.482-2.777-2.734-4.68-3.756-2.152-1.157-4.58-1.731-7.461-1.731-3.169 0-6.059.864-8.757 2.493h-.001c-2.518 1.538-4.473 3.649-6.051 6.325l-.222.377H365.961l.054-.028c.379-.195.663-.39.936-.577 1.62-.925 3.319-1.474 5.191-1.474 1.881 0 3.577.46 5.186 1.47l.822.565.063.044h12.535v-8.628h-8.026v4.92zM363.094 46.665h0l-.002-.004c-.985-1.845-1.439-4.07-1.439-6.593 0-1.953.361-3.717.991-5.294l.137-.343h-8.553l-.045.194c-.37 1.62-.648 3.435-.648 5.443 0 3.721.741 7.067 2.228 10.128h-.001l.005.008c1.578 2.963 3.625 5.267 6.237 6.9 2.608 1.63 5.499 2.495 8.577 2.495 2.789 0 5.307-.575 7.549-1.729a15.07 15.07 0 004.775-3.85v5.012h8.026V34.431h-9.239l.128.338c.632 1.675.993 3.44.993 5.488 0 2.516-.542 4.743-1.53 6.593-.992 1.857-2.247 3.236-3.851 4.154-1.622.928-3.324 1.48-5.199 1.48-1.792 0-3.581-.462-5.19-1.475-1.616-1.017-2.961-2.4-3.949-4.344zM296.721 26.467c-1.19-1.473-2.795-2.714-4.679-3.726-2.153-1.157-4.673-1.731-7.461-1.731-3.17 0-6.059.864-8.757 2.493h-.001c-2.518 1.538-4.473 3.649-6.051 6.325l-.222.377h10.427l.064-.044c.129-.088.282-.178.445-.274l.004-.003c.154-.09.318-.187.46-.284 1.62-.925 3.319-1.474 5.191-1.474 1.881 0 3.577.46 5.186 1.47l.409.282.413.283.064.044h12.535v-8.628H296.721v4.89zM277.002 46.665h0l-.002-.004c-.985-1.845-1.439-4.07-1.439-6.593 0-1.953.361-3.717.992-5.294l.137-.343h-8.554l-.044.194c-.371 1.62-.649 3.435-.649 5.443 0 3.721.741 7.067 2.228 10.128h0l.004.008c1.578 2.963 3.626 5.267 6.238 6.9 2.609 1.631 5.592 2.495 8.76 2.495 2.789 0 5.217-.575 7.369-1.731h0l.003-.002c1.981-1.105 3.529-2.365 4.768-3.916v5.4c0 3.55-.907 6.219-2.682 8.048-1.783 1.835-4.101 2.76-7.072 2.76-2.532 0-4.684-.56-6.469-1.754h0l-.008-.005c-1.784-1.102-2.938-2.659-3.471-4.489l-.052-.18h-7.81l.031.278c.467 4.134 2.339 7.316 5.607 9.72 3.263 2.4 7.356 3.64 12.264 3.64 3.705 0 6.871-.763 9.487-2.302 2.701-1.536 4.755-3.65 6.155-6.435 1.396-2.685 2.138-5.748 2.138-9.187V34.43h-9.338l.137.343c.63 1.575.992 3.433.992 5.483 0 2.516-.543 4.743-1.531 6.593-.992 1.857-2.247 3.236-3.851 4.154-1.622.928-3.324 1.48-5.199 1.48-1.792 0-3.581-.462-5.19-1.475-1.616-1.017-2.961-2.4-3.949-4.344zM232.725 43.437H260.012l.034-.21c.186-1.15.279-2.392.279-3.82 0-1.626-.186-3.248-.463-4.77l-.038-.206h-8.017l.034.28c.082.673.162 1.333.179 1.988h-19.29c.097-.72.256-1.37.418-1.951l.088-.317h-8.059l-.041.2c-.369 1.804-.648 3.618-.648 5.626 0 3.812.741 7.259 2.326 10.14 1.58 2.87 3.72 5.172 6.423 6.803l.003.002c2.796 1.632 5.869 2.397 9.396 2.397 4.265 0 7.809-1.051 10.707-3.265 2.885-2.204 4.934-5.082 6.052-8.533l.105-.327H251.015l-.068.14c-.809 1.666-1.903 2.927-3.269 3.772-1.365.846-3.016 1.286-4.95 1.286-2.698 0-5.021-.831-6.897-2.58-1.814-1.69-2.799-3.9-3.106-6.655zM248.81 30.148l.07.057h9.226l-.197-.368c-1.49-2.781-3.634-4.989-6.243-6.524h0l-.003-.002c-2.704-1.536-5.776-2.301-9.21-2.301-3.525 0-6.691.764-9.488 2.397h-.001c-2.61 1.536-4.659 3.648-6.24 6.424l-.213.374H236.026l.069-.057c1.791-1.475 3.846-2.211 6.174-2.211 2.61 0 4.755.74 6.541 2.211zM217.671 29.449h.25V21.009h-.25c-2.519 0-4.673.578-6.548 1.64h0l-.005.003a12.287 12.287 0 00-3.936 3.695v-4.77h-7.934v8.628h12.137l.045-.017c1.159-.46 2.596-.74 4.313-.74h1.928zM199.157 58.782v.25h7.934v-19.72c0-1.875.182-3.362.54-4.56l.096-.321h-8.57v24.351zM182.36 58.782v.25h7.842V37.044c0-.866-.093-1.635-.184-2.388l-.001-.005-.027-.22h-8.172l.093.32c.268.92.449 2.125.449 3.427v20.604zM179.412 30.14l.072.065h9.619l-.106-.327c-.192-.593-.479-1.085-.751-1.552l-.004-.006c-1.305-2.4-3.081-4.23-5.327-5.483-2.247-1.253-4.861-1.827-7.648-1.827-2.142 0-4.196.383-6.159 1.25h0l-.004.002a12.837 12.837 0 00-4.234 3.13v-3.815h-7.934v8.628h10.809l.072-.065c1.505-1.367 3.459-2.014 5.798-2.014 2.429 0 4.292.646 5.797 2.014zM156.936 58.782v.25h7.934V38.178c0-1.206.18-2.417.363-3.454l.052-.293h-8.349v24.351zM121.76 43.437h27.195l.034-.21c.186-1.15.279-2.392.279-3.82 0-1.626-.186-3.248-.463-4.77l-.038-.206h-8.017l.034.28c.082.673.162 1.333.179 1.988h-19.29c.097-.72.256-1.37.418-1.951l.088-.317h-8.059l-.041.2c-.369 1.804-.648 3.618-.648 5.626 0 3.812.74 7.259 2.326 10.14 1.58 2.87 3.721 5.173 6.518 6.805 2.796 1.632 5.869 2.397 9.396 2.397 4.265 0 7.809-1.051 10.706-3.265 2.886-2.204 4.935-5.082 6.052-8.533l.106-.327H140.05l-.069.14c-.808 1.666-1.903 2.927-3.268 3.772-1.365.846-3.016 1.286-4.951 1.286-2.698 0-5.021-.831-6.897-2.58-1.813-1.69-2.799-3.9-3.105-6.655zM137.753 30.148l.069.057H147.049l-.197-.368c-1.49-2.781-3.634-4.989-6.243-6.524h0l-.003-.002c-2.704-1.536-5.776-2.301-9.21-2.301-3.526 0-6.691.764-9.488 2.397h-.001c-2.61 1.536-4.659 3.648-6.24 6.424l-.213.374H124.969l.069-.057c1.791-1.475 3.845-2.211 6.174-2.211 2.61 0 4.755.74 6.541 2.211zM344.771 17.238l-.009.013-.008.014-6.883 12.57-.203.37H346.406l.071-.128 4.857-8.777c.295-.41.493-.92.498-1.528.093-.512-.005-1.017-.092-1.469l-.004-.02c-.103-.527-.403-1.035-.686-1.423-.301-.413-.696-.716-1.162-1.004-.411-.313-.914-.416-1.352-.506l-.024-.005c-.51-.105-1.012-.002-1.456.09l-.022.004c-.516.106-.923.42-1.277.694l-.018.015c-.396.305-.689.708-.958 1.077l-.01.013zM335.302 34.558l-8.593 15.183-8.316-4.973-.007-.004-.007-.003a5.467 5.467 0 00-1.349-.495c-.51-.105-1.012-.002-1.457.09l-.021.004c-.516.106-.922.42-1.277.694l-.018.015c-.405.312-.7.723-.981 1.206l-.005.008-.004.008c-.19.391-.383.885-.48 1.385-.101.52-.001 1.034.088 1.493l.004.02c.102.528.406.945.673 1.31l.013.018c.303.417.702.72 1.172 1.011l.003.002 11.552 6.892c.411.312.914.415 1.351.505l.024.005c.51.105 1.012.002 1.457-.09l.021-.004c.516-.106.923-.42 1.277-.694l.019-.015c.395-.305.688-.708.957-1.077l.01-.013.008-.012.008-.013 12.482-22.21.209-.373h-8.741l-.072.127z"
        fill="#000"
        stroke="#000"
        strokeWidth="0.5"
      />
    </svg>