<svg viewBox="0 0 347.7 150.6" version="1.1" xmlns="http://www.w3.org/2000/svg">
  <defs>
    <style>
      .cls-1 {
        fill: #010000;
      }

      .cls-2 {
        fill: #3c3e94;
      }

      .cls-3 {
        fill: #d31a03;
      }
    </style>
  </defs>
  
  <g>
    <g id="Capa_1">
      <g>
        <path d="M182.4,47.3c-.7.5-1.7.9-2.5,1.7-6.9,6.9-13.7,13.8-20.5,20.8-1.8,1.8-3.6,3.7-5.5,5.5-1.8,1.7-2.6,1.7-4.3,0-2.4-2.4-4.8-4.8-7.4-7.4,2.8.2,3.8-2,5.2-3.4,8.1-8,16-16.1,24.1-24.1,1.7-1.7,2.6-1.7,4.2,0,2.3,2.4,4.6,4.8,6.6,7" class="cls-3"></path>
        <path d="M205.3,47.1c-1.2.8-2.3,1.3-3.1,2.1-8.4,8.5-16.7,17-25.1,25.5-.5.5-1,1.2-1.6,1.4-.7.2-1.9.4-2.3,0-2.8-2.6-5.4-5.3-8.3-8.3,1.9.4,2.8-.8,3.8-1.8,8.5-8.5,17-17,25.5-25.5,1.7-1.7,2.3-1.7,4.1,0,2.3,2.3,4.7,4.5,6.9,6.6" class="cls-2"></path>
        <path d="M187.4,68.1c2.4-.4,3.5-2.5,5.2-4,2.4-2.2,4.6-4.7,6.9-7,.7-.6,1.6-1.3,2.5-1.3,10.9,0,21.9,0,33,0-.3.4-.4.7-.6.9-2.1,2.2-4.1,4.5-6.3,6.6-.6.6-1.6,1-2.4,1-5,0-9.9,0-14.9,0-1.2,0-2,.4-2.8,1.2-3.1,3.2-6.2,6.3-9.3,9.4-1.9,1.9-2.7,1.9-4.6,0-2.3-2.2-4.4-4.5-6.7-6.9" class="cls-3"></path>
        <path d="M112.7,59.2c2.5-2.5,5-5,7.6-7.4.4-.4,1.3-.5,1.9-.5,5,0,10,0,15,0,.8,0,1.7-.5,2.3-1,3.4-3.2,6.6-6.6,9.9-9.9,1.5-1.5,2.6-1.5,4.1,0,2.3,2.2,4.6,4.4,6.9,6.6-3.4,1.6-5.1,4.4-7.5,6.5-1.7,1.5-3.2,3.3-4.8,4.7-.7.6-1.8,1.3-2.7,1.3-10.9,0-21.8,0-32.6,0l-.2-.3Z" class="cls-2"></path>
        <path d="M94.4,108.3c.8-.7,1.3-1.3,2-1.7.2-.2.7-.2.9,0,5.1,2.5,10.3,2.3,15.6.7,1.9-.6,2-.9,1.6-2.9-1.8.4-3.6.9-5.4,1.1-4.6.4-9.1.4-13.3-2-1.3-.7-2-1.6-1.8-3.2.2-1.7.1-3.4,0-5.1-.1-1.4.6-2.2,1.6-2.8,2.1-1.2,4.4-1.9,6.8-2.1,4.1-.4,8.2-.4,12.1,1.3.1,0,.2,0,.3.1,2,.9,3.2,2,3,4.5-.3,3.4-.1,6.9,0,10.3,0,1.2-.4,2.1-1.4,2.5-2.2.9-4.3,1.9-6.6,2.3-4.3.7-8.7.4-12.8-1.4-.8-.3-1.6-.9-2.6-1.5M114.7,97.8c0-.5,0-1.1,0-1.6.2-1.1-.3-1.6-1.3-2-5-1.8-10.1-1.8-15.1,0-.9.3-1.2.8-1.1,1.8,0,1.1.1,2.2,0,3.3-.1,1,.3,1.5,1.2,1.9,4.3,1.6,8.7,1.7,13.1.6,3.2-.8,3.2-.8,3.2-4" class="cls-1"></path>
        <path d="M68.1,99.2h-20.4c-.4,1.2,0,1.9,1.1,2.3,5.7,2,11.2,1.8,16.8-.8.6.6,1.2,1.3,1.9,2.1-1.6,1.3-3.5,2.1-5.6,2.5-4.8,1-9.5.9-14.1-.8-.2,0-.5-.2-.7-.3-1.9-.9-3.1-2-2.8-4.4.2-1.6.1-3.2,0-4.8,0-1.2.4-2.1,1.4-2.6,1.8-.8,3.6-1.8,5.6-2.1,4.7-.9,9.3-.7,13.8,1.2.3.1.6.3.9.4,1.4.8,2.3,1.8,2.1,3.6-.2,1.1,0,2.3,0,3.7M64.9,96.1c.3-1,0-1.5-.9-1.7-1.8-.5-3.7-1.1-5.6-1.3-3.4-.4-6.7,0-9.9,1.3-.8.4-1.2.8-.8,1.7h17.1Z" class="cls-1"></path>
        <path d="M300,96.7c.5-1.4-.2-2-1.3-2.5-3.8-1.6-12.2-1.8-16.7,1.1-.2-.3-.5-.8-.8-1.2-.3-.3-.6-.7-1-1.1,1.7-1.5,3.6-2.2,5.7-2.6,4.7-.9,9.3-.9,13.8.8.2,0,.4.2.6.2,2.1.8,3.4,2,3,4.6-.2,1.6-.1,3.3,0,4.9,0,.9-.3,1.5-1,2-2.1,1.5-4.5,2.3-7,2.5-3.8.4-7.7.5-11.4-.9-.7-.3-1.5-.6-2.2-1-2.1-1.2-2.5-1.9-2-4.3,0-.5.6-1.1,1.1-1.4,1.9-1.4,4.2-2.1,6.5-2.4,4.2-.6,8.3-.3,12.3,1,.2,0,.4,0,.6,0M282.7,100.7c3.4,3,15.3,2.6,17.4-.1-3.4-3-14.9-2.7-17.4.1" class="cls-1"></path>
        <path d="M20.1,102.7c.8-.8,1.5-1.5,2.2-2.2,5.1,2.6,10.4,2.7,15.8,1.1,2.1-.6,2.1-.8,2.2-2.6,0-.7-.2-1.3-.9-1.4-2.1-.5-4.2-1.1-6.3-1.4-2.6-.4-5.3-.3-7.8-.9-1.7-.3-3.2-1.3-4.7-2.2-.4-.3-.6-1.1-.8-1.6,0-.2,0-.4,0-.6-.6-2.6.9-3.9,3-4.7,3.6-1.4,7.3-1.9,11.1-1.4,1.9.2,3.7.6,5.5,1.1,1.2.4,2.3,1.1,3.6,1.7-.9.9-1.6,1.5-2.4,2.2-5.2-2.6-10.7-2.7-16.2-.9-.4.1-.7.3-1,.5-.9.5-.9,1.7,0,2,2,.6,4,1.2,6,1.5,3,.5,6,.7,9.1,1.1.5,0,1,.3,1.5.5,2.3.9,3.6,2.2,3.5,5.1,0,2.4-1,3.7-3.1,4.5-5.9,2.4-11.8,2.2-17.7,0-.9-.3-1.6-.9-2.5-1.4" class="cls-1"></path>
        <path d="M159.6,92.8h14.6v3h-14.6c0,1.6,0,3,0,4.5,0,.3.7.7,1.1.8,4.5,1.5,9,1.5,13.5,0,1-.4,1.9-.7,3-1.1.4.9.7,1.8,1.1,2.8-2.6,1.2-5.1,2.2-7.9,2.5-3.4.3-6.9.2-10.2-.9-.5-.2-1-.3-1.5-.6-1.4-.7-2.3-1.5-2.3-3.3.1-3.9,0-7.8,0-11.7,0-1.2.8-1.9,1.7-2.2,1.9-.7,3.8-1.4,5.7-1.7,5-.8,9.7.1,14.3,2.4-.3.9-.7,1.8-1,2.8-1.5-.5-2.9-1.1-4.4-1.5-4-1.1-8.1-1-12.1.3-.9.3-1.4.8-1.2,1.8,0,.7,0,1.5,0,2.4" class="cls-1"></path>
        <path d="M254.8,84.6h3.1v6.3c2.2-.4,4.3-.8,6.5-1.1,3.1-.4,6.3,0,9.3.8.5.1.9.3,1.4.5,2.4.9,3.9,2.3,3.4,5.1-.2,1.6,0,3.3,0,4.9,0,1-.3,1.7-1.2,2.3-2.1,1.4-4.4,2.1-6.8,2.4-3.8.4-7.7.5-11.4-.8-.4-.1-.7-.2-1.1-.4-2.2-.9-3.5-2.1-3.3-4.9.3-5,0-10,0-15M257.9,97.9c0,.6,0,1.2,0,1.8-.2,1.3.4,1.9,1.6,2.3,3.4,1.3,7,1.3,10.5.9,1.5-.2,3-.8,4.4-1.2.7-.2,1-.6.9-1.4,0-1.3-.1-2.7,0-4,.2-1.3-.5-1.9-1.6-2.2-4.8-1.6-9.7-1.5-14.5,0-1,.3-1.5.9-1.3,2,0,.6,0,1.3,0,1.9" class="cls-1"></path>
        <path d="M181.1,102.7c.9-.8,1.6-1.5,2.3-2.1,5.9,2.8,11.9,2.8,17.8.3,0-.2,0-.4.1-.6-.6-.3-1.2-.7-1.8-.8-1.8-.2-3.6-.4-5.4-.5-3-.1-6-.1-9-.3-.8,0-1.7-.4-2.5-.8-.9-.4-1.9-.8-2-2.1-.1-1.6.2-2.7,1.7-3.5,3.9-2.1,8-2.7,12.3-2.2,2.4.3,4.8,1,7.2,1.7.7.2,1.3.8,2.2,1.3-.9.8-1.6,1.4-2.4,2.1-3.9-2.2-8.1-2.4-12.5-1.9-1.9.2-3.7.6-5.4,1.8,1.4,1,2.9,1.1,4.4,1.1,3.3,0,6.5,0,9.8,0,1.9,0,3.8.6,5.4,1.8,1.4,1,1.5,3.8,0,4.9-1.9,1.5-4.2,2.1-6.5,2.5-4.3.7-8.5.4-12.6-1-1.1-.4-2.1-1-3.3-1.7" class="cls-1"></path>
        <path d="M253.7,97.9c0,.9,0,1.8,0,2.6.2,1.3-.5,2-1.4,2.6-2.4,1.6-5.1,2.2-7.8,2.4-4,.4-7.9,0-11.7-1.6-.3-.2-.7-.3-1-.5-1.2-.7-1.9-1.5-1.8-3.1.2-1.8,0-3.7,0-5.5,0-.9.2-1.6,1-2,1.9-.8,3.9-1.9,5.9-2.3,4.6-.9,9.1-.8,13.5,1,.1,0,.2,0,.3.1,1.9.9,3.4,2,2.9,4.5-.1.5,0,1.1,0,1.6M233,97.9c0,.4,0,.8,0,1.1-.3,1.4.4,2.1,1.7,2.4,1.7.4,3.4.9,5.1,1.1,3.4.4,6.7,0,9.8-1.4.7-.3,1-.7,1-1.5,0-1.1,0-2.3,0-3.4,0-.9-.3-1.4-1.1-1.7-4.3-1.8-8.8-1.8-13.3-.7-3.2.8-3.2.9-3.2,4.1" class="cls-1"></path>
        <path d="M146.8,98c0,.9,0,1.9,0,2.8.1,1.2-.4,1.9-1.3,2.5-2.4,1.6-5.1,2.2-7.9,2.4-3.9.3-7.8,0-11.4-1.6-.4-.2-.7-.4-1.1-.6-1.3-.7-2.1-1.6-1.9-3.3.2-1.7.1-3.4,0-5,0-1.2.5-1.9,1.4-2.5,2.2-1.4,4.7-2.1,7.3-2.4,4-.4,8-.3,11.8,1.3,2.8,1.2,3.2,1.7,3.2,4.7v1.6M143.7,97.9c0-.3,0-.7,0-1,.3-1.5-.4-2.2-1.8-2.6-4.7-1.5-9.4-1.5-14,0-1.2.4-2,1-1.7,2.5.1.6,0,1.3,0,2,0,2.1,0,2.2,2,2.8,4.1,1.3,8.2,1.4,12.4.3,3.1-.8,3.1-.9,3.1-4.1" class="cls-1"></path>
        <path d="M226.6,100.6c.7.7,1.4,1.4,2.1,2.1-1.7,1.5-3.8,2.2-6,2.6-4.1.7-8.2.7-12.2-.4-.6-.2-1.1-.4-1.6-.6-2.3-.9-3.8-2.3-3.3-5.1.2-1.6.1-3.2,0-4.8,0-1,.4-1.6,1.1-2.1,2-1.5,4.4-2.1,6.8-2.5,4.3-.6,8.5-.3,12.6,1.2,1,.4,1.8,1,2.9,1.5-.9.8-1.6,1.4-2.5,2.1-3.5-2-7.5-2.3-11.5-1.9-1.8.2-3.6.9-5.4,1.4-.4.1-.7.8-.8,1.2,0,1.5-.1,2.9,0,4.4,0,.5.4,1.1.8,1.3,1.5.5,3,1.1,4.5,1.3,4.3.5,8.5.4,12.5-1.9" class="cls-1"></path>
        <path d="M328,95.4c-1.3,0-2.4,0-3.7-.7-3.3-1.8-7-1.9-10.6-1.5-1.8.2-3.5.9-5.3,1.4-.7.2-.8.6-.8,1.3,0,2.6,0,5.3,0,7.9v1.3h-3v-1.3c0-3,0-5.9,0-8.9,0-1.1.4-1.8,1.3-2.4,2.2-1.5,4.6-2.2,7.2-2.4,4.1-.4,8.2-.4,12.1,1.4.8.3,1.5.8,2.2,1.2,1,.6,1.3,1.5.9,2.6" class="cls-1"></path>
        <path d="M92.8,95.5c-1.3,0-2.5,0-3.8-.8-3.3-1.8-6.9-1.8-10.5-1.4-1.8.2-3.5.8-5.2,1.3-.7.2-1,.7-1,1.5,0,2.6,0,5.1,0,7.7v1.4h-3.1v-1.2c0-3.1,0-6.1,0-9.2,0-.9.3-1.5,1-2,2.3-1.7,4.9-2.4,7.6-2.6,3.6-.3,7.2-.4,10.7.9,1.1.4,2.1,1,3.1,1.5,1.1.6,1.6,1.5,1.1,2.8" class="cls-1"></path>
        <rect height="14.7" width="2.9" y="90.5" x="119" class="cls-1"></rect>
      </g>
    </g>
  </g>
</svg>