<?xml version="1.0" encoding="utf-8"?>
<!-- Generator: Adobe Illustrator 24.2.1, SVG Export Plug-In . SVG Version: 6.00 Build 0)  -->
<svg version="1.1" id="Capa_1" xmlns="http://www.w3.org/2000/svg" xmlns:xlink="http://www.w3.org/1999/xlink" x="0px" y="0px"
	 viewBox="0 0 1334 182" style="enable-background:new 0 0 1334 182;" xml:space="preserve">
<style type="text/css">
	.st0{fill:#FFFFFF;}
</style>
<g>
	<g>
		<path class="st0" d="M165.73,125.03c4.26,0.55,7.1-0.79,9.68-3.4c18.21-18.49,36.47-36.93,54.69-55.41
			c5.31-5.39,7.97-5.35,13.33-0.13c5.03,4.89,10.26,9.57,15.12,15.02c-5.78-0.15-8.14,4.02-11.15,7.01
			c-17.51,17.43-34.93,34.94-52.4,52.41c-5.46,5.46-8.13,5.41-13.6-0.03C176.2,135.33,170.96,130.19,165.73,125.03z"/>
		<path class="st0" d="M214.49,125.14c4.25,0.86,6.79-1.04,9.22-3.49c18.44-18.59,36.89-37.15,55.35-55.73
			c4.72-4.75,8.22-4.75,13.04,0.06c5.19,5.18,10.35,10.38,16.36,16.42c-5.87-1.65-8.58,1.66-11.54,4.62
			c-17.86,17.88-35.77,35.72-53.66,53.57c-4.86,4.85-8.05,4.8-12.98-0.06C225.04,135.38,219.75,130.27,214.49,125.14z"/>
		<path class="st0" d="M263.59,124.67c3.36,0.57,6.13-0.33,8.54-2.8c6.73-6.88,13.49-13.74,20.44-20.4c1.5-1.43,3.83-2.8,5.79-2.81
			c24.13-0.19,48.26-0.12,72.39-0.11c0.43,0,0.86,0.08,1.71,0.17c-0.71,0.9-1.17,1.63-1.76,2.21c-5.07,5.02-10.08,10.1-15.31,14.96
			c-1.18,1.09-3.12,1.88-4.73,1.91c-10.08,0.17-20.17,0.18-30.25,0.03c-3.75-0.06-6.64,0.94-9.31,3.75
			c-6.23,6.57-12.78,12.85-19.21,19.23c-5.06,5.01-7.86,4.95-12.87,0.09c-5.34-5.18-10.82-10.22-16.24-15.32
			C263.04,125.27,263.31,124.97,263.59,124.67z"/>
		<path class="st0" d="M100.71,107.96c6.42-6.31,12.41-12.3,18.55-18.13c0.75-0.71,2.27-0.82,3.43-0.83
			c10.64-0.06,21.29,0.14,31.93-0.18c2.43-0.07,5.32-1.31,7.11-2.98c7.12-6.63,13.89-13.64,20.79-20.51
			c3.92-3.91,7.44-3.89,11.39,0.03c5.37,5.33,10.74,10.65,16.18,16.45c-5.18-1.02-7.72,2.53-10.63,5.42
			c-6.02,5.99-11.89,12.14-18.16,17.86c-1.91,1.74-4.9,3.22-7.41,3.25c-23.89,0.24-47.78,0.14-71.68,0.13
			C102.02,108.46,101.82,108.34,100.71,107.96z"/>
	</g>
	<path class="st0" d="M600.76,141.64c2.54-2.67,4.47-4.7,6.19-6.51c14.59,7.64,29.25,7.56,44.12,2.74c4.73-1.53,4.79-2.08,4.01-7.21
		c-4.72,0.95-9.4,2.25-14.17,2.77c-9.85,1.08-19.67,0.87-29.22-2.26c-1.18-0.39-2.33-0.87-3.47-1.34
		c-5.71-2.33-9.39-5.72-8.28-12.77c0.66-4.2,0.35-8.61,0.04-12.89c-0.22-3.1,1.05-5.18,3.57-6.23c5.27-2.19,10.55-4.76,16.09-5.85
		c10.75-2.11,21.59-1.67,32.17,1.64c1.18,0.37,2.33,0.86,3.47,1.34c5.96,2.52,9.6,6.02,8.96,13.51c-0.79,9.11-0.35,18.34-0.1,27.51
		c0.09,3.33-1.28,5.24-3.83,6.88c-6.38,4.1-13.53,5.72-20.93,6.25c-10.21,0.73-20.4,0.49-30.15-3.19
		C606.44,144.96,603.88,143.27,600.76,141.64z M632.11,125.08c6.94,0.04,13.77-0.55,20.28-3.3c2.12-0.89,3.27-2,3.06-4.53
		c-0.26-3.15-0.23-6.35-0.01-9.51c0.17-2.45-0.75-3.74-3-4.54c-13.86-4.9-27.67-4.73-41.47,0.18c-1.89,0.67-2.88,1.74-2.73,3.99
		c0.22,3.27,0.21,6.58,0,9.85c-0.14,2.2,0.82,3.22,2.67,4.06C617.67,124.36,624.8,125.19,632.11,125.08z"/>
	<path class="st0" d="M475.12,116.7c-1.16,3.28,0.06,4.64,2.37,5.64c9.67,4.18,19.72,4.94,29.93,2.98
		c5.27-1.01,10.38-2.82,16.07-4.42c1.26,1.33,3.1,3.28,5.08,5.37c-4.17,3.87-9.3,5.83-14.76,7c-11.48,2.44-22.93,2.36-34.29-0.71
		c-1.74-0.47-3.43-1.15-5.09-1.86c-5.7-2.44-9.68-5.76-8.51-13.02c0.69-4.31,0.36-8.83,0.05-13.23c-0.23-3.35,1.08-5.62,3.93-6.72
		c5.54-2.14,11.08-4.83,16.86-5.66c10.18-1.45,20.54-1.46,30.59,1.62c1.72,0.53,3.38,1.27,5.03,1.99c5.29,2.3,8.82,5.61,7.73,12.14
		c-0.46,2.75-0.08,5.64-0.08,8.89C511.62,116.7,493.34,116.7,475.12,116.7z M520.88,107.89c1.01-2.52-0.57-3.36-2.3-4.19
		c-9.02-4.34-18.63-4.53-28.23-3.45c-4.62,0.52-9.12,2.32-13.62,3.72c-1.83,0.57-2.75,1.91-1.63,3.92
		C490.43,107.89,505.68,107.89,520.88,107.89z"/>
	<path class="st0" d="M1155.82,110.03c1.24-3.52-0.29-5.1-3.11-6.27c-10.45-4.31-21.22-4.16-32.02-2.19
		c-4.35,0.79-8.49,2.7-12.9,4.16c-1.51-1.52-3.54-3.56-5.64-5.68c4.95-4,10.77-6.28,17.1-7.33c11.3-1.86,22.52-1.81,33.56,1.64
		c1.4,0.44,2.76,0.99,4.1,1.59c5.35,2.36,8.96,5.58,7.93,12.35c-0.66,4.32-0.31,8.83-0.05,13.24c0.16,2.77-1,4.47-3.06,5.93
		c-5.3,3.76-11.27,5.72-17.64,6.6c-10.2,1.4-20.34,1.33-30.3-1.6c-2.37-0.7-4.69-1.7-6.87-2.87c-5.95-3.19-7.37-6-6.14-12.62
		c0.25-1.32,1.57-2.69,2.76-3.55c8.19-5.94,17.72-7.03,27.44-7.22C1139.39,106.06,1147.68,106.87,1155.82,110.03z M1155.87,120.5
		c-7.29-7.5-38.22-7.81-46.63,0.04C1119.32,127.9,1146.94,127.88,1155.87,120.5z"/>
	<path class="st0" d="M826.07,119.18c1.02,1.06,2.8,2.93,5.06,5.29c-2.14,1.4-3.96,2.89-6.01,3.87
		c-10.59,5.05-21.86,5.36-33.26,4.46c-7.28-0.57-14.32-2.04-20.7-5.91c-2.13-1.29-3.08-2.78-3.03-5.45
		c0.18-10.88,0.17-21.76,0.01-32.64c-0.04-2.66,0.93-4.13,3.1-5.39c10.09-5.89,21.18-7.07,32.43-6.29
		c6.45,0.45,12.87,2.1,19.17,3.72c2.82,0.72,5.33,2.69,8.49,4.36c-2.35,2.45-4.18,4.37-6.01,6.28c-10.06-5.93-20.87-6.57-31.91-5.45
		c-4.01,0.4-7.97,1.4-11.94,2.18c-3.36,0.66-5.15,2.46-4.5,6.14c0.21,1.19,0.03,2.45,0.03,4.05c14.1,0,27.97,0,42.01,0
		c0,3.05,0,5.72,0,8.79c-13.84,0-27.71,0-42,0c0,4.19-0.17,8.01,0.12,11.8c0.07,0.9,1.54,2.06,2.6,2.45
		c9.26,3.32,18.91,3.78,28.49,2.47C814.03,123.1,819.65,120.93,826.07,119.18z"/>
	<path class="st0" d="M461.79,85.03c-0.6,0.98-0.68,1.2-0.84,1.36c-1.55,1.65-2.87,4.18-4.73,4.68c-1.67,0.45-3.92-1.39-5.95-2.12
		c-12.93-4.68-25.87-4.56-38.75,0.13c-1.7,0.62-4.03,0.97-3.93,3.9c0.09,2.75,2.32,2.82,3.92,3.48c7.59,3.14,15.64,3.18,23.67,3.37
		c8.6,0.2,16.81,1.84,24.09,6.83c2.5,1.72,4.08,3.67,3.62,6.98c-0.29,2.11-0.31,4.33,0,6.44c0.6,4.17-1.55,6.54-4.84,8.35
		c-10.09,5.56-21.03,7.04-32.23,5.73c-6.45-0.76-12.8-2.64-19.08-4.42c-2.26-0.64-4.19-2.43-6.38-3.76c2.3-2.28,4.19-4.16,6.02-5.97
		c14.38,7.06,29.22,7.11,44.32,2.34c1.8-0.57,3.63-1.13,3.52-3.8c-0.12-2.74,0.35-5.6-3.24-6.49c-4.68-1.16-9.33-2.64-14.09-3.29
		c-7.26-1-14.63-1.22-21.9-2.19c-2.95-0.4-5.87-1.67-8.6-2.98c-7.55-3.59-9.51-7.65-7.49-15.75c0.35-1.41,1.95-2.7,3.26-3.64
		c6.05-4.34,13.09-6.17,20.31-6.67c10.38-0.71,20.82-0.59,30.74,3.31C456.1,81.95,458.79,83.54,461.79,85.03z"/>
	<path class="st0" d="M889.75,119.46c-4.26-2.59-8.72-3.12-13.23-3.19c-7.82-0.13-15.64,0.07-23.45-0.17
		c-5.67-0.18-11.28-0.99-16.21-4.2c-4.3-2.8-4.9-10.24-0.47-12.82c4.7-2.73,9.9-5.21,15.18-6.22c12.45-2.37,24.99-2.19,37.1,2.28
		c2.89,1.07,5.51,2.83,8.56,4.44c-2.56,2.43-4.58,4.36-6.57,6.25c-15.62-8.11-31.48-7.61-47.42-1.32c-0.07,0.57-0.14,1.14-0.21,1.71
		c3.19,0.61,6.37,1.62,9.58,1.76c9.73,0.41,19.5,0.07,29.19,0.87c4.44,0.36,9.01,2.15,13,4.27c4.97,2.64,4.65,11.05-0.06,14.2
		c-6.69,4.47-14.25,6.3-22.1,6.99c-10.41,0.92-20.58-0.42-30.34-4.2c-2.57-0.99-4.87-2.66-6.93-3.81c2.04-2.55,3.79-4.73,5.43-6.78
		C855.91,127.24,883.2,127.28,889.75,119.46z"/>
	<path class="st0" d="M1033.5,77.43c3.12,0,5.7,0,8.71,0c0,5.64,0,11.21,0,16.86c4.9-1.06,9.34-2.47,13.88-2.93
		c10.27-1.03,20.55-1.08,30.48,2.43c1.8,0.63,3.5,1.58,5.21,2.45c4.14,2.1,6.51,4.96,5.98,10.15c-0.55,5.38-0.24,10.86-0.07,16.29
		c0.08,2.45-0.82,3.97-2.76,5.34c-5.4,3.82-11.43,5.88-17.91,6.75c-10.07,1.34-20.08,1.2-29.94-1.56c-1.63-0.46-3.22-1.06-4.79-1.69
		c-6.03-2.42-9.46-5.92-8.99-13.41c0.77-12.18,0.21-24.44,0.21-36.66C1033.5,80.21,1033.5,78.99,1033.5,77.43z M1066.4,126.63
		c6.34-0.07,13.39-0.67,20.01-3.75c1.9-0.88,3.02-1.87,2.84-4.28c-0.27-3.71-0.2-7.46-0.02-11.19c0.1-2.14-0.73-3.25-2.57-4.16
		c-5.82-2.89-12.08-3.65-18.4-3.76c-7.79-0.13-15.58,0-22.89,3.4c-2.2,1.02-3.29,2.28-3.12,4.87c0.24,3.6,0.19,7.24,0.01,10.85
		c-0.11,2.12,0.63,3.26,2.52,4.16C1051.39,125.93,1058.44,126.51,1066.4,126.63z"/>
	<path class="st0" d="M1030.7,113.07c0,2.49-0.25,5.01,0.06,7.46c0.46,3.63-1.38,5.67-4.15,7.4c-6.51,4.07-13.77,5.64-21.24,6.35
		c-9.68,0.92-19.2-0.07-28.4-3.38c-1.48-0.53-2.86-1.33-4.3-1.99c-4.42-2.02-6.79-4.95-6.11-10.29c0.57-4.45,0.32-9.05,0.05-13.56
		c-0.18-3.07,1.18-4.79,3.56-6.32c7.48-4.8,15.88-6.31,24.49-6.9c8.06-0.55,16.01,0.36,23.78,2.67c0.65,0.19,1.27,0.46,1.9,0.7
		c8.96,3.56,10.37,5.62,10.37,15.15C1030.7,111.26,1030.7,112.16,1030.7,113.07z M998.9,125.72c6.71,0.15,13.72-0.69,20.42-3.51
		c1.87-0.79,2.86-1.82,2.73-4.04c-0.19-3.27-0.19-6.57,0-9.84c0.13-2.19-0.69-3.52-2.7-3.99c-5.35-1.25-10.68-2.87-16.11-3.45
		c-8.37-0.89-16.67-0.01-24.63,3.1c-2.25,0.88-3.42,2.13-3.19,4.77c0.26,3.03,0.22,6.12,0.01,9.16c-0.16,2.31,0.73,3.49,2.77,4.37
		C984.68,125.05,991.48,125.8,998.9,125.72z"/>
	<path class="st0" d="M742.29,113.43c0,2.6-0.22,5.23,0.06,7.8c0.31,2.92-1.02,4.65-3.24,6.15c-6.78,4.59-14.49,6.24-22.43,6.94
		c-9.33,0.82-18.53-0.09-27.43-3.2c-1.06-0.37-2.1-0.83-3.12-1.3c-5.3-2.42-8.93-5.69-7.89-12.4c0.6-3.87,0.32-7.92,0.04-11.86
		c-0.23-3.3,1.12-5.74,3.84-6.87c5.58-2.32,11.22-4.86,17.09-6c10.08-1.96,20.25-1.27,30.18,1.68c1.18,0.35,2.34,0.83,3.49,1.29
		c6.34,2.53,11.1,6.09,9.45,14.04C742.08,110.89,742.29,112.18,742.29,113.43z M710.4,126.62c6.49-1.3,13-2.51,19.46-3.94
		c2.96-0.65,4.56-2.4,4.11-5.83c-0.36-2.67-0.28-5.44-0.01-8.13c0.25-2.55-0.9-3.99-3.06-4.5c-5.35-1.28-10.71-2.79-16.16-3.35
		c-8.26-0.85-16.46,0.06-24.32,3.07c-2.3,0.88-3.71,2.1-3.37,4.97c0.34,2.9,0.27,5.89,0.02,8.82c-0.23,2.64,0.95,3.81,3.22,4.72
		C696.71,125.04,710.34,126.32,710.4,126.62z"/>
	<path class="st0" d="M957.86,120c1.79,1.89,3.71,3.92,6.35,6.72c-4.35,2.05-8.02,4.38-12.02,5.54c-12.66,3.68-25.47,3.66-38.22,0.2
		c-1.52-0.41-3-1.02-4.45-1.65c-5.9-2.54-10.12-5.93-8.88-13.5c0.71-4.3,0.33-8.83,0.06-13.24c-0.18-2.79,1-4.36,3.09-5.85
		c5.98-4.27,12.79-6.39,19.93-7.01c10.74-0.93,21.51-0.83,31.76,3.27c2.78,1.11,5.33,2.81,8.47,4.5c-2.33,2.52-4.2,4.54-6.11,6.61
		c-8.33-6.15-17.88-6.2-27.38-6.1c-6.23,0.07-12.39,0.85-18.14,3.64c-1.95,0.95-2.95,2.02-2.8,4.37c0.23,3.61-0.13,7.27,0.17,10.87
		c0.1,1.26,1.15,3.17,2.18,3.5c5.02,1.63,10.11,3.48,15.3,4.03C937.77,127.03,948.15,125.73,957.86,120z"/>
	<path class="st0" d="M541.64,133.02c-3.05,0-5.72,0-8.86,0c0-2.04,0-4.04,0-6.03c0-7.37,0.13-14.74-0.07-22.1
		c-0.08-2.75,0.97-4.4,3.09-5.89c4.92-3.46,10.41-5.39,16.28-6.3c11.08-1.71,22.13-1.62,32.9,1.76c3.18,1,6.11,2.85,9.06,4.49
		c3.03,1.69,4.16,4.3,2.95,8.06c-3.38-0.2-6.48,0.28-10.15-1.83c-4.5-2.59-10.18-3.57-15.48-4.22c-8.69-1.07-17.39-0.52-25.74,2.64
		c-2.77,1.05-4.23,2.48-4.08,5.91C541.88,117.2,541.64,124.91,541.64,133.02z"/>
	<path class="st0" d="M1176.3,133.03c-2.99,0-5.45,0-8.3,0c0-3.73,0-7.32,0-10.91c0-5.66,0.25-11.34-0.09-16.99
		c-0.21-3.53,1.39-5.47,4.05-7.13c6.62-4.15,14.03-5.56,21.63-6.11c8.73-0.63,17.45-0.27,25.83,2.53c3.06,1.02,5.91,2.74,8.77,4.29
		c3.23,1.75,4.18,4.51,3.03,8.2c-3.29,0.07-6.14,0.22-9.6-1.67c-4.66-2.56-10.4-3.63-15.8-4.27c-8.92-1.07-17.84-0.53-26.34,2.98
		c-2.37,0.98-3.34,2.38-3.26,5.12C1176.44,116.96,1176.3,124.87,1176.3,133.03z"/>
	<path class="st0" d="M666.99,92.49c2.89,0,5.47,0,8.35,0c0,13.41,0,26.79,0,40.43c-2.62,0-5.37,0-8.35,0
		C666.99,119.58,666.99,106.2,666.99,92.49z"/>
</g>
</svg>
