<svg width="293" height="64" viewBox="0 0 293 64" fill="none" xmlns="http://www.w3.org/2000/svg">
<g clip-path="url(#clip0_2580_4335)">
<path d="M121.117 22.1024C122.632 22.2958 123.642 21.8246 124.559 20.9068C131.033 14.4049 137.525 7.92047 144.003 1.422C145.891 -0.473381 146.837 -0.459316 148.743 1.37629C150.531 3.09585 152.391 4.74156 154.119 6.65805C152.064 6.6053 151.224 8.07167 150.154 9.1231C143.929 15.2523 137.735 21.4097 131.524 27.553C129.583 29.473 128.633 29.4554 126.689 27.5424C124.84 25.7244 122.977 23.9169 121.117 22.1024Z" fill="white"/>
<path d="M138.453 22.1411C139.964 22.4436 140.867 21.7754 141.731 20.9139C148.287 14.3767 154.847 7.85015 161.41 1.31653C163.089 -0.353802 164.333 -0.3538 166.047 1.33763C167.892 3.15917 169.727 4.98774 171.863 7.11169C169.776 6.53147 168.813 7.69543 167.76 8.73631C161.41 15.0238 155.043 21.2972 148.682 27.5741C146.954 29.2796 145.82 29.262 144.067 27.553C142.204 25.742 140.323 23.9451 138.453 22.1411Z" fill="white"/>
<path d="M155.911 21.9756C157.106 22.176 158.091 21.8595 158.947 20.991C161.34 18.5716 163.744 16.1593 166.215 13.8173C166.748 13.3145 167.576 12.8327 168.273 12.8292C176.852 12.7624 185.432 12.787 194.011 12.7905C194.164 12.7905 194.317 12.8186 194.619 12.8503C194.366 13.1668 194.203 13.4235 193.993 13.6274C192.19 15.3927 190.409 17.1791 188.55 18.8881C188.13 19.2714 187.44 19.5492 186.868 19.5597C183.284 19.6195 179.697 19.623 176.113 19.5703C174.78 19.5492 173.752 19.9008 172.803 20.889C170.588 23.1993 168.259 25.4077 165.973 27.6512C164.174 29.4129 163.178 29.3918 161.397 27.6828C159.498 25.8613 157.55 24.089 155.623 22.2956C155.715 22.1866 155.811 22.0811 155.911 21.9756Z" fill="white"/>
<path d="M98 16.1001C100.283 13.8812 102.412 11.7748 104.595 9.72468C104.862 9.47501 105.402 9.43633 105.815 9.43281C109.598 9.41171 113.384 9.48204 117.167 9.36951C118.031 9.3449 119.059 8.90885 119.695 8.3216C122.227 5.99017 124.634 3.52512 127.087 1.10929C128.481 -0.26565 129.732 -0.258618 131.136 1.11984C133.046 2.99413 134.955 4.8649 136.889 6.90446C135.047 6.54578 134.144 7.79413 133.11 8.81039C130.969 10.9168 128.882 13.0794 126.653 15.0908C125.974 15.7027 124.911 16.2231 124.019 16.2337C115.525 16.3181 107.031 16.2829 98.5333 16.2794C98.4658 16.2759 98.3947 16.2337 98 16.1001Z" fill="white"/>
<path d="M71.2955 60.7637C72.1894 59.8248 72.8685 59.1109 73.4738 58.4745C78.608 61.161 83.7669 61.1329 88.9997 59.438C90.6642 58.8999 90.6853 58.7065 90.4108 56.9026C88.7498 57.2367 87.1029 57.6938 85.4244 57.8766C81.9581 58.2564 78.5025 58.1826 75.1418 57.0819C74.7266 56.9448 74.3219 56.776 73.9207 56.6107C71.9114 55.7914 70.6164 54.5993 71.007 52.1202C71.2392 50.6432 71.1301 49.0925 71.021 47.5874C70.9436 46.4973 71.3905 45.7659 72.2773 45.3967C74.1319 44.6265 75.9899 43.7228 77.9394 43.3395C81.7224 42.5975 85.537 42.7523 89.2601 43.9162C89.6753 44.0463 90.08 44.2186 90.4812 44.3874C92.5785 45.2736 93.8594 46.5043 93.6342 49.1382C93.3562 52.3417 93.5111 55.5874 93.599 58.812C93.6307 59.983 93.1486 60.6547 92.2512 61.2314C90.0061 62.6731 87.49 63.2428 84.886 63.4292C81.293 63.6859 77.7072 63.6015 74.2761 62.3074C73.2943 61.9312 72.3935 61.3369 71.2955 60.7637ZM82.3276 54.9404C84.7698 54.9545 87.1733 54.747 89.4642 53.7799C90.2102 53.467 90.6149 53.0767 90.541 52.187C90.4495 51.0793 90.4601 49.954 90.5375 48.8428C90.5973 47.9813 90.2736 47.5276 89.4818 47.2463C84.6044 45.5232 79.7447 45.583 74.8884 47.3096C74.2233 47.5452 73.875 47.9215 73.9278 48.7127C74.0052 49.8626 74.0017 51.0265 73.9278 52.1764C73.8785 52.9501 74.2163 53.3087 74.8673 53.6041C77.2462 54.6872 79.7552 54.9791 82.3276 54.9404Z" fill="white"/>
<path d="M27.083 51.9929C26.6747 53.1463 27.1041 53.6246 27.917 53.9762C31.3198 55.4461 34.8565 55.7134 38.4494 55.0241C40.3039 54.669 42.1021 54.0325 44.1044 53.4698C44.5478 53.9375 45.1953 54.6232 45.8921 55.3582C44.4246 56.7191 42.6194 57.4083 40.698 57.8197C36.6582 58.6778 32.6289 58.6496 28.6313 57.5701C28.019 57.4048 27.4243 57.1657 26.8401 56.916C24.8343 56.058 23.4337 54.8905 23.8455 52.3375C24.0883 50.8219 23.9721 49.2325 23.8631 47.6852C23.7821 46.5072 24.2431 45.709 25.246 45.3222C27.1956 44.5696 29.1451 43.6237 31.1791 43.3318C34.7614 42.8219 38.4071 42.8184 41.9437 43.9015C42.549 44.0879 43.1332 44.3481 43.7138 44.6013C45.5754 45.4101 46.8176 46.574 46.434 48.8703C46.2721 49.8373 46.4058 50.8536 46.4058 51.9964C39.9273 51.9929 33.4946 51.9929 27.083 51.9929ZM43.1859 48.8949C43.5414 48.0087 42.9854 47.7134 42.3766 47.4215C39.2024 45.8953 35.8207 45.8285 32.4424 46.2083C30.8166 46.3912 29.2331 47.0241 27.6495 47.5164C27.0055 47.7169 26.6818 48.1881 27.0759 48.8949C32.4706 48.8949 37.837 48.8949 43.1859 48.8949Z" fill="white"/>
<path d="M266.623 49.6478C267.06 48.41 266.521 47.8544 265.529 47.4429C261.851 45.9273 258.061 45.9801 254.261 46.6728C252.73 46.9506 251.273 47.6223 249.721 48.1357C249.19 47.6012 248.476 46.8838 247.737 46.1383C249.479 44.7317 251.527 43.93 253.754 43.5607C257.731 42.9067 261.679 42.9242 265.564 44.1374C266.057 44.2922 266.535 44.4856 267.007 44.6966C268.889 45.5264 270.16 46.6588 269.797 49.0394C269.565 50.5585 269.688 52.1445 269.78 53.6952C269.836 54.6693 269.428 55.2671 268.703 55.7805C266.838 57.1027 264.737 57.7919 262.495 58.1014C258.906 58.5937 255.338 58.5691 251.833 57.5388C250.999 57.2926 250.182 56.941 249.415 56.5295C247.321 55.4078 246.822 54.4196 247.255 52.0917C247.343 51.6275 247.807 51.1458 248.226 50.8434C251.108 48.7546 254.462 48.3713 257.882 48.3045C260.841 48.2517 263.759 48.5366 266.623 49.6478ZM266.641 53.3295C264.075 50.6922 253.191 50.5831 250.232 53.3436C253.779 55.9317 263.498 55.9247 266.641 53.3295Z" fill="white"/>
<path d="M150.583 52.8658C150.942 53.2386 151.568 53.8962 152.364 54.7261C151.611 55.2184 150.97 55.7423 150.249 56.0869C146.522 57.8628 142.556 57.9718 138.545 57.6553C135.983 57.4548 133.505 56.9379 131.26 55.577C130.511 55.1234 130.176 54.5995 130.194 53.6606C130.257 49.8346 130.254 46.0087 130.198 42.1828C130.183 41.2474 130.525 40.7304 131.288 40.2874C134.839 38.2162 138.742 37.8012 142.701 38.0755C144.97 38.2337 147.23 38.814 149.447 39.3836C150.439 39.6368 151.322 40.3296 152.434 40.9168C151.607 41.7784 150.963 42.4535 150.319 43.1252C146.779 41.0399 142.975 40.8148 139.09 41.2087C137.679 41.3493 136.285 41.701 134.888 41.9753C133.706 42.2074 133.076 42.8403 133.305 44.1344C133.379 44.5529 133.315 44.9959 133.315 45.5586C138.277 45.5586 143.158 45.5586 148.099 45.5586C148.099 46.6311 148.099 47.57 148.099 48.6496C143.228 48.6496 138.348 48.6496 133.319 48.6496C133.319 50.123 133.259 51.4663 133.361 52.799C133.386 53.1155 133.903 53.5234 134.276 53.6606C137.535 54.828 140.931 54.9898 144.302 54.5291C146.346 54.2443 148.324 53.4812 150.583 52.8658Z" fill="white"/>
<path d="M22.393 40.8576C22.1819 41.2023 22.1537 41.2796 22.0974 41.3359C21.552 41.9161 21.0875 42.8058 20.4329 42.9816C19.8453 43.1398 19.0535 42.4928 18.3391 42.2361C13.789 40.5904 9.23544 40.6326 4.70296 42.2818C4.10473 42.4998 3.2848 42.6229 3.31999 43.6533C3.35166 44.6203 4.13641 44.6449 4.69945 44.877C7.37038 45.9812 10.2032 45.9952 13.0289 46.062C16.0553 46.1324 18.9444 46.7091 21.5062 48.4638C22.386 49.0686 22.942 49.7544 22.7801 50.9183C22.6781 51.6603 22.671 52.4409 22.7801 53.1829C22.9913 54.6493 22.2347 55.4827 21.0769 56.1192C17.5262 58.0744 13.6764 58.5948 9.73515 58.1341C7.46539 57.8669 5.23081 57.2058 3.02087 56.5798C2.22558 56.3548 1.54641 55.7253 0.775743 55.2577C1.58512 54.4559 2.25022 53.7948 2.89419 53.1583C7.95453 55.6409 13.1767 55.6585 18.4904 53.9812C19.1239 53.7807 19.7678 53.5838 19.7291 52.6449C19.6869 51.6814 19.8523 50.6757 18.589 50.3627C16.9421 49.9548 15.3057 49.4344 13.6307 49.2058C11.0759 48.8541 8.48238 48.7768 5.92406 48.4357C4.88595 48.295 3.85841 47.8484 2.89772 47.3878C0.240864 46.1253 -0.448869 44.6976 0.261971 41.8493C0.385136 41.3535 0.948181 40.8998 1.40917 40.5693C3.53817 39.0431 6.01555 38.3996 8.55628 38.2238C12.209 37.9741 15.8829 38.0163 19.3737 39.3878C20.3907 39.7746 21.3373 40.3337 22.393 40.8576Z" fill="white"/>
<path d="M172.992 52.9647C171.493 52.0539 169.923 51.8675 168.336 51.8429C165.584 51.7972 162.832 51.8675 160.084 51.7831C158.089 51.7198 156.115 51.435 154.38 50.3062C152.866 49.3216 152.655 46.7053 154.214 45.7981C155.868 44.8381 157.698 43.966 159.556 43.6108C163.937 42.7774 168.35 42.8407 172.612 44.4126C173.629 44.7888 174.551 45.4077 175.624 45.9739C174.723 46.8284 174.012 47.5071 173.312 48.1717C167.815 45.3198 162.234 45.4956 156.625 47.7075C156.6 47.9079 156.576 48.1084 156.551 48.3088C157.673 48.5233 158.793 48.8785 159.922 48.9277C163.346 49.0719 166.784 48.9523 170.194 49.2337C171.757 49.3603 173.365 49.9897 174.769 50.7352C176.518 51.6636 176.405 54.6209 174.748 55.7286C172.393 57.3005 169.733 57.944 166.971 58.1866C163.307 58.5101 159.729 58.0389 156.294 56.7097C155.39 56.3616 154.58 55.7743 153.855 55.3699C154.573 54.4732 155.189 53.7066 155.766 52.9857C161.083 55.7005 170.687 55.7145 172.992 52.9647Z" fill="white"/>
<path d="M223.578 38.1836C224.676 38.1836 225.583 38.1836 226.643 38.1836C226.643 40.1669 226.643 42.1256 226.643 44.1124C228.367 43.7396 229.929 43.2438 231.527 43.0821C235.141 42.7199 238.759 42.7023 242.253 43.9366C242.886 44.1581 243.485 44.4922 244.086 44.7981C245.543 45.5366 246.377 46.5423 246.191 48.3673C245.997 50.2592 246.106 52.1862 246.166 54.0957C246.194 54.9572 245.878 55.4917 245.195 55.9735C243.295 57.3168 241.173 58.0412 238.892 58.3471C235.349 58.8183 231.826 58.7691 228.356 57.7985C227.783 57.6368 227.223 57.4258 226.671 57.2043C224.549 56.3533 223.342 55.1225 223.507 52.4886C223.778 48.2056 223.581 43.8944 223.581 39.5972C223.578 39.1612 223.578 38.7322 223.578 38.1836ZM235.155 55.4847C237.386 55.4601 239.867 55.2491 242.197 54.166C242.865 53.8566 243.259 53.5084 243.196 52.661C243.101 51.3563 243.126 50.0377 243.189 48.726C243.224 47.9735 242.932 47.5832 242.285 47.2632C240.237 46.2469 238.034 45.9796 235.81 45.941C233.068 45.8952 230.327 45.941 227.755 47.1366C226.98 47.4952 226.597 47.9383 226.657 48.8491C226.741 50.115 226.724 51.395 226.66 52.6645C226.622 53.41 226.882 53.8108 227.547 54.1273C229.873 55.2385 232.354 55.4425 235.155 55.4847Z" fill="white"/>
<path d="M222.592 50.7175C222.592 51.5932 222.504 52.4793 222.613 53.3408C222.775 54.6173 222.127 55.3347 221.153 55.943C218.862 57.3743 216.307 57.9263 213.678 58.176C210.272 58.4995 206.922 58.1514 203.684 56.9874C203.163 56.8011 202.678 56.5197 202.171 56.2877C200.616 55.5773 199.782 54.547 200.021 52.6692C200.222 51.1044 200.134 49.4868 200.039 47.9008C199.975 46.8213 200.454 46.2164 201.291 45.6784C203.924 43.9905 206.88 43.4595 209.909 43.2521C212.746 43.0586 215.543 43.3786 218.278 44.191C218.506 44.2578 218.725 44.3527 218.946 44.4371C222.099 45.689 222.595 46.4134 222.595 49.7646C222.592 50.0811 222.592 50.3975 222.592 50.7175ZM211.401 55.1659C213.763 55.2186 216.23 54.9233 218.587 53.9316C219.245 53.6538 219.594 53.2916 219.548 52.511C219.481 51.3611 219.481 50.2006 219.548 49.0507C219.594 48.2806 219.305 47.8129 218.598 47.6477C216.715 47.2081 214.84 46.6384 212.929 46.4345C209.983 46.1215 207.063 46.431 204.261 47.5246C203.47 47.834 203.058 48.2736 203.139 49.2019C203.23 50.2674 203.216 51.354 203.142 52.423C203.086 53.2353 203.399 53.6503 204.117 53.9597C206.397 54.9303 208.79 55.194 211.401 55.1659Z" fill="white"/>
<path d="M121.1 50.8429C121.1 51.7572 121.023 52.682 121.121 53.5858C121.23 54.6126 120.762 55.2209 119.981 55.7484C117.595 57.3625 114.882 57.9427 112.088 58.1888C108.805 58.4772 105.567 58.1572 102.435 57.0636C102.062 56.9335 101.696 56.7717 101.337 56.6064C99.4721 55.7554 98.1947 54.6055 98.5607 52.246C98.7719 50.8851 98.6733 49.4609 98.5748 48.0754C98.4939 46.915 98.9689 46.057 99.9261 45.6596C101.89 44.8438 103.874 43.9506 105.94 43.5497C109.487 42.8605 113.066 43.1031 116.56 44.1405C116.976 44.2636 117.384 44.4324 117.789 44.5941C120.02 45.4838 121.695 46.7357 121.114 49.5313C121.026 49.9497 121.1 50.4033 121.1 50.8429ZM109.878 55.4811C112.162 55.024 114.453 54.5985 116.726 54.0957C117.767 53.8671 118.331 53.2517 118.172 52.0455C118.045 51.1066 118.074 50.1326 118.169 49.1866C118.257 48.2899 117.852 47.7836 117.092 47.6042C115.209 47.1541 113.323 46.6231 111.405 46.4262C108.498 46.1273 105.613 46.4473 102.847 47.5058C102.037 47.8152 101.541 48.2442 101.661 49.2535C101.781 50.2732 101.756 51.3247 101.668 52.355C101.587 53.2833 102.002 53.6948 102.801 54.0148C105.06 54.9255 109.857 55.3757 109.878 55.4811Z" fill="white"/>
<path d="M196.96 53.1539C197.59 53.8185 198.266 54.5324 199.195 55.517C197.664 56.2379 196.373 57.0572 194.965 57.4651C190.51 58.7592 186.002 58.7521 181.515 57.5354C180.98 57.3913 180.46 57.1768 179.949 56.9552C177.873 56.062 176.388 54.8699 176.824 52.208C177.074 50.6959 176.941 49.1029 176.846 47.5521C176.782 46.571 177.197 46.0189 177.933 45.495C180.037 43.9935 182.434 43.248 184.946 43.0299C188.726 42.7029 192.516 42.7381 196.123 44.1798C197.101 44.5702 197.998 45.168 199.103 45.7622C198.283 46.6484 197.625 47.3587 196.953 48.0866C194.022 45.924 190.661 45.9064 187.318 45.9416C185.126 45.9662 182.958 46.2405 180.935 47.2216C180.248 47.5557 179.897 47.9319 179.949 48.7583C180.03 50.0277 179.904 51.3148 180.009 52.5807C180.044 53.0238 180.414 53.6954 180.776 53.8115C182.543 54.3847 184.334 55.0352 186.16 55.2286C189.891 55.626 193.543 55.1688 196.96 53.1539Z" fill="white"/>
<path d="M50.4916 57.7327C49.4183 57.7327 48.4788 57.7327 47.3738 57.7327C47.3738 57.0154 47.3738 56.3121 47.3738 55.6123C47.3738 53.0206 47.4195 50.429 47.3492 47.8409C47.321 46.8738 47.6905 46.2936 48.4365 45.7696C50.1679 44.5529 52.0998 43.8743 54.1655 43.5543C58.0645 42.9529 61.953 42.9846 65.743 44.1732C66.862 44.5248 67.8931 45.1754 68.9312 45.7521C69.9975 46.3463 70.3951 47.2641 69.9693 48.5863C68.7799 48.516 67.689 48.6848 66.3976 47.9428C64.814 47.0321 62.8152 46.6874 60.9501 46.4589C57.8921 46.0826 54.8306 46.276 51.8922 47.3872C50.9174 47.7565 50.4036 48.2593 50.4564 49.4655C50.5761 52.1696 50.4916 54.8809 50.4916 57.7327Z" fill="white"/>
<path d="M273.83 57.7359C272.778 57.7359 271.912 57.7359 270.909 57.7359C270.909 56.4242 270.909 55.1618 270.909 53.8994C270.909 51.9091 270.997 49.9117 270.878 47.9249C270.804 46.6836 271.367 46.0014 272.303 45.4176C274.632 43.9583 277.24 43.4625 279.914 43.2691C282.986 43.0475 286.055 43.1741 289.004 44.1587C290.081 44.5174 291.084 45.1223 292.09 45.6673C293.227 46.2827 293.561 47.2533 293.156 48.5508C291.999 48.5755 290.996 48.6282 289.778 47.9636C288.138 47.0634 286.118 46.6871 284.218 46.462C281.079 46.0858 277.94 46.2757 274.949 47.51C274.115 47.8546 273.774 48.3469 273.802 49.3104C273.879 52.0849 273.83 54.8664 273.83 57.7359Z" fill="white"/>
<path d="M94.6035 43.4805C95.6205 43.4805 96.5284 43.4805 97.5419 43.4805C97.5419 48.1961 97.5419 52.9011 97.5419 57.6976C96.6199 57.6976 95.6522 57.6976 94.6035 57.6976C94.6035 53.0066 94.6035 48.3016 94.6035 43.4805Z" fill="white"/>
</g>
<defs>
<clipPath id="clip0_2580_4335">
<rect width="293" height="64" fill="white"/>
</clipPath>
</defs>
</svg>
