<svg width="54" height="60" viewBox="0 0 54 60" fill="none" xmlns="http://www.w3.org/2000/svg">
<!-- <path d="M50.0373 8.28554L49.6846 9.22128L28.7365 1.32632L28.2652 1.17483C27.2579 0.900218 26.1902 0.950054 25.2122 1.3177C25.2121 1.31775 25.212 1.31781 25.2118 1.31786L4.26152 9.21367L3.84225 9.39269C2.99536 9.79919 2.27887 10.4379 1.77577 11.2363C1.26921 12.0402 1.00002 12.9726 1 13.925C1 13.925 1 13.925 1 13.925V30.0643L1.0147 30.951C1.17186 35.6455 2.58652 40.2102 5.10915 44.1637C7.63323 48.1194 11.1727 51.3161 15.3535 53.4171L25.3761 58.4536L25.7583 58.6189C26.2019 58.7834 26.674 58.8555 27.1461 58.8309C27.6253 58.806 28.0945 58.682 28.5242 58.4664L50.0373 8.28554ZM50.0373 8.28554L49.6846 9.22129C50.5699 9.5549 51.3433 10.1348 51.9143 10.894C52.4815 11.6482 52.8257 12.5485 52.9067 13.4912L52.9259 13.9461V30.0726C52.9258 34.7725 51.6631 39.3849 49.2715 43.4229C46.8813 47.4586 43.4522 50.7707 39.3464 53.0104L38.5643 53.4211L28.5247 58.4662L50.0373 8.28554Z" stroke="#25D366" stroke-width="2"/> -->
<path fill-rule="evenodd" clip-rule="evenodd" d="M25.4111 7.29666C26.3342 6.95128 27.3429 6.90625 28.2931 7.168L28.6954 7.29666L45.0702 13.4372C45.9005 13.7485 46.6252 14.2894 47.1598 14.9968C47.6945 15.7042 48.0172 16.5489 48.0902 17.4326L48.1065 17.8186V30.364C48.1065 34.1546 47.083 37.8749 45.1441 41.1321C43.2053 44.3893 40.423 47.0626 37.091 48.8699L36.4688 49.195L28.6229 53.1179C28.1909 53.3336 27.719 53.4579 27.2368 53.4828C26.7546 53.5078 26.2724 53.4329 25.8205 53.263L25.4836 53.1179L17.6378 49.195C14.2473 47.4997 11.3774 44.9205 9.3311 41.7296C7.28479 38.5386 6.13797 34.8544 6.0117 31.0658L6 30.364V17.8186C6.00001 16.9323 6.25177 16.0643 6.72595 15.3156C7.20013 14.5668 7.87724 13.9681 8.67844 13.5893L9.03635 13.4372L25.4111 7.29666ZM35.0839 22.3474L24.328 33.1033L20.1922 28.9675C19.7533 28.5289 19.1581 28.2826 18.5376 28.2828C17.917 28.283 17.322 28.5297 16.8834 28.9687C16.4447 29.4076 16.1984 30.0028 16.1987 30.6233C16.1989 31.2439 16.4456 31.8389 16.8845 32.2775L22.5081 37.9011C22.7471 38.1402 23.0308 38.3298 23.3431 38.4592C23.6553 38.5886 23.99 38.6552 24.328 38.6552C24.6661 38.6552 25.0008 38.5886 25.313 38.4592C25.6253 38.3298 25.909 38.1402 26.148 37.9011L38.3916 25.6551C38.615 25.4393 38.7933 25.1812 38.9159 24.8958C39.0385 24.6104 39.103 24.3035 39.1057 23.9928C39.1084 23.6822 39.0492 23.3742 38.9316 23.0867C38.814 22.7992 38.6403 22.5381 38.4206 22.3184C38.201 22.0988 37.9398 21.9251 37.6523 21.8075C37.3648 21.6898 37.0568 21.6307 36.7462 21.6334C36.4356 21.6361 36.1286 21.7006 35.8432 21.8232C35.5578 21.9458 35.2997 22.124 35.0839 22.3474Z" fill="#25D366"/>
</svg>
